<svg width="100%" height="100%" viewBox="0 0 190 190" fill="none" xmlns="http://www.w3.org/2000/svg">
<path d="M178.28 133.68C178.28 113.13 162.52 85.8102 155.83 76.5502C147.82 65.3202 133.59 46.1602 133.59 46.1602C133.59 46.1602 121.67 60.2302 110.16 79.7702C112.16 86.7102 113.34 94.0402 113.34 101.26C113.34 121.19 103.66 137.12 90.8201 148.58C96.8401 167.16 113.53 179.6 133.66 179.6C158.67 179.6 178.28 161.47 178.28 133.68Z" fill="black"/>
<path d="M132.88 165.18C130.73 164.73 130.83 160.88 133.24 160.07C139.79 157.71 146.55 155.05 151.44 146.41C153.82 142.14 154.74 135.95 155.64 132.6C156.43 129.57 161.91 131.05 161.91 136.89C161.91 141.79 156.67 151.89 153.72 155.97C148.37 163.31 136.97 166 132.88 165.18Z" fill="#F1F6D2"/>
<path d="M59.5101 11C43.5301 30.52 11.9401 63.39 12.0001 99.69C12.0001 123.9 28.0501 147.95 55.0601 152.87V179.99H64.0001L64.0701 152.81C84.5301 148.96 105.8 128.89 105.8 100.82C105.8 71.15 80.0401 36.62 59.5101 11Z" fill="black"/>
<path d="M83 102.5L81.1601 99.0302L62.9301 116.7C62.5 105 62.9301 91.1002 62.9301 91.1002L80.8101 73.0102L75.9301 69.6702L63.3201 80.9002C62.9301 73.0102 62.9301 52.9102 62.9301 52.9102H56.6601L55.0501 111.93L33.7801 92.2302L31.5 93L28.6501 97.7701L54.7401 121.9L55.0501 146.28C58.2001 146.28 56.1601 146.28 58.2001 146.28H62.9402C62.9402 146.28 61.9202 139 62.9402 126.89L84.2101 106.06L83 102.5Z" fill="#F1F6D2"/>
</svg>
