<svg width="100%" height="100%" viewBox="0 0 185 185" fill="none" xmlns="http://www.w3.org/2000/svg">
<path d="M113.905 151.25L83.7147 101.829C81.7562 99.0588 80.8294 95.7272 81.0396 92.3671L81.5173 67.0284L82.9504 66.2098C86.4949 65.3912 88.4535 62.6212 87.6318 59.8513C86.9439 57.3764 84.393 55.7392 81.823 56.0343H40.1585C36.9961 55.6916 34.5408 58.2997 34.5408 61.4409C34.5408 64.3822 36.8624 66.4763 39.7954 66.343L41.0947 67.1617V91.8246C41.0947 95.2228 40.34 98.5448 38.3814 101.438L9.27067 149.555C3.38547 159.055 9.53818 172.21 20.85 173H103.979C113.523 171.972 119.351 160.226 113.905 151.25Z" fill="#F9FBE7"/>
<path d="M84.1447 54H39.395C35.6063 54.9003 33.8929 62.2083 39.0047 63.961L41.4035 64.6219L40.7467 92.4937C40.7467 95.549 39.89 98.5373 38.1385 101.19L9.0478 150.019C3.56474 159.261 9.6951 171.349 20.2804 171.933L103.926 172C112.521 171.483 117.662 160.516 113.569 151.944L83.7068 100.357C81.9172 97.4455 81.0986 94.0644 81.2985 90.6739L82.2599 64.4878H83.8687C89.1423 63.0511 89.6754 55.7432 84.1447 54Z" fill="black"/>
<path d="M72.4 95.3907L89 126H76.9783C71.7718 126 66.6985 124.418 62.4057 121.359C58.941 119.243 54.9813 118.424 51.0217 118.424H39L48.7754 100.851C50.2031 98.0114 50.4696 94.7141 50.4696 91.4835V64H72.4V95.3907Z" fill="#F1F4D0"/>
<path d="M50.0419 131.002C45.2199 130.871 42.5264 137.177 44.8432 140.775C47.6403 145.206 52.1986 144.813 55.25 141.168C59.2338 137.439 55.9564 131.133 50.0419 131.002Z" fill="#F1F4D0"/>
<path d="M74.3285 145C69.7136 145 67.4348 152.073 70.1999 154.962C73.356 158.589 77.5895 157.025 79.3534 153.02C81.3081 149.433 78.6001 145 74.3285 145Z" fill="#F1F4D0"/>
<path d="M71.528 12C65.7334 12 63.3791 17.9645 64.1382 21.5019C65.5989 28.1051 71.3935 28.1051 72.3257 27.9675C77.3131 27.1224 79.2446 22.8874 78.9755 20.136C78.2836 15.1345 74.7184 12 71.528 12Z" fill="black"/>
<path d="M53.9339 32C48.409 32 47 37.8037 47 38.6075C47 44.4112 50.9675 47 53.6002 47C60.9884 47 62.1193 43.1028 61.9895 38.7383C62.2491 33.4486 57.6326 32 53.9339 32Z" fill="black"/>
<path d="M63.5962 80C65.6724 80 66.9198 77.4603 65.1664 75.6974C63.8928 74.4232 61.7469 75.0516 61.1188 76.3258C60.6303 77.9752 61.6858 80 63.5962 80Z" fill="black"/>
<path d="M65.3034 103C60.5548 103 60.5548 109.342 61.4797 111C63.2056 113.939 69.4894 113.535 70.7862 110.47C71.8828 108.262 68.5645 103 65.3034 103Z" fill="black"/>
<path d="M134.49 49.0175C121.836 48.4759 108 60.6083 108 73.8143C108 81.5859 111.123 88.9679 116.648 94.3263C119.396 97.281 121.692 103.675 122.73 108.872C122.999 110.344 125.622 111 127.121 111H142.581C144.55 111 145.79 110.012 146.193 108.473C148.557 99.6372 152.122 94.8013 155.677 90.0985C159.367 85.5476 161 81.3198 161 75.9994C160.856 61.6629 149.345 49.0175 134.49 49.0175Z" fill="black"/>
<path d="M132.289 32.5589L132.003 39.0884C131.86 43.0152 137.273 42.629 137.56 39.9528L138 32.8164C137.56 29.3769 133.169 28.8527 132.289 32.5589Z" fill="black"/>
<path d="M105.859 43.9665C103.676 46.4082 105.859 49.6049 110.092 52.8899C113.457 55.7434 115.649 52.478 114.827 50.0265C114.014 48.1046 111.104 44.6823 110.092 43.6919C108.732 42.6035 106.87 42.878 105.859 43.9665Z" fill="black"/>
<path d="M92.1919 72.9812C91.5606 74.99 92.4736 76.9244 95.1253 77.594C98.0488 78.3938 102.264 77.9939 103.381 76.5524C104.935 74.4134 103.381 71.921 100.73 71.5211C97.5049 70.8515 93.3284 70.3958 92.1919 72.9812Z" fill="black"/>
<path d="M105.407 99.1223C103.359 101.839 103.633 106.218 105.671 106.897C108.343 107.744 110.599 103.148 112.977 100.628C115.262 98.3743 113.459 95.5103 110.136 96.0713C107.88 96.3469 106.493 97.646 105.407 99.1223Z" fill="black"/>
<path d="M157.196 96.8647C155.355 98.5829 155.495 101.226 158.637 103.961C160.799 106.29 162.32 108.038 164.642 106.29C167.374 104.307 165.602 100.098 162.7 97.9729C160.759 95.9903 159.197 95.2888 157.196 96.8647Z" fill="black"/>
<path d="M167.549 73.4682C166.476 75.4233 166.998 78 168.92 78H175.067C178.285 78 178.798 74.6613 176.886 72.8767C175.459 71.6234 169.181 71.6234 167.549 73.4682Z" fill="black"/>
<path d="M157.65 48.5101C155.255 51.019 155.826 53.1565 157.106 53.7633C159.234 54.7686 161.122 52.3594 162.853 50.5208C164.925 48.6369 167.089 46.8707 165.385 44.8963C163.12 42.3874 160.228 45.648 157.65 48.5101Z" fill="black"/>
<path d="M133.115 58.0104C124.368 58.5533 118 65.0772 118 73.5399C118 76.6323 122.285 76.768 122.952 74.1797C123.748 69.5267 125.386 63.9237 133.254 63.2548C137.002 62.8477 136.873 57.739 133.115 58.0104Z" fill="#F1F4D0"/>
<path d="M124.556 115.003C121.545 114.86 121.142 119.969 123.626 121.251C126.119 122.523 136.954 121.821 142.323 121.679C147.396 121.679 147.674 118.432 146.274 116.031C145.171 114.341 142.189 115.614 139.006 115.614C136.589 115.614 129.072 115.329 124.556 115.003Z" fill="black"/>
<path d="M129.146 125.543C126.071 126.198 126.351 131.13 129.665 130.997L140.496 130.598C143.64 130.465 143.64 126.332 141.514 125.543C139.917 124.887 133.488 124.754 129.146 125.543Z" fill="black"/>
</svg>
