<svg width="100%" height="100%" viewBox="0 0 175 175" fill="none" xmlns="http://www.w3.org/2000/svg">
<g clip-path="url(#clip0_250_18)">
<path d="M164.91 69.18C162.68 65.93 158.17 64.46 154.21 64.18C150.25 63.9 148 62.83 146.94 58.86C145.88 54.9 143.33 51.99 145.09 49.13C147.71 44.82 152.59 39.83 149.71 34.67L134.1 18.86C131.68 16.04 129.31 16.31 126.04 18.86C123.74 20.69 120.61 22.55 117.91 23.78C112.87 21.16 110 19.76 104.76 18.67C101.05 17.88 101.4 13.84 100.17 6.81C99.28 2.47 97.37 1 94.8 1L75.31 1.58C71.06 1.27 68.93 3.28 68.93 9.87C68.93 14.73 68.78 17.58 65.14 18.86C60.43 20.44 56.71 20.58 52.7 23.61L41.87 17.36C38.2 15.21 36.07 17.36 33.18 20.16L21.94 31.69C19.48 34.49 18.13 37.65 21.09 41.43C24.81 46.21 27.14 49.23 25.81 51.66C23.97 55.16 22.25 57.56 21.36 61.76C20.69 64.61 16.12 65.51 12.4 65.69C7.96 65.93 4 67.83 4 74.64V90.46C4 95.61 6.23 98.13 10.81 98.41C16.57 98.79 19.59 100.46 20.4 102.89C21.21 105.55 21.09 107.16 24.08 111.27C26.31 114.52 25.16 117.66 21.53 122.81C18.31 127.37 17.16 129.55 22.77 136.19C26.96 141.18 30.18 144.03 35.8 148.1C38.78 150.56 41.6 149.87 44.65 146.58C48.89 142.41 51.94 140.94 55.6 143.3C59.01 145.49 62.23 146.77 66.01 148.91C68.77 150.38 68.36 153.44 69.69 158.59C71.15 164.38 71.65 165.18 76.1 165.04L92 164.57C97.2 164.38 102.4 162.06 100.68 157.46C92.97 146.72 90.15 140.08 89.52 128.78C59.71 128.27 40 108.01 40 82.32C40 59.13 57.16 37.91 85.17 37.91C106.84 37.91 125.28 53.17 128.11 71.47L135.56 71.37L164.62 82.68C166.08 79.09 166.93 72.18 164.91 69.18Z" fill="black" stroke="#F1F4CD" stroke-width="2" stroke-miterlimit="10"/>
<path d="M85.8101 45.9596C59.2601 44.8496 48.8401 65.1596 48.8401 84.1896C48.8401 102.09 62.9001 117.84 84.8901 117.84C89.4701 117.84 89.2101 114.26 88.3201 109.49C87.5101 106.39 85.1901 106.99 83.9301 106.99C72.0801 106.29 62.0301 98.1496 62.0301 83.2296C62.7801 69.0596 72.2201 59.6196 86.6101 60.1096C96.8901 60.4896 106.29 68.9696 106.68 77.4896C106.96 79.9096 107.8 80.4896 109.9 79.9096L117.43 77.3996C119.36 76.7896 119.31 74.8496 118.78 72.3096C115.98 58.8896 104.26 46.7596 85.8101 45.9596Z" fill="black" stroke="#F1F4CD" stroke-width="2" stroke-miterlimit="10"/>
<path d="M95.71 90.6798C93.36 91.4298 93.02 94.2298 93.02 96.4798V123.42C93.02 141.75 100.96 156.5 125.8 170.55C131.56 173.51 135.46 175.41 139.92 173.15C157.18 164.56 174.84 149.95 175.15 126.77V97.2898C175.15 93.4598 173.95 92.1298 170.29 91.0098C158.33 87.3298 142.83 80.5698 137.63 79.0998C134.95 78.2498 133.85 78.4798 130.63 79.9498C122.95 83.4498 108.8 87.5098 95.71 90.6798Z" fill="black" stroke="#F1F4CD" stroke-width="2" stroke-miterlimit="10"/>
<path d="M118.11 126.78L131.93 138.54L154.57 113.48" stroke="#F1F4CD" stroke-width="7.8" stroke-linecap="round" stroke-linejoin="round"/>
</g>
<defs>
<clipPath id="clip0_250_18">
<rect width="175" height="175" fill="white"/>
</clipPath>
</defs>
</svg>
