<svg width="100%" height="100%" viewBox="0 0 322 73" fill="none" xmlns="http://www.w3.org/2000/svg" role="img" aria-label="ПроффХим">
<title>ПроффХим</title>
<path d="M73.5584 17.8408V55.2037H86.4483V30.1369H99.3382V54.6708H112.61V17.8408H73.5584Z" fill="#020202"/>
<path d="M116.766 17.8409V59.0214H129.635V54.5836H156.002V17.8409H116.766ZM141.968 42.4232H129.635V30.0497H141.968V42.4232Z" fill="#020202"/>
<path d="M159.992 17.8409V54.6708H198.425V17.8409H159.992ZM185.978 42.1131H172.779V29.9528H185.978V42.1131Z" fill="#020202"/>
<path d="M202.365 17.8409V54.2735H230.083V59.0214H242.447V54.4189H243.211L282.911 54.2735V59.0214H294.141V54.4189H321.87V17.8409H202.324H202.365ZM228.98 42.1132H215.874V29.6137H228.98V42.1132ZM255.554 42.1132H242.447V29.6137H255.554V42.1132ZM282.437 42.1132H268.722V29.6137H282.437V42.1132ZM309.32 42.1132H295.244V29.6137H309.32V42.1132Z" fill="#F5C702"/>
<path d="M32.2864 0.169111L48.2149 9.69374L44.9804 11.4354L32.0001 3.50856C31.7564 3.36472 31.6055 3.38805 31.385 3.50856L18.9192 11.3499L15.4526 9.42549L31.2186 0.169111C31.6055 -0.0563702 31.8841 -0.0563702 32.2864 0.169111Z" fill="#020202"/>
<path d="M0.564866 17.8378L13.6922 10.3892C14.0597 10.1831 14.4234 10.1598 14.7832 10.3659L27.7094 17.8728C28.0344 18.0478 28.135 18.4132 28.135 18.7436V29.4462L31.737 31.7477L35.2267 29.5939V18.7436C35.2267 18.2888 35.3854 18.0244 35.7181 17.8145L49.124 10.3659C49.4683 10.1715 49.7817 10.1598 50.1377 10.3659L62.9207 17.9272C63.2224 18.1022 63.3114 18.4326 63.3114 18.7864V33.8081C63.3114 34.3096 63.1335 34.5623 62.7427 34.8111L49.8939 42.1587C49.5264 42.4036 49.2207 42.4114 48.7719 42.1276L39.1963 36.2534L35.6639 38.4693V43.0062L45.2821 48.8104C45.6187 49.0203 45.7387 49.3158 45.7387 49.7006V64.3336C45.7387 64.8001 45.5762 65.0683 45.1854 65.3132L32.4721 72.7736C31.9923 73.069 31.5203 73.0884 31.0057 72.7541L18.8379 65.2122C18.4936 65.0022 18.3311 64.7107 18.3311 64.3219V49.7317C18.3311 49.2652 18.4549 48.9736 18.8147 48.7676L27.9222 43.0256V38.5549L24.413 36.3389L14.8142 42.1042C14.3577 42.3958 14.0211 42.3958 13.5413 42.1276L0.553259 34.6323C0.162496 34.4223 0 34.1074 0 33.637V18.8564C0 18.4132 0.143151 18.0594 0.564866 17.8378ZM13.9089 26.134V38.8114L24.5291 32.7351L30.8239 36.4283C31.2108 36.6538 31.2727 36.9104 31.2727 37.3575V44.0636C31.2727 44.5301 31.0908 44.8411 30.673 45.0783L21.1515 50.9369L31.5745 57.2076L42.6899 50.828L32.9518 45.156C32.5146 44.8878 32.3753 44.6312 32.3753 44.188V37.2603C32.3753 36.8249 32.5262 36.4517 32.9634 36.2068L39.0261 32.8245L49.5999 38.7454V26.0484L38.5463 19.56V30.7563C38.5463 31.2617 38.407 31.6466 37.9389 31.9382L32.2244 35.1027C31.7679 35.3748 31.3539 35.332 30.8432 35.0171L25.9761 32.1675C25.4847 31.8721 25.1714 31.6272 25.1714 31.0168V19.9643L13.9089 26.134Z" fill="#F5C702"/>
<path d="M59.9885 37.4905L63.4125 35.5467V54.11C63.4125 54.5221 63.2616 54.732 62.9366 54.9381L46.9733 64.1206V60.3496L59.9885 52.9437V37.4905Z" fill="#020202"/>
<path d="M0.131368 35.6041L3.42771 37.5051V52.7406L16.8104 60.407V64.1779L0.661413 54.7349C0.239698 54.49 0.131368 54.2451 0.131368 53.763V35.6041Z" fill="#020202"/>
<path d="M81.3276 60.9848V69.9264H79.9896V62.1374H75.802V69.9264H74.4641V60.9848H81.3276Z" fill="#020202"/>
<path d="M83.337 72.4412V63.2202H84.6054V64.3073H84.714C84.7893 64.1676 84.8979 64.0061 85.0398 63.8227C85.1817 63.6393 85.3786 63.4792 85.6306 63.3424C85.8825 63.2027 86.2156 63.1329 86.6297 63.1329C87.1684 63.1329 87.6491 63.2697 88.0719 63.5433C88.4947 63.8169 88.8263 64.2113 89.0667 64.7265C89.3099 65.2417 89.4316 65.8616 89.4316 66.5864C89.4316 67.3112 89.3114 67.9326 89.071 68.4507C88.8306 68.9659 88.5005 69.3632 88.0806 69.6426C87.6607 69.9191 87.1814 70.0574 86.6427 70.0574C86.2373 70.0574 85.9057 69.989 85.648 69.8522C85.3931 69.7154 85.1933 69.5553 85.0485 69.3719C84.9037 69.1886 84.7922 69.0255 84.714 68.8829H84.6358V72.4412H83.337ZM84.6098 66.5733C84.6098 67.0448 84.6778 67.4581 84.8139 67.8132C84.95 68.1684 85.147 68.4463 85.4047 68.6472C85.6624 68.8451 85.9781 68.944 86.3517 68.944C86.7398 68.944 87.0641 68.8407 87.3247 68.6341C87.5854 68.4245 87.7823 68.1407 87.9155 67.7827C88.0516 67.4247 88.1197 67.0215 88.1197 66.5733C88.1197 66.1309 88.0531 65.7336 87.9199 65.3814C87.7895 65.0292 87.5926 64.7512 87.3291 64.5475C87.0684 64.3437 86.7426 64.2418 86.3517 64.2418C85.9752 64.2418 85.6567 64.3393 85.396 64.5344C85.1383 64.7294 84.9428 65.0015 84.8096 65.3508C84.6764 65.7001 84.6098 66.1076 84.6098 66.5733Z" fill="#020202"/>
<path d="M93.7585 70.0618C93.133 70.0618 92.5871 69.9177 92.1208 69.6295C91.6546 69.3414 91.2926 68.9382 91.0348 68.4201C90.7771 67.902 90.6482 67.2966 90.6482 66.6039C90.6482 65.9082 90.7771 65.2999 91.0348 64.7789C91.2926 64.2578 91.6546 63.8533 92.1208 63.5651C92.5871 63.2769 93.133 63.1329 93.7585 63.1329C94.384 63.1329 94.9299 63.2769 95.3962 63.5651C95.8624 63.8533 96.2244 64.2578 96.4821 64.7789C96.7399 65.2999 96.8688 65.9082 96.8688 66.6039C96.8688 67.2966 96.7399 67.902 96.4821 68.4201C96.2244 68.9382 95.8624 69.3414 95.3962 69.6295C94.9299 69.9177 94.384 70.0618 93.7585 70.0618ZM93.7628 68.9659C94.1683 68.9659 94.5042 68.8582 94.7706 68.6428C95.0371 68.4274 95.234 68.1407 95.3614 67.7827C95.4917 67.4247 95.5569 67.0303 95.5569 66.5995C95.5569 66.1716 95.4917 65.7787 95.3614 65.4207C95.234 65.0597 95.0371 64.7701 94.7706 64.5518C94.5042 64.3335 94.1683 64.2244 93.7628 64.2244C93.3545 64.2244 93.0157 64.3335 92.7463 64.5518C92.4799 64.7701 92.2815 65.0597 92.1512 65.4207C92.0238 65.7787 91.9601 66.1716 91.9601 66.5995C91.9601 67.0303 92.0238 67.4247 92.1512 67.7827C92.2815 68.1407 92.4799 68.4274 92.7463 68.6428C93.0157 68.8582 93.3545 68.9659 93.7628 68.9659Z" fill="#020202"/>
<path d="M101.251 72.2098V60.9848H102.55V72.2098H101.251ZM101.251 70.0618C100.779 70.0618 100.349 69.9803 99.9609 69.8173C99.5729 69.6513 99.2384 69.4156 98.9575 69.11C98.6766 68.8043 98.4594 68.439 98.3059 68.0141C98.1553 67.5891 98.08 67.119 98.08 66.6039C98.08 66.0828 98.1553 65.6099 98.3059 65.1849C98.4594 64.7599 98.6766 64.3946 98.9575 64.089C99.2384 63.7834 99.5729 63.5476 99.9609 63.3817C100.349 63.2158 100.779 63.1329 101.251 63.1329H101.573V70.0618H101.251ZM101.251 68.9615H101.434V64.2331H101.251C100.938 64.2331 100.666 64.2971 100.434 64.4252C100.203 64.5504 100.01 64.7235 99.8567 64.9448C99.7032 65.1631 99.5873 65.4148 99.5091 65.7001C99.4338 65.9853 99.3962 66.2866 99.3962 66.6039C99.3962 67.0288 99.4643 67.4203 99.6004 67.7783C99.7365 68.1334 99.9421 68.4201 100.217 68.6384C100.492 68.8538 100.837 68.9615 101.251 68.9615ZM102.55 70.0618H102.224V63.1329H102.55C103.022 63.1329 103.452 63.2158 103.84 63.3817C104.228 63.5476 104.561 63.7834 104.839 64.089C105.12 64.3946 105.336 64.7599 105.486 65.1849C105.64 65.6099 105.717 66.0828 105.717 66.6039C105.717 67.119 105.64 67.5891 105.486 68.0141C105.336 68.439 105.12 68.8043 104.839 69.11C104.561 69.4156 104.228 69.6513 103.84 69.8173C103.452 69.9803 103.022 70.0618 102.55 70.0618ZM102.55 68.9615C102.863 68.9615 103.135 68.9004 103.367 68.7781C103.598 68.653 103.791 68.4813 103.944 68.2629C104.098 68.0417 104.212 67.79 104.287 67.5076C104.363 67.2224 104.4 66.9211 104.4 66.6039C104.4 66.1818 104.332 65.7918 104.196 65.4338C104.063 65.0728 103.859 64.7832 103.584 64.5649C103.309 64.3437 102.964 64.2331 102.55 64.2331H102.363V68.9615H102.55Z" fill="#020202"/>
<path d="M110.097 70.0618C109.439 70.0618 108.873 69.9206 108.398 69.6382C107.926 69.353 107.561 68.9528 107.304 68.4376C107.049 67.9195 106.921 67.3126 106.921 66.617C106.921 65.93 107.049 65.3246 107.304 64.8007C107.561 64.2768 107.92 63.8678 108.381 63.5738C108.844 63.2798 109.386 63.1329 110.006 63.1329C110.382 63.1329 110.747 63.1954 111.1 63.3206C111.454 63.4458 111.771 63.6422 112.052 63.91C112.332 64.1778 112.554 64.5256 112.716 64.9535C112.878 65.3785 112.959 65.8951 112.959 66.5034V66.9662H107.655V65.9882H111.687C111.687 65.6448 111.617 65.3406 111.478 65.0757C111.339 64.808 111.144 64.5969 110.892 64.4427C110.643 64.2884 110.35 64.2113 110.014 64.2113C109.649 64.2113 109.331 64.3015 109.059 64.482C108.789 64.6595 108.581 64.8924 108.433 65.1805C108.288 65.4658 108.216 65.7758 108.216 66.1105V66.8746C108.216 67.3228 108.294 67.7041 108.45 68.0184C108.61 68.3328 108.831 68.5729 109.115 68.7388C109.399 68.9018 109.73 68.9833 110.11 68.9833C110.356 68.9833 110.58 68.9484 110.783 68.8786C110.986 68.8058 111.161 68.6981 111.309 68.5555C111.456 68.4129 111.569 68.2368 111.648 68.0272L112.877 68.2499C112.778 68.6137 112.602 68.9324 112.347 69.206C112.095 69.4767 111.778 69.6877 111.396 69.8391C111.016 69.9875 110.583 70.0618 110.097 70.0618Z" fill="#020202"/>
<path d="M117.272 70.0618C116.626 70.0618 116.07 69.9148 115.604 69.6208C115.141 69.3239 114.785 68.9149 114.536 68.3939C114.287 67.8729 114.162 67.2762 114.162 66.6039C114.162 65.9228 114.289 65.3217 114.544 64.8007C114.799 64.2768 115.158 63.8678 115.622 63.5738C116.085 63.2798 116.631 63.1329 117.259 63.1329C117.766 63.1329 118.218 63.2275 118.615 63.4167C119.011 63.6029 119.331 63.8649 119.575 64.2025C119.821 64.5402 119.967 64.9346 120.013 65.3857H118.749C118.68 65.0714 118.52 64.8007 118.271 64.5736C118.025 64.3466 117.695 64.2331 117.281 64.2331C116.919 64.2331 116.602 64.3292 116.33 64.5213C116.06 64.7105 115.85 64.9811 115.7 65.3333C115.549 65.6826 115.474 66.0959 115.474 66.5733C115.474 67.0623 115.548 67.4843 115.695 67.8394C115.843 68.1945 116.052 68.4696 116.321 68.6646C116.593 68.8596 116.913 68.9572 117.281 68.9572C117.527 68.9572 117.75 68.912 117.95 68.8218C118.153 68.7287 118.322 68.5962 118.458 68.4245C118.597 68.2528 118.694 68.0461 118.749 67.8045H120.013C119.967 68.2382 119.827 68.6253 119.592 68.9659C119.357 69.3064 119.043 69.5742 118.649 69.7692C118.258 69.9642 117.799 70.0618 117.272 70.0618Z" fill="#020202"/>
<path d="M124.274 70.0618C123.628 70.0618 123.072 69.9148 122.606 69.6208C122.143 69.3239 121.786 68.9149 121.537 68.3939C121.288 67.8729 121.164 67.2762 121.164 66.6039C121.164 65.9228 121.291 65.3217 121.546 64.8007C121.801 64.2768 122.16 63.8678 122.623 63.5738C123.087 63.2798 123.633 63.1329 124.261 63.1329C124.768 63.1329 125.22 63.2275 125.616 63.4167C126.013 63.6029 126.333 63.8649 126.576 64.2025C126.822 64.5402 126.969 64.9346 127.015 65.3857H125.751C125.681 65.0714 125.522 64.8007 125.273 64.5736C125.027 64.3466 124.697 64.2331 124.283 64.2331C123.921 64.2331 123.604 64.3292 123.331 64.5213C123.062 64.7105 122.852 64.9811 122.701 65.3333C122.551 65.6826 122.476 66.0959 122.476 66.5733C122.476 67.0623 122.549 67.4843 122.697 67.8394C122.845 68.1945 123.053 68.4696 123.323 68.6646C123.595 68.8596 123.915 68.9572 124.283 68.9572C124.529 68.9572 124.752 68.912 124.952 68.8218C125.154 68.7287 125.324 68.5962 125.46 68.4245C125.599 68.2528 125.696 68.0461 125.751 67.8045H127.015C126.969 68.2382 126.828 68.6253 126.594 68.9659C126.359 69.3064 126.045 69.5742 125.651 69.7692C125.26 69.9642 124.801 70.0618 124.274 70.0618Z" fill="#020202"/>
<path d="M129.738 68.097L132.679 63.2202H134.078V69.9264H132.805V65.0452L129.877 69.9264H128.465V63.2202H129.738V68.097Z" fill="#020202"/>
<path d="M138.696 70.0618C138.07 70.0618 137.524 69.9177 137.058 69.6295C136.592 69.3414 136.23 68.9382 135.972 68.4201C135.714 67.902 135.585 67.2966 135.585 66.6039C135.585 65.9082 135.714 65.2999 135.972 64.7789C136.23 64.2578 136.592 63.8533 137.058 63.5651C137.524 63.2769 138.07 63.1329 138.696 63.1329C139.321 63.1329 139.867 63.2769 140.333 63.5651C140.799 63.8533 141.161 64.2578 141.419 64.7789C141.677 65.2999 141.806 65.9082 141.806 66.6039C141.806 67.2966 141.677 67.902 141.419 68.4201C141.161 68.9382 140.799 69.3414 140.333 69.6295C139.867 69.9177 139.321 70.0618 138.696 70.0618ZM138.7 68.9659C139.105 68.9659 139.441 68.8582 139.708 68.6428C139.974 68.4274 140.171 68.1407 140.298 67.7827C140.429 67.4247 140.494 67.0303 140.494 66.5995C140.494 66.1716 140.429 65.7787 140.298 65.4207C140.171 65.0597 139.974 64.7701 139.708 64.5518C139.441 64.3335 139.105 64.2244 138.7 64.2244C138.292 64.2244 137.953 64.3335 137.683 64.5518C137.417 64.7701 137.219 65.0597 137.088 65.4207C136.961 65.7787 136.897 66.1716 136.897 66.5995C136.897 67.0303 136.961 67.4247 137.088 67.7827C137.219 68.1407 137.417 68.4274 137.683 68.6428C137.953 68.8582 138.292 68.9659 138.7 68.9659Z" fill="#020202"/>
<path d="M147.839 66.0101V67.1409H144.225V66.0101H147.839ZM144.59 63.2202V69.9264H143.317V63.2202H144.59ZM148.747 63.2202V69.9264H147.478V63.2202H148.747Z" fill="#020202"/>
<path d="M152.487 70.0749C152.064 70.0749 151.682 69.9963 151.34 69.8391C150.999 69.679 150.728 69.4476 150.528 69.1449C150.331 68.8422 150.233 68.4711 150.233 68.0315C150.233 67.6532 150.305 67.3417 150.45 67.0972C150.595 66.8527 150.79 66.6592 151.036 66.5165C151.282 66.3739 151.558 66.2662 151.862 66.1934C152.166 66.1207 152.476 66.0654 152.791 66.0275C153.191 65.981 153.515 65.9431 153.764 65.914C154.013 65.882 154.194 65.8311 154.307 65.7612C154.42 65.6914 154.477 65.5778 154.477 65.4207V65.3901C154.477 65.0088 154.37 64.7134 154.155 64.5038C153.944 64.2942 153.628 64.1894 153.208 64.1894C152.771 64.1894 152.426 64.2869 152.174 64.482C151.925 64.6741 151.753 64.888 151.658 65.1238L150.437 64.8443C150.582 64.4368 150.793 64.1079 151.071 63.8576C151.352 63.6044 151.675 63.421 152.04 63.3075C152.405 63.1911 152.788 63.1329 153.191 63.1329C153.457 63.1329 153.74 63.1649 154.038 63.2289C154.339 63.29 154.62 63.4036 154.881 63.5695C155.144 63.7354 155.36 63.9726 155.528 64.2811C155.696 64.5868 155.78 64.9841 155.78 65.4731V69.9264H154.512V69.0095H154.459C154.375 69.1784 154.249 69.3443 154.081 69.5073C153.913 69.6703 153.698 69.8056 153.434 69.9133C153.171 70.021 152.855 70.0749 152.487 70.0749ZM152.77 69.027C153.129 69.027 153.436 68.9557 153.69 68.8131C153.948 68.6704 154.144 68.4842 154.277 68.2542C154.413 68.0214 154.481 67.7725 154.481 67.5076V66.6431C154.435 66.6897 154.345 66.7334 154.212 66.7741C154.081 66.812 153.932 66.8454 153.764 66.8746C153.596 66.9007 153.433 66.9255 153.273 66.9488C153.114 66.9691 152.981 66.9866 152.874 67.0012C152.622 67.0332 152.392 67.087 152.183 67.1627C151.978 67.2384 151.812 67.3475 151.688 67.4902C151.566 67.6299 151.505 67.8162 151.505 68.049C151.505 68.3721 151.624 68.6166 151.862 68.7825C152.099 68.9455 152.402 69.027 152.77 69.027Z" fill="#020202"/>
<path d="M157.045 69.9264L157.041 68.7956H157.28C157.465 68.7956 157.62 68.7563 157.745 68.6777C157.872 68.5962 157.977 68.4594 158.058 68.2673C158.139 68.0752 158.201 67.8103 158.244 67.4727C158.288 67.1321 158.32 66.7043 158.34 66.1891L158.457 63.2202H163.114V69.9264H161.841V64.3466H159.661L159.556 66.6257C159.53 67.1787 159.474 67.6619 159.387 68.0752C159.303 68.4885 159.18 68.8334 159.018 69.11C158.855 69.3836 158.647 69.5888 158.392 69.7256C158.137 69.8595 157.827 69.9264 157.462 69.9264H157.045Z" fill="#020202"/>
<path d="M165.885 65.5254H167.822C168.639 65.5254 169.267 65.7292 169.707 66.1367C170.148 66.5442 170.368 67.0696 170.368 67.7128C170.368 68.132 170.269 68.5089 170.072 68.8436C169.875 69.1784 169.587 69.4432 169.208 69.6382C168.828 69.8304 168.367 69.9264 167.822 69.9264H164.907V63.2202H166.18V68.8H167.822C168.196 68.8 168.503 68.7025 168.743 68.5074C168.983 68.3095 169.104 68.0577 169.104 67.7521C169.104 67.429 168.983 67.1656 168.743 66.9619C168.503 66.7552 168.196 66.6519 167.822 66.6519H165.885V65.5254Z" fill="#020202"/>
<path d="M176.407 66.0101V67.1409H172.793V66.0101H176.407ZM173.158 63.2202V69.9264H171.885V63.2202H173.158ZM177.315 63.2202V69.9264H176.047V63.2202H177.315Z" fill="#020202"/>
<path d="M181.924 70.0618C181.299 70.0618 180.753 69.9177 180.287 69.6295C179.82 69.3414 179.458 68.9382 179.201 68.4201C178.943 67.902 178.814 67.2966 178.814 66.6039C178.814 65.9082 178.943 65.2999 179.201 64.7789C179.458 64.2578 179.82 63.8533 180.287 63.5651C180.753 63.2769 181.299 63.1329 181.924 63.1329C182.55 63.1329 183.096 63.2769 183.562 63.5651C184.028 63.8533 184.39 64.2578 184.648 64.7789C184.906 65.2999 185.035 65.9082 185.035 66.6039C185.035 67.2966 184.906 67.902 184.648 68.4201C184.39 68.9382 184.028 69.3414 183.562 69.6295C183.096 69.9177 182.55 70.0618 181.924 70.0618ZM181.929 68.9659C182.334 68.9659 182.67 68.8582 182.936 68.6428C183.203 68.4274 183.4 68.1407 183.527 67.7827C183.658 67.4247 183.723 67.0303 183.723 66.5995C183.723 66.1716 183.658 65.7787 183.527 65.4207C183.4 65.0597 183.203 64.7701 182.936 64.5518C182.67 64.3335 182.334 64.2244 181.929 64.2244C181.52 64.2244 181.182 64.3335 180.912 64.5518C180.646 64.7701 180.447 65.0597 180.317 65.4207C180.19 65.7787 180.126 66.1716 180.126 66.5995C180.126 67.0303 180.19 67.4247 180.317 67.7827C180.447 68.1407 180.646 68.4274 180.912 68.6428C181.182 68.8582 181.52 68.9659 181.929 68.9659Z" fill="#020202"/>
<path d="M187.401 70.0094C187.164 70.0094 186.96 69.925 186.789 69.7561C186.618 69.5844 186.533 69.3777 186.533 69.1362C186.533 68.8975 186.618 68.6937 186.789 68.5249C186.96 68.3532 187.164 68.2673 187.401 68.2673C187.639 68.2673 187.843 68.3532 188.014 68.5249C188.185 68.6937 188.27 68.8975 188.27 69.1362C188.27 69.2962 188.23 69.4432 188.148 69.5771C188.07 69.7081 187.966 69.8129 187.836 69.8915C187.705 69.9701 187.561 70.0094 187.401 70.0094Z" fill="#020202"/>
<path d="M192.657 72.0876V68.7825H193.244C193.443 68.6137 193.63 68.3736 193.804 68.0621C193.978 67.7507 194.125 67.3301 194.247 66.8003C194.369 66.2706 194.453 65.5909 194.499 64.7614L194.707 60.9848H200.194V68.7825H201.202V72.0745H199.916V69.9264H193.943V72.0876H192.657ZM194.825 68.7825H198.908V62.1461H195.924L195.785 64.7614C195.747 65.393 195.685 65.9606 195.598 66.4641C195.514 66.9677 195.405 67.413 195.272 67.8002C195.142 68.1844 194.993 68.5118 194.825 68.7825Z" fill="#020202"/>
<path d="M202.103 69.9264L202.099 68.7956H202.338C202.523 68.7956 202.678 68.7563 202.803 68.6777C202.93 68.5962 203.034 68.4594 203.116 68.2673C203.197 68.0752 203.259 67.8103 203.302 67.4727C203.346 67.1321 203.378 66.7043 203.398 66.1891L203.515 63.2202H208.172V69.9264H206.899V64.3466H204.718L204.614 66.6257C204.588 67.1787 204.532 67.6619 204.445 68.0752C204.361 68.4885 204.238 68.8334 204.076 69.11C203.913 69.3836 203.705 69.5888 203.45 69.7256C203.195 69.8595 202.885 69.9264 202.52 69.9264H202.103Z" fill="#020202"/>
<path d="M213.944 69.9264V64.3335H212.346C211.966 64.3335 211.671 64.4223 211.46 64.5998C211.248 64.7774 211.142 65.0103 211.142 65.2984C211.142 65.5837 211.239 65.8136 211.434 65.9882C211.63 66.16 211.906 66.2458 212.259 66.2458H214.322V67.3024H212.259C211.767 67.3024 211.341 67.2209 210.982 67.0579C210.626 66.892 210.35 66.6577 210.156 66.355C209.965 66.0523 209.87 65.6943 209.87 65.2809C209.87 64.8589 209.968 64.4951 210.165 64.1894C210.365 63.8809 210.65 63.6422 211.021 63.4734C211.394 63.3046 211.836 63.2202 212.346 63.2202H215.165V69.9264H213.944ZM209.566 69.9264L211.447 66.5384H212.776L210.895 69.9264H209.566Z" fill="#020202"/>
<path d="M220.254 69.9264V63.2202H225.696V69.9264H224.424V64.3466H221.518V69.9264H220.254Z" fill="#020202"/>
<path d="M227.494 72.4412V63.2202H228.763V64.3073H228.871C228.946 64.1676 229.055 64.0061 229.197 63.8227C229.339 63.6393 229.536 63.4792 229.788 63.3424C230.04 63.2027 230.373 63.1329 230.787 63.1329C231.326 63.1329 231.806 63.2697 232.229 63.5433C232.652 63.8169 232.983 64.2113 233.224 64.7265C233.467 65.2417 233.589 65.8616 233.589 66.5864C233.589 67.3112 233.469 67.9326 233.228 68.4507C232.988 68.9659 232.658 69.3632 232.238 69.6426C231.818 69.9191 231.339 70.0574 230.8 70.0574C230.394 70.0574 230.063 69.989 229.805 69.8522C229.55 69.7154 229.35 69.5553 229.206 69.3719C229.061 69.1886 228.949 69.0255 228.871 68.8829H228.793V72.4412H227.494ZM228.767 66.5733C228.767 67.0448 228.835 67.4581 228.971 67.8132C229.107 68.1684 229.304 68.4463 229.562 68.6472C229.82 68.8451 230.135 68.944 230.509 68.944C230.897 68.944 231.221 68.8407 231.482 68.6341C231.743 68.4245 231.939 68.1407 232.073 67.7827C232.209 67.4247 232.277 67.0215 232.277 66.5733C232.277 66.1309 232.21 65.7336 232.077 65.3814C231.947 65.0292 231.75 64.7512 231.486 64.5475C231.226 64.3437 230.9 64.2418 230.509 64.2418C230.132 64.2418 229.814 64.3393 229.553 64.5344C229.295 64.7294 229.1 65.0015 228.967 65.3508C228.834 65.7001 228.767 66.1076 228.767 66.5733Z" fill="#020202"/>
<path d="M237.916 70.0618C237.29 70.0618 236.744 69.9177 236.278 69.6295C235.812 69.3414 235.45 68.9382 235.192 68.4201C234.934 67.902 234.805 67.2966 234.805 66.6039C234.805 65.9082 234.934 65.2999 235.192 64.7789C235.45 64.2578 235.812 63.8533 236.278 63.5651C236.744 63.2769 237.29 63.1329 237.916 63.1329C238.541 63.1329 239.087 63.2769 239.553 63.5651C240.02 63.8533 240.382 64.2578 240.639 64.7789C240.897 65.2999 241.026 65.9082 241.026 66.6039C241.026 67.2966 240.897 67.902 240.639 68.4201C240.382 68.9382 240.02 69.3414 239.553 69.6295C239.087 69.9177 238.541 70.0618 237.916 70.0618ZM237.92 68.9659C238.325 68.9659 238.661 68.8582 238.928 68.6428C239.194 68.4274 239.391 68.1407 239.519 67.7827C239.649 67.4247 239.714 67.0303 239.714 66.5995C239.714 66.1716 239.649 65.7787 239.519 65.4207C239.391 65.0597 239.194 64.7701 238.928 64.5518C238.661 64.3335 238.325 64.2244 237.92 64.2244C237.512 64.2244 237.173 64.3335 236.904 64.5518C236.637 64.7701 236.439 65.0597 236.308 65.4207C236.181 65.7787 236.117 66.1716 236.117 66.5995C236.117 67.0303 236.181 67.4247 236.308 67.7827C236.439 68.1407 236.637 68.4274 236.904 68.6428C237.173 68.8582 237.512 68.9659 237.92 68.9659Z" fill="#020202"/>
<path d="M245.408 72.2098V60.9848H246.707V72.2098H245.408ZM245.408 70.0618C244.936 70.0618 244.506 69.9803 244.118 69.8173C243.73 69.6513 243.396 69.4156 243.115 69.11C242.834 68.8043 242.617 68.439 242.463 68.0141C242.312 67.5891 242.237 67.119 242.237 66.6039C242.237 66.0828 242.312 65.6099 242.463 65.1849C242.617 64.7599 242.834 64.3946 243.115 64.089C243.396 63.7834 243.73 63.5476 244.118 63.3817C244.506 63.2158 244.936 63.1329 245.408 63.1329H245.73V70.0618H245.408ZM245.408 68.9615H245.591V64.2331H245.408C245.095 64.2331 244.823 64.2971 244.592 64.4252C244.36 64.5504 244.167 64.7235 244.014 64.9448C243.86 65.1631 243.744 65.4148 243.666 65.7001C243.591 65.9853 243.553 66.2866 243.553 66.6039C243.553 67.0288 243.621 67.4203 243.758 67.7783C243.894 68.1334 244.099 68.4201 244.374 68.6384C244.649 68.8538 244.994 68.9615 245.408 68.9615ZM246.707 70.0618H246.381V63.1329H246.707C247.179 63.1329 247.609 63.2158 247.997 63.3817C248.385 63.5476 248.718 63.7834 248.996 64.089C249.277 64.3946 249.493 64.7599 249.644 65.1849C249.797 65.6099 249.874 66.0828 249.874 66.6039C249.874 67.119 249.797 67.5891 249.644 68.0141C249.493 68.439 249.277 68.8043 248.996 69.11C248.718 69.4156 248.385 69.6513 247.997 69.8173C247.609 69.9803 247.179 70.0618 246.707 70.0618ZM246.707 68.9615C247.02 68.9615 247.292 68.9004 247.524 68.7781C247.755 68.653 247.948 68.4813 248.101 68.2629C248.255 68.0417 248.369 67.79 248.445 67.5076C248.52 67.2224 248.558 66.9211 248.558 66.6039C248.558 66.1818 248.49 65.7918 248.353 65.4338C248.22 65.0728 248.016 64.7832 247.741 64.5649C247.466 64.3437 247.121 64.2331 246.707 64.2331H246.52V68.9615H246.707Z" fill="#020202"/>
<path d="M254.254 70.0618C253.597 70.0618 253.03 69.9206 252.555 69.6382C252.083 69.353 251.719 68.9528 251.461 68.4376C251.206 67.9195 251.079 67.3126 251.079 66.617C251.079 65.93 251.206 65.3246 251.461 64.8007C251.719 64.2768 252.078 63.8678 252.538 63.5738C253.001 63.2798 253.543 63.1329 254.163 63.1329C254.539 63.1329 254.904 63.1954 255.257 63.3206C255.611 63.4458 255.928 63.6422 256.209 63.91C256.49 64.1778 256.711 64.5256 256.873 64.9535C257.036 65.3785 257.117 65.8951 257.117 66.5034V66.9662H251.813V65.9882H255.844C255.844 65.6448 255.774 65.3406 255.635 65.0757C255.496 64.808 255.301 64.5969 255.049 64.4427C254.8 64.2884 254.507 64.2113 254.171 64.2113C253.807 64.2113 253.488 64.3015 253.216 64.482C252.946 64.6595 252.738 64.8924 252.59 65.1805C252.445 65.4658 252.373 65.7758 252.373 66.1105V66.8746C252.373 67.3228 252.451 67.7041 252.608 68.0184C252.767 68.3328 252.988 68.5729 253.272 68.7388C253.556 68.9018 253.888 68.9833 254.267 68.9833C254.513 68.9833 254.738 68.9484 254.94 68.8786C255.143 68.8058 255.318 68.6981 255.466 68.5555C255.614 68.4129 255.727 68.2368 255.805 68.0272L257.034 68.2499C256.936 68.6137 256.759 68.9324 256.504 69.206C256.252 69.4767 255.935 69.6877 255.553 69.8391C255.173 69.9875 254.74 70.0618 254.254 70.0618Z" fill="#020202"/>
<path d="M261.429 70.0618C260.784 70.0618 260.228 69.9148 259.761 69.6208C259.298 69.3239 258.942 68.9149 258.693 68.3939C258.444 67.8729 258.319 67.2762 258.319 66.6039C258.319 65.9228 258.447 65.3217 258.701 64.8007C258.956 64.2768 259.315 63.8678 259.779 63.5738C260.242 63.2798 260.788 63.1329 261.416 63.1329C261.923 63.1329 262.375 63.2275 262.772 63.4167C263.168 63.6029 263.488 63.8649 263.732 64.2025C263.978 64.5402 264.124 64.9346 264.17 65.3857H262.906C262.837 65.0714 262.678 64.8007 262.429 64.5736C262.182 64.3466 261.852 64.2331 261.438 64.2331C261.076 64.2331 260.759 64.3292 260.487 64.5213C260.217 64.7105 260.008 64.9811 259.857 65.3333C259.706 65.6826 259.631 66.0959 259.631 66.5733C259.631 67.0623 259.705 67.4843 259.853 67.8394C260 68.1945 260.209 68.4696 260.478 68.6646C260.75 68.8596 261.07 68.9572 261.438 68.9572C261.684 68.9572 261.907 68.912 262.107 68.8218C262.31 68.7287 262.479 68.5962 262.615 68.4245C262.754 68.2528 262.851 68.0461 262.906 67.8045H264.17C264.124 68.2382 263.984 68.6253 263.749 68.9659C263.515 69.3064 263.2 69.5742 262.806 69.7692C262.416 69.9642 261.957 70.0618 261.429 70.0618Z" fill="#020202"/>
<path d="M268.431 70.0618C267.785 70.0618 267.229 69.9148 266.763 69.6208C266.3 69.3239 265.944 68.9149 265.694 68.3939C265.445 67.8729 265.321 67.2762 265.321 66.6039C265.321 65.9228 265.448 65.3217 265.703 64.8007C265.958 64.2768 266.317 63.8678 266.78 63.5738C267.244 63.2798 267.79 63.1329 268.418 63.1329C268.925 63.1329 269.377 63.2275 269.773 63.4167C270.17 63.6029 270.49 63.8649 270.733 64.2025C270.98 64.5402 271.126 64.9346 271.172 65.3857H269.908C269.839 65.0714 269.679 64.8007 269.43 64.5736C269.184 64.3466 268.854 64.2331 268.44 64.2331C268.078 64.2331 267.761 64.3292 267.489 64.5213C267.219 64.7105 267.009 64.9811 266.859 65.3333C266.708 65.6826 266.633 66.0959 266.633 66.5733C266.633 67.0623 266.707 67.4843 266.854 67.8394C267.002 68.1945 267.21 68.4696 267.48 68.6646C267.752 68.8596 268.072 68.9572 268.44 68.9572C268.686 68.9572 268.909 68.912 269.109 68.8218C269.312 68.7287 269.481 68.5962 269.617 68.4245C269.756 68.2528 269.853 68.0461 269.908 67.8045H271.172C271.126 68.2382 270.985 68.6253 270.751 68.9659C270.516 69.3064 270.202 69.5742 269.808 69.7692C269.417 69.9642 268.958 70.0618 268.431 70.0618Z" fill="#020202"/>
<path d="M273.895 68.097L276.836 63.2202H278.235V69.9264H276.962V65.0452L274.034 69.9264H272.622V63.2202H273.895V68.097Z" fill="#020202"/>
<path d="M282.853 70.0618C282.227 70.0618 281.681 69.9177 281.215 69.6295C280.749 69.3414 280.387 68.9382 280.129 68.4201C279.871 67.902 279.742 67.2966 279.742 66.6039C279.742 65.9082 279.871 65.2999 280.129 64.7789C280.387 64.2578 280.749 63.8533 281.215 63.5651C281.681 63.2769 282.227 63.1329 282.853 63.1329C283.478 63.1329 284.024 63.2769 284.49 63.5651C284.957 63.8533 285.319 64.2578 285.576 64.7789C285.834 65.2999 285.963 65.9082 285.963 66.6039C285.963 67.2966 285.834 67.902 285.576 68.4201C285.319 68.9382 284.957 69.3414 284.49 69.6295C284.024 69.9177 283.478 70.0618 282.853 70.0618ZM282.857 68.9659C283.262 68.9659 283.598 68.8582 283.865 68.6428C284.131 68.4274 284.328 68.1407 284.456 67.7827C284.586 67.4247 284.651 67.0303 284.651 66.5995C284.651 66.1716 284.586 65.7787 284.456 65.4207C284.328 65.0597 284.131 64.7701 283.865 64.5518C283.598 64.3335 283.262 64.2244 282.857 64.2244C282.449 64.2244 282.11 64.3335 281.841 64.5518C281.574 64.7701 281.376 65.0597 281.245 65.4207C281.118 65.7787 281.054 66.1716 281.054 66.5995C281.054 67.0303 281.118 67.4247 281.245 67.7827C281.376 68.1407 281.574 68.4274 281.841 68.6428C282.11 68.8582 282.449 68.9659 282.857 68.9659Z" fill="#020202"/>
<path d="M291.996 66.0101V67.1409H288.382V66.0101H291.996ZM288.747 63.2202V69.9264H287.474V63.2202H288.747ZM292.904 63.2202V69.9264H291.635V63.2202H292.904Z" fill="#020202"/>
<path d="M296.644 70.0749C296.222 70.0749 295.839 69.9963 295.498 69.8391C295.156 69.679 294.885 69.4476 294.685 69.1449C294.488 68.8422 294.39 68.4711 294.39 68.0315C294.39 67.6532 294.462 67.3417 294.607 67.0972C294.752 66.8527 294.947 66.6592 295.193 66.5165C295.44 66.3739 295.715 66.2662 296.019 66.1934C296.323 66.1207 296.633 66.0654 296.948 66.0275C297.348 65.981 297.672 65.9431 297.921 65.914C298.171 65.882 298.352 65.8311 298.464 65.7612C298.577 65.6914 298.634 65.5778 298.634 65.4207V65.3901C298.634 65.0088 298.527 64.7134 298.312 64.5038C298.101 64.2942 297.785 64.1894 297.365 64.1894C296.928 64.1894 296.584 64.2869 296.332 64.482C296.083 64.6741 295.91 64.888 295.815 65.1238L294.594 64.8443C294.739 64.4368 294.95 64.1079 295.228 63.8576C295.509 63.6044 295.832 63.421 296.197 63.3075C296.562 63.1911 296.946 63.1329 297.348 63.1329C297.615 63.1329 297.897 63.1649 298.195 63.2289C298.496 63.29 298.777 63.4036 299.038 63.5695C299.301 63.7354 299.517 63.9726 299.685 64.2811C299.853 64.5868 299.937 64.9841 299.937 65.4731V69.9264H298.669V69.0095H298.617C298.533 69.1784 298.407 69.3443 298.239 69.5073C298.071 69.6703 297.855 69.8056 297.591 69.9133C297.328 70.021 297.012 70.0749 296.644 70.0749ZM296.927 69.027C297.286 69.027 297.593 68.9557 297.848 68.8131C298.105 68.6704 298.301 68.4842 298.434 68.2542C298.57 68.0214 298.638 67.7725 298.638 67.5076V66.6431C298.592 66.6897 298.502 66.7334 298.369 66.7741C298.239 66.812 298.089 66.8454 297.921 66.8746C297.754 66.9007 297.59 66.9255 297.431 66.9488C297.271 66.9691 297.138 66.9866 297.031 67.0012C296.779 67.0332 296.549 67.087 296.34 67.1627C296.135 67.2384 295.97 67.3475 295.845 67.4902C295.723 67.6299 295.663 67.8162 295.663 68.049C295.663 68.3721 295.781 68.6166 296.019 68.7825C296.256 68.9455 296.559 69.027 296.927 69.027Z" fill="#020202"/>
<path d="M301.203 69.9264L301.198 68.7956H301.437C301.623 68.7956 301.777 68.7563 301.902 68.6777C302.029 68.5962 302.134 68.4594 302.215 68.2673C302.296 68.0752 302.358 67.8103 302.402 67.4727C302.445 67.1321 302.477 66.7043 302.497 66.1891L302.614 63.2202H307.271V69.9264H305.998V64.3466H303.818L303.713 66.6257C303.687 67.1787 303.631 67.6619 303.544 68.0752C303.46 68.4885 303.337 68.8334 303.175 69.11C303.013 69.3836 302.804 69.5888 302.549 69.7256C302.294 69.8595 301.985 69.9264 301.62 69.9264H301.203Z" fill="#020202"/>
<path d="M311.875 70.0618C311.249 70.0618 310.704 69.9177 310.237 69.6295C309.771 69.3414 309.409 68.9382 309.151 68.4201C308.894 67.902 308.765 67.2966 308.765 66.6039C308.765 65.9082 308.894 65.2999 309.151 64.7789C309.409 64.2578 309.771 63.8533 310.237 63.5651C310.704 63.2769 311.249 63.1329 311.875 63.1329C312.501 63.1329 313.046 63.2769 313.513 63.5651C313.979 63.8533 314.341 64.2578 314.599 64.7789C314.856 65.2999 314.985 65.9082 314.985 66.6039C314.985 67.2966 314.856 67.902 314.599 68.4201C314.341 68.9382 313.979 69.3414 313.513 69.6295C313.046 69.9177 312.501 70.0618 311.875 70.0618ZM311.879 68.9659C312.285 68.9659 312.621 68.8582 312.887 68.6428C313.154 68.4274 313.35 68.1407 313.478 67.7827C313.608 67.4247 313.673 67.0303 313.673 66.5995C313.673 66.1716 313.608 65.7787 313.478 65.4207C313.35 65.0597 313.154 64.7701 312.887 64.5518C312.621 64.3335 312.285 64.2244 311.879 64.2244C311.471 64.2244 311.132 64.3335 310.863 64.5518C310.596 64.7701 310.398 65.0597 310.268 65.4207C310.14 65.7787 310.077 66.1716 310.077 66.5995C310.077 67.0303 310.14 67.4247 310.268 67.7827C310.398 68.1407 310.596 68.4274 310.863 68.6428C311.132 68.8582 311.471 68.9659 311.879 68.9659Z" fill="#020202"/>
<path d="M316.496 69.9264V63.2202H319.263C320.016 63.2202 320.613 63.3817 321.053 63.7048C321.493 64.025 321.713 64.4601 321.713 65.0103C321.713 65.4032 321.589 65.7146 321.34 65.9446C321.091 66.1745 320.761 66.3288 320.349 66.4074C320.648 66.4423 320.921 66.5325 321.17 66.6781C321.419 66.8207 321.619 67.0128 321.77 67.2544C321.923 67.496 322 67.7841 322 68.1189C322 68.474 321.909 68.7883 321.726 69.0619C321.544 69.3326 321.279 69.5451 320.931 69.6994C320.587 69.8507 320.171 69.9264 319.685 69.9264H316.496ZM317.717 68.8349H319.685C320.006 68.8349 320.258 68.7578 320.441 68.6035C320.623 68.4492 320.714 68.2397 320.714 67.9748C320.714 67.6633 320.623 67.4189 320.441 67.2413C320.258 67.0608 320.006 66.9706 319.685 66.9706H317.717V68.8349ZM317.717 66.0144H319.276C319.52 66.0144 319.728 65.9795 319.902 65.9097C320.079 65.8398 320.213 65.7408 320.306 65.6128C320.401 65.4818 320.449 65.3275 320.449 65.15C320.449 64.8909 320.344 64.6886 320.132 64.5431C319.921 64.3976 319.631 64.3248 319.263 64.3248H317.717V66.0144Z" fill="#020202"/>
</svg>
