<svg viewBox="0 0 322 73" fill="none"
    xmlns="http://www.w3.org/2000/svg" preserveAspectRatio="xMinYMid meet">
    <path d="M73.4767 17.7358V54.8786H74.3522H82.9428H86.3522V29.9594H99.2278V54.3488H112.196H112.484V17.7358H73.4767Z" fill="#020202"/>
    <path d="M116.636 17.7358V58.6737H129.491V54.2621H155.18H155.829V17.7358H116.636ZM141.81 42.1734H129.491V29.8727H141.81V42.1734Z" fill="#020202"/>
    <path d="M159.815 17.7358V54.3487H160.587H198.204V17.7358H159.815ZM185.772 41.8651H172.587V29.7764H185.772V41.8651Z" fill="#020202"/>
    <path d="M202.14 17.7358V53.9538H229.828V54.9653V58.6737H242.178V54.0983H242.94L282.597 53.9538V54.9653V58.6737H293.814V54.0983H294.68H321.512V17.7358H321.069H202.099H202.14ZM228.726 41.8651H215.634V29.4393H216.499H227.963H228.726V41.8651ZM255.27 41.8651H242.178V29.4393H242.94H254.405H255.27V41.8651ZM282.123 41.8651H268.424V29.4393H269.299H280.764H282.123V41.8651ZM308.977 41.8651H308.101H294.916V29.4393H295.782H307.586H308.977V41.8651Z" fill="#020202"/>
    <path d="M32.2506 0.168114L48.1613 9.63662L44.9305 11.368L31.9646 3.48789C31.7211 3.3449 31.5704 3.36808 31.3501 3.48789L18.8982 11.283L15.4355 9.36996L31.1839 0.168114C31.5704 -0.0560381 31.8486 -0.0560381 32.2506 0.168114Z" fill="#020202"/>
    <path d="M0.564238 17.7328L13.677 10.328C14.0441 10.1232 14.4074 10.1 14.7668 10.3048L27.6786 17.7676C28.0032 17.9415 28.1037 18.3047 28.1037 18.6332V29.2728L31.7017 31.5607L35.1876 29.4196V18.6332C35.1876 18.1811 35.3461 17.9183 35.6784 17.7096L49.0694 10.3048C49.4134 10.1116 49.7264 10.1 50.082 10.3048L62.8508 17.8217C63.1522 17.9956 63.2411 18.3241 63.2411 18.6758V33.609C63.2411 34.1075 63.0633 34.3587 62.673 34.606L49.8385 41.9103C49.4714 42.1538 49.1661 42.1615 48.7178 41.8794L39.1527 36.0399L35.6243 38.2427V42.7528L45.2318 48.5228C45.5681 48.7315 45.6879 49.0252 45.6879 49.4078V63.9546C45.6879 64.4183 45.5256 64.685 45.1352 64.9285L32.436 72.3448C31.9568 72.6386 31.4853 72.6579 30.9713 72.3255L18.817 64.828C18.473 64.6193 18.3107 64.3294 18.3107 63.943V49.4388C18.3107 48.975 18.4344 48.6851 18.7938 48.4803L27.8912 42.7722V38.3278L24.3859 36.1249L14.7977 41.8562C14.3417 42.1461 14.0055 42.1461 13.5263 41.8794L0.552645 34.4283C0.162315 34.2196 0 33.9065 0 33.4389V18.7453C0 18.3047 0.142992 17.9531 0.564238 17.7328ZM13.8934 25.98V38.5828L24.5019 32.5423L30.7896 36.2138C31.1761 36.4379 31.2379 36.693 31.2379 37.1374V43.804C31.2379 44.2678 31.0563 44.577 30.6389 44.8127L21.128 50.6368L31.5394 56.8706L42.6425 50.5286L32.9152 44.89C32.4785 44.6233 32.3394 44.3683 32.3394 43.9277V37.0408C32.3394 36.608 32.4901 36.237 32.9268 35.9935L38.9827 32.6312L49.5448 38.5171V25.895L38.5035 19.4448V30.5752C38.5035 31.0776 38.3644 31.4602 37.8967 31.75L32.1887 34.8959C31.7326 35.1664 31.3191 35.1239 30.809 34.8109L25.9472 31.9781C25.4564 31.6843 25.1434 31.4409 25.1434 30.8341V19.8468L13.8934 25.98Z" fill="#020202"/>
    <path d="M59.9218 37.2696L63.342 35.3373V53.7912C63.342 54.2009 63.1913 54.4096 62.8667 54.6144L46.9211 63.7428V59.994L59.9218 52.6318V37.2696Z" fill="#020202"/>
    <path d="M0.131226 35.3943L3.4239 37.2841V52.4299L16.7917 60.0511V63.7998L0.660682 54.4125C0.239435 54.169 0.131226 53.9255 0.131226 53.4463V35.3943Z" fill="#020202"/>
</svg>
