<svg width="800" height="800" viewBox="0 0 800 800" fill="none" xmlns="http://www.w3.org/2000/svg">
<path fill-rule="evenodd" clip-rule="evenodd" d="M400 442.241C312.567 442.241 241.44 371.109 241.44 283.681C241.44 196.248 312.572 125.116 400 125.116C487.433 125.116 558.565 196.248 558.565 283.681C558.565 371.109 487.433 442.241 400 442.241ZM265.476 283.676C265.476 209.497 325.821 149.147 400 149.147C474.18 149.147 534.529 209.497 534.529 283.676C534.529 357.851 474.18 418.2 400 418.2C325.825 418.2 265.476 357.856 265.476 283.676Z" fill="#F5C702"/>
<path fill-rule="evenodd" clip-rule="evenodd" d="M400 800C365.768 800 336.978 778.911 326.652 746.275L309.481 692.026C285.017 614.712 243.382 542.778 185.735 478.213C138.37 425.161 112.493 356.74 112.877 285.551C113.291 208.67 143.22 136.793 197.147 83.1593C251.074 29.5353 323.114 0 400 0C558.319 0 687.123 128.803 687.123 287.128C687.123 359.899 659.837 429.305 610.295 482.573C556.502 540.403 516.199 610.881 490.514 692.045L473.353 746.275C463.022 778.911 434.232 800 400 800ZM136.913 285.685C137.702 138.966 253.266 24.0359 400 24.0359C545.071 24.0359 663.087 142.057 663.092 287.128C663.092 353.803 638.09 417.402 592.696 466.2C536.456 526.664 494.365 600.209 467.599 684.801L450.437 739.031C441.818 766.263 418.734 775.969 400.005 775.969C381.271 775.969 358.187 766.263 349.568 739.031L332.397 684.782C306.9 604.204 263.587 529.323 203.666 462.21C160.266 413.604 136.562 350.909 136.913 285.685Z" fill="#F5C702"/>
<path fill-rule="evenodd" clip-rule="evenodd" d="M400 24.0359C253.266 24.0359 137.702 138.966 136.913 285.685C136.562 350.909 160.266 413.604 203.666 462.21C263.587 529.323 306.9 604.204 332.397 684.782L349.568 739.031C358.187 766.263 381.271 775.969 400.005 775.969C418.734 775.969 441.818 766.263 450.437 739.031L467.599 684.801C494.365 600.209 536.456 526.664 592.696 466.2C638.09 417.402 663.092 353.803 663.092 287.128C663.087 142.057 545.071 24.0359 400 24.0359ZM241.44 283.681C241.44 371.109 312.567 442.241 400 442.241C487.433 442.241 558.565 371.109 558.565 283.681C558.565 196.248 487.433 125.116 400 125.116C312.572 125.116 241.44 196.248 241.44 283.681Z" fill="#F5C702"/>
<path fill-rule="evenodd" clip-rule="evenodd" d="M400 442.241C312.567 442.241 241.44 371.109 241.44 283.681C241.44 196.248 312.572 125.116 400 125.116C487.433 125.116 558.565 196.248 558.565 283.681C558.565 371.109 487.433 442.241 400 442.241ZM265.476 283.676C265.476 209.497 325.821 149.147 400 149.147C474.18 149.147 534.529 209.497 534.529 283.676C534.529 357.851 474.18 418.2 400 418.2C325.825 418.2 265.476 357.856 265.476 283.676Z" fill="#020202"/>
<path fill-rule="evenodd" clip-rule="evenodd" d="M400 800C365.768 800 336.978 778.911 326.652 746.275L309.481 692.026C285.017 614.712 243.382 542.778 185.735 478.213C138.37 425.161 112.493 356.74 112.877 285.551C113.291 208.67 143.22 136.793 197.147 83.1593C251.074 29.5353 323.114 0 400 0C558.319 0 687.123 128.803 687.123 287.128C687.123 359.899 659.837 429.305 610.295 482.573C556.502 540.403 516.199 610.881 490.514 692.045L473.353 746.275C463.022 778.911 434.232 800 400 800ZM136.913 285.685C137.702 138.966 253.266 24.0359 400 24.0359C545.071 24.0359 663.087 142.057 663.092 287.128C663.092 353.803 638.09 417.402 592.696 466.2C536.456 526.664 494.365 600.209 467.599 684.801L450.437 739.031C441.818 766.263 418.734 775.969 400.005 775.969C381.271 775.969 358.187 766.263 349.568 739.031L332.397 684.782C306.9 604.204 263.587 529.323 203.666 462.21C160.266 413.604 136.562 350.909 136.913 285.685Z" fill="#020202"/>
</svg>
