<?xml version="1.0" encoding="iso-8859-1"?>
<svg fill="currentColor" version="1.1" id="Layer_1"
	xmlns="http://www.w3.org/2000/svg"
	xmlns:xlink="http://www.w3.org/1999/xlink" viewBox="0 0 512 512" xml:space="preserve">
	<g>
		<g>
			<g>
				<path d="M348.14,259.439h-0.008c-0.009-0.009-0.009-0.017-0.009-0.026l-51.2-68.267c-0.58-0.768-1.289-1.451-2.091-1.98
				l-21.803-14.532V88.866L284.063,99.9c1.664,1.664,3.849,2.5,6.033,2.5c2.185,0,4.369-0.836,6.033-2.5
				c3.336-3.336,3.336-8.73,0-12.066l-19.567-19.567L296.129,48.7c3.336-3.336,3.336-8.73,0-12.066
				c-3.337-3.337-8.73-3.337-12.066,0l-19.567,19.567l-19.567-19.567c-3.337-3.337-8.73-3.337-12.066,0s-3.337,8.73,0,12.066
				l19.567,19.567l-19.567,19.567c-3.337,3.337-3.337,8.73,0,12.066c1.664,1.664,3.849,2.5,6.033,2.5s4.369-0.836,6.033-2.5
				l11.034-11.034v74.394L192.432,120.9c-2.867-1.92-6.605-1.92-9.472,0l-102.4,68.267c-0.802,0.529-1.51,1.212-2.091,1.98
				l-51.2,68.267v0.009h-0.008L1.737,293.589c-2.825,3.78-2.048,9.131,1.724,11.947c1.536,1.143,3.328,1.698,5.103,1.698
				c2.594,0,5.163-1.186,6.844-3.422l10.155-13.602v213.257c0,4.719,3.814,8.533,8.533,8.533h59.733V384
				c0-0.239,0.119-0.444,0.136-0.683c0.051-0.58,0.179-1.126,0.341-1.681c0.154-0.529,0.316-1.033,0.563-1.51
				c0.239-0.461,0.538-0.862,0.862-1.28c0.375-0.478,0.751-0.913,1.22-1.297c0.171-0.154,0.265-0.358,0.452-0.486
				c0.247-0.179,0.538-0.213,0.802-0.358c0.512-0.299,1.024-0.538,1.596-0.725c0.555-0.171,1.101-0.273,1.672-0.333
				c0.307-0.034,0.572-0.179,0.888-0.179h85.333h85.333c0.316,0,0.58,0.145,0.888,0.179c0.572,0.06,1.118,0.162,1.672,0.333
				c0.572,0.188,1.084,0.427,1.596,0.725c0.265,0.145,0.555,0.179,0.802,0.358c0.188,0.128,0.282,0.333,0.452,0.486
				c0.469,0.384,0.845,0.819,1.22,1.297c0.324,0.418,0.623,0.819,0.862,1.28c0.247,0.478,0.41,0.981,0.563,1.51
				c0.162,0.563,0.29,1.101,0.341,1.681c0.017,0.239,0.137,0.444,0.137,0.683v128h59.733c4.719,0,8.533-3.814,8.533-8.533v-213.18
				l10.223,13.739c1.681,2.253,4.241,3.439,6.852,3.439c1.766,0,3.558-0.546,5.086-1.69c3.78-2.807,4.565-8.158,1.749-11.93
				L348.14,259.439z M281.563,332.8c0,4.719-3.814,8.533-8.533,8.533h-42.667h-85.333h-42.667c-4.719,0-8.533-3.814-8.533-8.533
				v-85.333c0-4.719,3.814-8.533,8.533-8.533h170.667c4.719,0,8.533,3.814,8.533,8.533V332.8z"/>
				<polygon points="264.496,476.844 264.496,410.625 240.85,443.734 			"/>
				<polygon points="196.229,506.197 196.229,512 264.496,512 264.496,506.197 230.363,458.411 			"/>
				<polygon points="179.163,476.844 179.163,410.625 155.517,443.734 			"/>
				<polygon points="256.451,392.533 204.278,392.533 230.364,429.056 			"/>
				<polygon points="196.229,476.844 219.875,443.734 196.229,410.625 			"/>
				<path d="M195.504,293.917l-7.808-3.123l-7.808,3.123c-13.286,5.316-22.665,16.751-25.455,30.353h66.526
				C218.168,310.668,208.79,299.233,195.504,293.917z"/>
				<polygon points="171.117,392.533 118.945,392.533 145.031,429.056 			"/>
				<path d="M110.896,324.267h26.24c2.97-20.651,16.589-38.263,36.42-46.199l10.974-4.395c2.031-0.811,4.301-0.811,6.332,0
				l10.974,4.395c19.831,7.936,33.451,25.549,36.42,46.199h26.24V256h-153.6V324.267z"/>
				<polygon points="110.896,506.197 110.896,512 179.163,512 179.163,506.197 145.029,458.411 			"/>
				<polygon points="110.896,476.844 134.542,443.734 110.896,410.625 			"/>
				<rect x="443.695" y="426.665" width="17.067" height="85.333"/>
				<rect x="443.695" y="349.865" width="17.067" height="17.067"/>
				<rect x="392.495" y="119.465" width="119.467" height="17.067"/>
				<path d="M452.229,0c-32.93,0-59.733,26.803-59.733,59.733V102.4h119.467V59.733C511.963,26.803,485.159,0,452.229,0z"/>
				<rect x="443.695" y="273.065" width="17.067" height="17.067"/>
				<path d="M392.496,503.467c0,4.719,3.814,8.533,8.533,8.533h25.6v-93.867c0-4.719,3.814-8.533,8.533-8.533h34.133
				c4.719,0,8.533,3.814,8.533,8.533V512h25.6c4.719,0,8.533-3.814,8.533-8.533V153.6H392.496V503.467z M426.629,187.733
				c0-4.719,3.814-8.533,8.533-8.533h34.133c4.719,0,8.533,3.814,8.533,8.533v34.133c0,4.719-3.814,8.533-8.533,8.533h-34.133
				c-4.719,0-8.533-3.814-8.533-8.533V187.733z M426.629,264.533c0-4.719,3.814-8.533,8.533-8.533h34.133
				c4.719,0,8.533,3.814,8.533,8.533v34.133c0,4.719-3.814,8.533-8.533,8.533h-34.133c-4.719,0-8.533-3.814-8.533-8.533V264.533z
				 M426.629,341.333c0-4.719,3.814-8.533,8.533-8.533h34.133c4.719,0,8.533,3.814,8.533,8.533v34.133
				c0,4.719-3.814,8.533-8.533,8.533h-34.133c-4.719,0-8.533-3.814-8.533-8.533V341.333z"/>
				<rect x="443.695" y="196.265" width="17.067" height="17.067"/>
			</g>
		</g>
	</g>
</svg>