<svg xmlns="http://www.w3.org/2000/svg" width="256" height="256" viewBox="0 0 256 256" fill="none"><g clip-path="url(#clip0_116_24)">
<circle cx="128" cy="128" r="128" fill="#F5F5DC"></circle>
<path d="M129.856 8.23679L182.554 39.5968L171.853 45.3312L128.909 19.232C128.102 18.7584 127.603 18.8352 126.874 19.232L85.6319 45.0496L74.1631 38.7136L126.323 8.23679C127.603 7.49439 128.525 7.49439 129.856 8.23679Z" fill="#020202"></path>
<path d="M24.9088 66.4127L68.3392 41.8879C69.5552 41.2095 70.7584 41.1327 71.9488 41.8111L114.714 66.5279C115.789 67.1039 116.122 68.3071 116.122 69.3951V104.633L128.038 112.211L139.584 105.12V69.3951C139.584 67.8975 140.109 67.0271 141.21 66.3359L185.562 41.8111C186.701 41.1711 187.738 41.1327 188.915 41.8111L231.206 66.7071C232.205 67.2831 232.499 68.3711 232.499 69.5359V118.995C232.499 120.646 231.91 121.478 230.618 122.298L188.109 146.49C186.893 147.296 185.882 147.322 184.397 146.387L152.717 127.046L141.03 134.342V149.28L172.851 168.39C173.965 169.082 174.362 170.054 174.362 171.322V219.501C174.362 221.037 173.824 221.92 172.531 222.726L130.47 247.29C128.883 248.262 127.322 248.326 125.619 247.226L85.3632 222.394C84.224 221.702 83.6864 220.742 83.6864 219.462V171.424C83.6864 169.888 84.096 168.928 85.2864 168.25L115.418 149.344V134.624L103.808 127.328L72.0512 146.31C70.5408 147.27 69.4272 147.27 67.84 146.387L24.8704 121.709C23.5776 121.018 23.04 119.981 23.04 118.432V69.7663C23.04 68.3071 23.5136 67.1423 24.9088 66.4127ZM69.056 93.7279V135.469L104.192 115.462L125.018 127.622C126.298 128.365 126.502 129.209 126.502 130.681V152.761C126.502 154.297 125.901 155.322 124.518 156.102L93.0176 175.392L127.501 196.038L164.275 175.034L132.058 156.358C130.611 155.475 130.15 154.63 130.15 153.171V130.361C130.15 128.928 130.65 127.699 132.096 126.893L152.154 115.757L187.136 135.251V93.4463L150.566 72.0831V108.947C150.566 110.611 150.106 111.878 148.557 112.838L129.651 123.258C128.141 124.154 126.771 124.013 125.082 122.976L108.979 113.593C107.354 112.621 106.317 111.814 106.317 109.805V73.4143L69.056 93.7279Z" fill="#F5C702"></path>
<path d="M221.504 131.117L232.832 124.717V185.837C232.832 187.193 232.332 187.885 231.257 188.563L178.444 218.797V206.381L221.504 181.997V131.117Z" fill="#020202"></path>
<path d="M23.475 124.909L34.3806 131.168V181.331L78.6558 206.573V218.989L25.2286 187.897C23.8334 187.091 23.475 186.285 23.475 184.697V124.909Z" fill="#020202"></path>
</g><defs>
<clipPath id="clip0_116_24">
<rect width="256" height="256" fill="white"></rect>
</clipPath>
</defs></svg>