<?xml version="1.0" encoding="UTF-8" standalone="no"?>
<svg xmlns="http://www.w3.org/2000/svg" xmlns:xlink="http://www.w3.org/1999/xlink" width="100%" height="100%" viewBox="0 0 700 450.86139">
  <defs>
    <path id="a" d="M0 0z"/>
  </defs>
  <defs>
    <clipPath id="f">
      <use xlink:href="#a"/>
    </clipPath>
    <clipPath id="g">
      <use xlink:href="#a"/>
    </clipPath>
    <clipPath id="h">
      <use xlink:href="#a"/>
    </clipPath>
    <clipPath id="i">
      <use xlink:href="#a"/>
    </clipPath>
    <clipPath id="j" clipPathUnits="userSpaceOnUse">
      <use xlink:href="#a"/>
    </clipPath>
    <clipPath id="k" clipPathUnits="userSpaceOnUse">
      <use xlink:href="#a"/>
    </clipPath>
    <clipPath id="l" clipPathUnits="userSpaceOnUse">
      <use xlink:href="#a"/>
    </clipPath>
    <clipPath id="m" clipPathUnits="userSpaceOnUse">
      <use xlink:href="#a"/>
    </clipPath>
    <clipPath id="e" clipPathUnits="userSpaceOnUse">
      <use xlink:href="#a"/>
    </clipPath>
    <clipPath id="d" clipPathUnits="userSpaceOnUse">
      <use xlink:href="#a"/>
    </clipPath>
    <clipPath id="c" clipPathUnits="userSpaceOnUse">
      <use xlink:href="#a"/>
    </clipPath>
    <clipPath id="b" clipPathUnits="userSpaceOnUse">
      <use xlink:href="#a"/>
    </clipPath>
  </defs>
  <path fill="#a07332" d="M699.99998 135.2052425C605.85745 229.493809 460.41994 362.52115 356.92164 421.69237c-104.70642 59.86191-137.86023 20.15155-99.44395-51.92494 53.90222-101.13115 127.60018-178.261911 202.584-259.25428-12.77928 25.8230765-55.54136 123.312839-11.82413 145.68317 58.18078 29.7714 200.45642-79.153741 251.76242-120.9910775z"/>
  <path fill="#2d3c5a" d="M.00001 315.65614C94.14256 221.367559 239.58006 88.340238 343.07839 29.16902 447.78481-30.6929 480.93861 9.01745 442.52231 81.093939c-53.9022 101.13117-127.60014 178.261911-202.58398 259.254281 12.77929-25.82307 55.54138-123.312821 11.82413-145.683171C193.58169 164.893663 51.30601 273.81881.00001 315.65614z"/>
  <path fill="#2d3c5a" d="M409.09224866 264.62922256c-21.6487142 32.63581453-65.65531936 41.5425962-98.29104357 19.8939362l78.39710738-118.18496622c32.63571066 21.64864646 41.54263233 65.6552155 19.8939362 98.29103002z"/>
  <path fill="#a07332" d="M310.8012051 284.52315875c-32.63572421-21.64864646-41.54266395-65.6552155-19.8939362-98.29103002 21.64872324-32.63582808 65.65530582-41.5425962 98.29104357-19.8939362z"/>
  <g fill="#0f0" clip-path="url(#b)" transform="matrix(.5495 0 0 -.5495 374.68946 473.60289)">
    <text transform="matrix(1 0 0 -1 47.36952 20.40192)">
        <tspan x="0 3.96 7.9200001 11.88 15.84 17.82 20.900881 24.86088 28.820881 30.80088 34.76088 38.720879 40.700878 44.660881 48.62088 50.822639 54.782639 58.742641 60.944401 64.904404" y="0" font-family="Times" font-size="7.92000008" style="-inkscape-font-specification:Times-Roman">2008 Jun 12 03:54:25</tspan>
      </text>
  </g>
  <g fill="#0f0" clip-path="url(#c)" transform="matrix(.5495 0 0 -.5495 374.68946 473.60289)">
    <text transform="matrix(1 0 0 -1 134.16096 20.88)">
        <tspan x="0 5.0251198 11.21256 15.85488 17.594879 19.91256 21.652559 27.84 30.930241 33.247921 35.1828 37.11768 40.597679 42.337681 48.907921 51.998161 53.933041 57.41304 60.503281 62.43816" y="0" font-family="Times" font-size="6.96000004" style="-inkscape-font-specification:Times-Roman">OMC - Martin Weinelt</tspan>
      </text>
  </g>
  <g fill="#0f0" clip-path="url(#d)" transform="matrix(.5495 0 0 -.5495 374.68946 473.60289)">
    <text transform="matrix(1 0 0 -1 408.31536 40.07568)">
        <tspan x="0 6.96" y="0" font-family="Times" font-size="13.92000008" style="-inkscape-font-specification:Times-Roman">km</tspan>
      </text>
  </g>
  <g fill="#0f0" clip-path="url(#b)" transform="matrix(.28966 0 0 -.28966 93.17571 422.66578)">
    <text transform="matrix(1 0 0 -1 47.36952 20.40192)">
        <tspan x="0 3.96 7.9200001 11.88 15.84 17.82 20.900881 24.86088 28.820881 30.80088 34.76088 38.720879 40.700878 44.660881 48.62088 50.822639 54.782639 58.742641 60.944401 64.904404" y="0" font-family="Times" font-size="7.92000008" style="-inkscape-font-specification:Times-Roman">2008 Jun 12 04:45:24</tspan>
      </text>
  </g>
  <g fill="#0f0" clip-path="url(#c)" transform="matrix(.28966 0 0 -.28966 93.17571 422.66578)">
    <text transform="matrix(1 0 0 -1 134.16096 20.88)">
        <tspan x="0 5.0251198 11.21256 15.85488 17.594879 19.91256 21.652559 27.84 30.930241 33.247921 35.1828 37.11768 40.597679 42.337681 48.907921 51.998161 53.933041 57.41304 60.503281 62.43816" y="0" font-family="Times" font-size="6.96000004" style="-inkscape-font-specification:Times-Roman">OMC - Martin Weinelt</tspan>
      </text>
  </g>
  <g fill="#0f0" clip-path="url(#e)" transform="matrix(.28966 0 0 -.28966 93.17571 422.66578)">
    <text transform="matrix(1 0 0 -1 408.31536 40.07568)">
        <tspan x="0 6.96" y="0" font-family="Times" font-size="13.92000008" style="-inkscape-font-specification:Times-Roman">km</tspan>
      </text>
  </g>
  <g fill="#0f0" clip-path="url(#b)" transform="matrix(.55206 0 0 -.55206 4810.76778 474.46604)">
    <text transform="matrix(1 0 0 -1 47.36952 20.40192)">
          <tspan x="0 3.96 7.9200001 11.88 15.84 17.82 20.900881 24.86088 28.820881 30.80088 34.76088 38.720879 40.700878 44.660881 48.62088 50.822639 54.782639 58.742641 60.944401 64.904404" y="0" font-family="Times" font-size="7.92000008" style="-inkscape-font-specification:Times-Roman">2008 Jun 12 03:54:25</tspan>
        </text>
  </g>
  <g fill="#0f0" clip-path="url(#c)" transform="matrix(.55206 0 0 -.55206 4810.76778 474.46604)">
    <text transform="matrix(1 0 0 -1 134.16096 20.88)">
          <tspan x="0 5.0251198 11.21256 15.85488 17.594879 19.91256 21.652559 27.84 30.930241 33.247921 35.1828 37.11768 40.597679 42.337681 48.907921 51.998161 53.933041 57.41304 60.503281 62.43816" y="0" font-family="Times" font-size="6.96000004" style="-inkscape-font-specification:Times-Roman">OMC - Martin Weinelt</tspan>
        </text>
  </g>
  <g fill="#0f0" clip-path="url(#d)" transform="matrix(.55206 0 0 -.55206 4810.76778 474.46604)">
    <text transform="matrix(1 0 0 -1 408.31536 40.07568)">
          <tspan x="0 6.96" y="0" font-family="Times" font-size="13.92000008" style="-inkscape-font-specification:Times-Roman">km</tspan>
        </text>
  </g>
  <g fill="#0f0" clip-path="url(#b)" transform="matrix(.29101 0 0 -.29101 4527.94208 423.29155)">
    <text transform="matrix(1 0 0 -1 47.36952 20.40192)">
          <tspan x="0 3.96 7.9200001 11.88 15.84 17.82 20.900881 24.86088 28.820881 30.80088 34.76088 38.720879 40.700878 44.660881 48.62088 50.822639 54.782639 58.742641 60.944401 64.904404" y="0" font-family="Times" font-size="7.92000008" style="-inkscape-font-specification:Times-Roman">2008 Jun 12 04:45:24</tspan>
        </text>
  </g>
  <g fill="#0f0" clip-path="url(#c)" transform="matrix(.29101 0 0 -.29101 4527.94208 423.29155)">
    <text transform="matrix(1 0 0 -1 134.16096 20.88)">
          <tspan x="0 5.0251198 11.21256 15.85488 17.594879 19.91256 21.652559 27.84 30.930241 33.247921 35.1828 37.11768 40.597679 42.337681 48.907921 51.998161 53.933041 57.41304 60.503281 62.43816" y="0" font-family="Times" font-size="6.96000004" style="-inkscape-font-specification:Times-Roman">OMC - Martin Weinelt</tspan>
        </text>
  </g>
  <g fill="#0f0" clip-path="url(#e)" transform="matrix(.29101 0 0 -.29101 4527.94208 423.29155)">
    <text transform="matrix(1 0 0 -1 408.31536 40.07568)">
          <tspan x="0 6.96" y="0" font-family="Times" font-size="13.92000008" style="-inkscape-font-specification:Times-Roman">km</tspan>
        </text>
  </g>
  <g fill="#0f0" clip-path="url(#b)" transform="matrix(.5495 0 0 -.5495 394.99019 470.64758)">
    <text transform="matrix(1 0 0 -1 47.36952 20.40192)">
        <tspan x="0 3.96 7.9200001 11.88 15.84 17.82 20.900881 24.86088 28.820881 30.80088 34.76088 38.720879 40.700878 44.660881 48.62088 50.822639 54.782639 58.742641 60.944401 64.904404" y="0" font-family="Times" font-size="7.92000008" style="-inkscape-font-specification:Times-Roman">2008 Jun 12 03:54:25</tspan>
      </text>
  </g>
  <g fill="#0f0" clip-path="url(#c)" transform="matrix(.5495 0 0 -.5495 394.99019 470.64758)">
    <text transform="matrix(1 0 0 -1 134.16096 20.88)">
        <tspan x="0 5.0251198 11.21256 15.85488 17.594879 19.91256 21.652559 27.84 30.930241 33.247921 35.1828 37.11768 40.597679 42.337681 48.907921 51.998161 53.933041 57.41304 60.503281 62.43816" y="0" font-family="Times" font-size="6.96000004" style="-inkscape-font-specification:Times-Roman">OMC - Martin Weinelt</tspan>
      </text>
  </g>
  <g fill="#0f0" clip-path="url(#d)" transform="matrix(.5495 0 0 -.5495 394.99019 470.64758)">
    <text transform="matrix(1 0 0 -1 408.31536 40.07568)">
        <tspan x="0 6.96" y="0" font-family="Times" font-size="13.92000008" style="-inkscape-font-specification:Times-Roman">km</tspan>
      </text>
  </g>
  <g fill="#0f0" clip-path="url(#b)" transform="matrix(.28966 0 0 -.28966 113.47644 419.71047)">
    <text transform="matrix(1 0 0 -1 47.36952 20.40192)">
        <tspan x="0 3.96 7.9200001 11.88 15.84 17.82 20.900881 24.86088 28.820881 30.80088 34.76088 38.720879 40.700878 44.660881 48.62088 50.822639 54.782639 58.742641 60.944401 64.904404" y="0" font-family="Times" font-size="7.92000008" style="-inkscape-font-specification:Times-Roman">2008 Jun 12 04:45:24</tspan>
      </text>
  </g>
  <g fill="#0f0" clip-path="url(#c)" transform="matrix(.28966 0 0 -.28966 113.47644 419.71047)">
    <text transform="matrix(1 0 0 -1 134.16096 20.88)">
        <tspan x="0 5.0251198 11.21256 15.85488 17.594879 19.91256 21.652559 27.84 30.930241 33.247921 35.1828 37.11768 40.597679 42.337681 48.907921 51.998161 53.933041 57.41304 60.503281 62.43816" y="0" font-family="Times" font-size="6.96000004" style="-inkscape-font-specification:Times-Roman">OMC - Martin Weinelt</tspan>
      </text>
  </g>
  <g fill="#0f0" clip-path="url(#e)" transform="matrix(.28966 0 0 -.28966 113.47644 419.71047)">
    <text transform="matrix(1 0 0 -1 408.31536 40.07568)">
        <tspan x="0 6.96" y="0" font-family="Times" font-size="13.92000008" style="-inkscape-font-specification:Times-Roman">km</tspan>
      </text>
  </g>
  <g fill="#0f0" clip-path="url(#b)" transform="matrix(.55206 0 0 -.55206 4831.06848 471.51073)">
    <text transform="matrix(1 0 0 -1 47.36952 20.40192)">
          <tspan x="0 3.96 7.9200001 11.88 15.84 17.82 20.900881 24.86088 28.820881 30.80088 34.76088 38.720879 40.700878 44.660881 48.62088 50.822639 54.782639 58.742641 60.944401 64.904404" y="0" font-family="Times" font-size="7.92000008" style="-inkscape-font-specification:Times-Roman">2008 Jun 12 03:54:25</tspan>
        </text>
  </g>
  <g fill="#0f0" clip-path="url(#c)" transform="matrix(.55206 0 0 -.55206 4831.06848 471.51073)">
    <text transform="matrix(1 0 0 -1 134.16096 20.88)">
          <tspan x="0 5.0251198 11.21256 15.85488 17.594879 19.91256 21.652559 27.84 30.930241 33.247921 35.1828 37.11768 40.597679 42.337681 48.907921 51.998161 53.933041 57.41304 60.503281 62.43816" y="0" font-family="Times" font-size="6.96000004" style="-inkscape-font-specification:Times-Roman">OMC - Martin Weinelt</tspan>
        </text>
  </g>
  <g fill="#0f0" clip-path="url(#d)" transform="matrix(.55206 0 0 -.55206 4831.06848 471.51073)">
    <text transform="matrix(1 0 0 -1 408.31536 40.07568)">
          <tspan x="0 6.96" y="0" font-family="Times" font-size="13.92000008" style="-inkscape-font-specification:Times-Roman">km</tspan>
        </text>
  </g>
  <g fill="#0f0" clip-path="url(#b)" transform="matrix(.29101 0 0 -.29101 4548.24288 420.33624)">
    <text transform="matrix(1 0 0 -1 47.36952 20.40192)">
          <tspan x="0 3.96 7.9200001 11.88 15.84 17.82 20.900881 24.86088 28.820881 30.80088 34.76088 38.720879 40.700878 44.660881 48.62088 50.822639 54.782639 58.742641 60.944401 64.904404" y="0" font-family="Times" font-size="7.92000008" style="-inkscape-font-specification:Times-Roman">2008 Jun 12 04:45:24</tspan>
        </text>
  </g>
  <g fill="#0f0" clip-path="url(#c)" transform="matrix(.29101 0 0 -.29101 4548.24288 420.33624)">
    <text transform="matrix(1 0 0 -1 134.16096 20.88)">
          <tspan x="0 5.0251198 11.21256 15.85488 17.594879 19.91256 21.652559 27.84 30.930241 33.247921 35.1828 37.11768 40.597679 42.337681 48.907921 51.998161 53.933041 57.41304 60.503281 62.43816" y="0" font-family="Times" font-size="6.96000004" style="-inkscape-font-specification:Times-Roman">OMC - Martin Weinelt</tspan>
        </text>
  </g>
  <g fill="#0f0" clip-path="url(#e)" transform="matrix(.29101 0 0 -.29101 4548.24288 420.33624)">
    <text transform="matrix(1 0 0 -1 408.31536 40.07568)">
          <tspan x="0 6.96" y="0" font-family="Times" font-size="13.92000008" style="-inkscape-font-specification:Times-Roman">km</tspan>
        </text>
  </g>
  <g fill="#0f0" clip-path="url(#f)" transform="matrix(.28368 0 0 -.28306 -272.0691 390.79897)">
    <text transform="matrix(1 0 0 -1 47.36952 20.40192)">
            <tspan x="0 3.96 7.9200001 11.88 15.84 17.82 20.900881 24.86088 28.820881 30.80088 34.76088 38.720879 40.700878 44.660881 48.62088 50.822639 54.782639 58.742641 60.944401 64.904404" y="0" font-family="Times" font-size="7.92000008" style="-inkscape-font-specification:Times-Roman">2008 Jun 12 03:54:25</tspan>
          </text>
  </g>
  <g fill="#0f0" clip-path="url(#g)" transform="matrix(.28368 0 0 -.28306 -272.0691 390.79897)">
    <text transform="matrix(1 0 0 -1 134.16096 20.88)">
            <tspan x="0 5.0251198 11.21256 15.85488 17.594879 19.91256 21.652559 27.84 30.930241 33.247921 35.1828 37.11768 40.597679 42.337681 48.907921 51.998161 53.933041 57.41304 60.503281 62.43816" y="0" font-family="Times" font-size="6.96000004" style="-inkscape-font-specification:Times-Roman">OMC - Martin Weinelt</tspan>
          </text>
  </g>
  <g fill="#0f0" clip-path="url(#h)" transform="matrix(.28368 0 0 -.28306 -272.0691 390.79897)">
    <text transform="matrix(1 0 0 -1 408.31536 40.07568)">
            <tspan x="0 6.96" y="0" font-family="Times" font-size="13.92000008" style="-inkscape-font-specification:Times-Roman">km</tspan>
          </text>
  </g>
  <g fill="#0f0" clip-path="url(#f)" transform="matrix(.14954 0 0 -.14921 -417.4023 364.55968)">
    <text transform="matrix(1 0 0 -1 47.36952 20.40192)">
            <tspan x="0 3.96 7.9200001 11.88 15.84 17.82 20.900881 24.86088 28.820881 30.80088 34.76088 38.720879 40.700878 44.660881 48.62088 50.822639 54.782639 58.742641 60.944401 64.904404" y="0" font-family="Times" font-size="7.92000008" style="-inkscape-font-specification:Times-Roman">2008 Jun 12 04:45:24</tspan>
          </text>
  </g>
  <g fill="#0f0" clip-path="url(#g)" transform="matrix(.14954 0 0 -.14921 -417.4023 364.55968)">
    <text transform="matrix(1 0 0 -1 134.16096 20.88)">
            <tspan x="0 5.0251198 11.21256 15.85488 17.594879 19.91256 21.652559 27.84 30.930241 33.247921 35.1828 37.11768 40.597679 42.337681 48.907921 51.998161 53.933041 57.41304 60.503281 62.43816" y="0" font-family="Times" font-size="6.96000004" style="-inkscape-font-specification:Times-Roman">OMC - Martin Weinelt</tspan>
          </text>
  </g>
  <g fill="#0f0" clip-path="url(#i)" transform="matrix(.14954 0 0 -.14921 -417.4023 364.55968)">
    <text transform="matrix(1 0 0 -1 408.31536 40.07568)">
            <tspan x="0 6.96" y="0" font-family="Times" font-size="13.92000008" style="-inkscape-font-specification:Times-Roman">km</tspan>
          </text>
  </g>
  <g fill="#0f0" clip-path="url(#f)" transform="matrix(.285 0 0 -.28438 2018.08368 391.24361)">
    <text transform="matrix(1 0 0 -1 47.36952 20.40192)">
            <tspan x="0 3.96 7.9200001 11.88 15.84 17.82 20.900881 24.86088 28.820881 30.80088 34.76088 38.720879 40.700878 44.660881 48.62088 50.822639 54.782639 58.742641 60.944401 64.904404" y="0" font-family="Times" font-size="7.92000008" style="-inkscape-font-specification:Times-Roman">2008 Jun 12 03:54:25</tspan>
          </text>
  </g>
  <g fill="#0f0" clip-path="url(#g)" transform="matrix(.285 0 0 -.28438 2018.08368 391.24361)">
    <text transform="matrix(1 0 0 -1 134.16096 20.88)">
            <tspan x="0 5.0251198 11.21256 15.85488 17.594879 19.91256 21.652559 27.84 30.930241 33.247921 35.1828 37.11768 40.597679 42.337681 48.907921 51.998161 53.933041 57.41304 60.503281 62.43816" y="0" font-family="Times" font-size="6.96000004" style="-inkscape-font-specification:Times-Roman">OMC - Martin Weinelt</tspan>
          </text>
  </g>
  <g fill="#0f0" clip-path="url(#h)" transform="matrix(.285 0 0 -.28438 2018.08368 391.24361)">
    <text transform="matrix(1 0 0 -1 408.31536 40.07568)">
            <tspan x="0 6.96" y="0" font-family="Times" font-size="13.92000008" style="-inkscape-font-specification:Times-Roman">km</tspan>
          </text>
  </g>
  <g fill="#0f0" clip-path="url(#f)" transform="matrix(.15024 0 0 -.1499 1872.07318 364.88204)">
    <text transform="matrix(1 0 0 -1 47.36952 20.40192)">
            <tspan x="0 3.96 7.9200001 11.88 15.84 17.82 20.900881 24.86088 28.820881 30.80088 34.76088 38.720879 40.700878 44.660881 48.62088 50.822639 54.782639 58.742641 60.944401 64.904404" y="0" font-family="Times" font-size="7.92000008" style="-inkscape-font-specification:Times-Roman">2008 Jun 12 04:45:24</tspan>
          </text>
  </g>
  <g fill="#0f0" clip-path="url(#g)" transform="matrix(.15024 0 0 -.1499 1872.07318 364.88204)">
    <text transform="matrix(1 0 0 -1 134.16096 20.88)">
            <tspan x="0 5.0251198 11.21256 15.85488 17.594879 19.91256 21.652559 27.84 30.930241 33.247921 35.1828 37.11768 40.597679 42.337681 48.907921 51.998161 53.933041 57.41304 60.503281 62.43816" y="0" font-family="Times" font-size="6.96000004" style="-inkscape-font-specification:Times-Roman">OMC - Martin Weinelt</tspan>
          </text>
  </g>
  <g fill="#0f0" clip-path="url(#i)" transform="matrix(.15024 0 0 -.1499 1872.07318 364.88204)">
    <text transform="matrix(1 0 0 -1 408.31536 40.07568)">
            <tspan x="0 6.96" y="0" font-family="Times" font-size="13.92000008" style="-inkscape-font-specification:Times-Roman">km</tspan>
          </text>
  </g>
  <g fill="#0f0" clip-path="url(#j)" transform="matrix(.28368 0 0 -.28306 -196.83294 -676.68619)">
    <text transform="matrix(1 0 0 -1 47.36952 20.40192)">
            <tspan x="0 3.96 7.9200001 11.88 15.84 17.82 20.900881 24.86088 28.820881 30.80088 34.76088 38.720879 40.700878 44.660881 48.62088 50.822639 54.782639 58.742641 60.944401 64.904404" y="0" font-family="Times" font-size="7.92000008" style="-inkscape-font-specification:Times-Roman">2008 Jun 12 03:54:25</tspan>
          </text>
  </g>
  <g fill="#0f0" clip-path="url(#k)" transform="matrix(.28368 0 0 -.28306 -196.83294 -676.68619)">
    <text transform="matrix(1 0 0 -1 134.16096 20.88)">
            <tspan x="0 5.0251198 11.21256 15.85488 17.594879 19.91256 21.652559 27.84 30.930241 33.247921 35.1828 37.11768 40.597679 42.337681 48.907921 51.998161 53.933041 57.41304 60.503281 62.43816" y="0" font-family="Times" font-size="6.96000004" style="-inkscape-font-specification:Times-Roman">OMC - Martin Weinelt</tspan>
          </text>
  </g>
  <g fill="#0f0" clip-path="url(#l)" transform="matrix(.28368 0 0 -.28306 -196.83294 -676.68619)">
    <text transform="matrix(1 0 0 -1 408.31536 40.07568)">
            <tspan x="0 6.96" y="0" font-family="Times" font-size="13.92000008" style="-inkscape-font-specification:Times-Roman">km</tspan>
          </text>
  </g>
  <g fill="#0f0" clip-path="url(#j)" transform="matrix(.14954 0 0 -.14921 -342.16614 -702.92549)">
    <text transform="matrix(1 0 0 -1 47.36952 20.40192)">
            <tspan x="0 3.96 7.9200001 11.88 15.84 17.82 20.900881 24.86088 28.820881 30.80088 34.76088 38.720879 40.700878 44.660881 48.62088 50.822639 54.782639 58.742641 60.944401 64.904404" y="0" font-family="Times" font-size="7.92000008" style="-inkscape-font-specification:Times-Roman">2008 Jun 12 04:45:24</tspan>
          </text>
  </g>
  <g fill="#0f0" clip-path="url(#k)" transform="matrix(.14954 0 0 -.14921 -342.16614 -702.92549)">
    <text transform="matrix(1 0 0 -1 134.16096 20.88)">
            <tspan x="0 5.0251198 11.21256 15.85488 17.594879 19.91256 21.652559 27.84 30.930241 33.247921 35.1828 37.11768 40.597679 42.337681 48.907921 51.998161 53.933041 57.41304 60.503281 62.43816" y="0" font-family="Times" font-size="6.96000004" style="-inkscape-font-specification:Times-Roman">OMC - Martin Weinelt</tspan>
          </text>
  </g>
  <g fill="#0f0" clip-path="url(#m)" transform="matrix(.14954 0 0 -.14921 -342.16614 -702.92549)">
    <text transform="matrix(1 0 0 -1 408.31536 40.07568)">
            <tspan x="0 6.96" y="0" font-family="Times" font-size="13.92000008" style="-inkscape-font-specification:Times-Roman">km</tspan>
          </text>
  </g>
  <g fill="#0f0" clip-path="url(#j)" transform="matrix(.285 0 0 -.28438 2093.31978 -676.24157)">
    <text transform="matrix(1 0 0 -1 47.36952 20.40192)">
            <tspan x="0 3.96 7.9200001 11.88 15.84 17.82 20.900881 24.86088 28.820881 30.80088 34.76088 38.720879 40.700878 44.660881 48.62088 50.822639 54.782639 58.742641 60.944401 64.904404" y="0" font-family="Times" font-size="7.92000008" style="-inkscape-font-specification:Times-Roman">2008 Jun 12 03:54:25</tspan>
          </text>
  </g>
  <g fill="#0f0" clip-path="url(#k)" transform="matrix(.285 0 0 -.28438 2093.31978 -676.24157)">
    <text transform="matrix(1 0 0 -1 134.16096 20.88)">
            <tspan x="0 5.0251198 11.21256 15.85488 17.594879 19.91256 21.652559 27.84 30.930241 33.247921 35.1828 37.11768 40.597679 42.337681 48.907921 51.998161 53.933041 57.41304 60.503281 62.43816" y="0" font-family="Times" font-size="6.96000004" style="-inkscape-font-specification:Times-Roman">OMC - Martin Weinelt</tspan>
          </text>
  </g>
  <g fill="#0f0" clip-path="url(#l)" transform="matrix(.285 0 0 -.28438 2093.31978 -676.24157)">
    <text transform="matrix(1 0 0 -1 408.31536 40.07568)">
            <tspan x="0 6.96" y="0" font-family="Times" font-size="13.92000008" style="-inkscape-font-specification:Times-Roman">km</tspan>
          </text>
  </g>
  <g fill="#0f0" clip-path="url(#j)" transform="matrix(.15024 0 0 -.1499 1947.30928 -702.60313)">
    <text transform="matrix(1 0 0 -1 47.36952 20.40192)">
            <tspan x="0 3.96 7.9200001 11.88 15.84 17.82 20.900881 24.86088 28.820881 30.80088 34.76088 38.720879 40.700878 44.660881 48.62088 50.822639 54.782639 58.742641 60.944401 64.904404" y="0" font-family="Times" font-size="7.92000008" style="-inkscape-font-specification:Times-Roman">2008 Jun 12 04:45:24</tspan>
          </text>
  </g>
  <g fill="#0f0" clip-path="url(#k)" transform="matrix(.15024 0 0 -.1499 1947.30928 -702.60313)">
    <text transform="matrix(1 0 0 -1 134.16096 20.88)">
            <tspan x="0 5.0251198 11.21256 15.85488 17.594879 19.91256 21.652559 27.84 30.930241 33.247921 35.1828 37.11768 40.597679 42.337681 48.907921 51.998161 53.933041 57.41304 60.503281 62.43816" y="0" font-family="Times" font-size="6.96000004" style="-inkscape-font-specification:Times-Roman">OMC - Martin Weinelt</tspan>
          </text>
  </g>
  <g fill="#0f0" clip-path="url(#m)" transform="matrix(.15024 0 0 -.1499 1947.30928 -702.60313)">
    <text transform="matrix(1 0 0 -1 408.31536 40.07568)">
            <tspan x="0 6.96" y="0" font-family="Times" font-size="13.92000008" style="-inkscape-font-specification:Times-Roman">km</tspan>
          </text>
  </g>
  <path fill="#fff" d="m376.60073 175.244619-.39355.85899.16399.78538.22956.3927.86908-.31091-1.4184.62995-.78709 1.88164-.6313 1.41528.31975 1.02261-.15578.62995-.0819.31086.0819.0817.46733.15545.63132-.31906.39354.23726-.47553.78538-.62311.0817.39353.39269-.31975 1.64438.54933.62991-.94287.15545h-.0737l-1.02485.0817-.39356 1.02261.0737 1.2517-1.33639.78538-.15579-.46631-.63131.31085-.15578.39268.63131.94084-.71329-.39271.47553.0817-.39355-.54813-.23775.85903.15577-.85903-1.3364 1.48894h.39353v.86719l.0819-.23724.0737-.0817v.0817l.16399.39265.62309.0817h.0819l-.47553.54816.39354.31087-.86088.23723-.23776.78538-.70509-.0817.86086 1.41532-1.96771-.31091.15579-.47446-.54932.0817.0819-.3927-.63131-.23725-.6313.54814h-.86088l.46732 1.17804-.78708.54814h-.0737l-.63131.0817-.0819-.3927-.94286.54814-.23777.86717-.78708-.62995.0819.3927-.47553-.23725-.39352.31906.15578.39268.39353-.23724c-.99321.71152-1.0488 2.4367-1.18063.70355l.7133-2.66698-.7133-.3927.47553.0737-.15577-.3109-1.33641-.47448-.86907.86717v-.54812l-.94286.23725.31156-.5563-.70512-.0737-.31974.9408.31974.70357-.31974.0817-.31156.15543.47553.31907-.39355-.0817-.6313.78536v-.39269l-.78707.23724-.0819.3109.39354-.15545-1.88571 1.41531.15577.62992-.39354-.23725.6313 1.09626-2.28746.62992.31976 1.33351 1.18063.86717.23775 1.9634.0737.31092-.39356-.31092-.15577.0737h-.39354l-.23776.0817h-.39356v-.15545l-.0737-.15545v-.94895l-.0819-.15546v-.70357l-.0819-.1554v-.16364l-.62309-.39267-.31976.23722.23776.47449-.78709-.0817 1.02486 1.17804-.94287-.31087-.55752-2.04524.0819.78538-.78709.94079.47553 1.02264-.0819.71174-.15579 1.01445.94287-.15544.78709.4745.31155.78537-.31155.6299.63131.31091-.86907-.39271-.23777-1.4153-.86089.23725.0737 1.3335-1.3364 1.80799-1.49218-.62992 1.33641-.23727.94285-1.88161-.46731-.62994.15576-1.25168.0737-1.10444-.39353-.70353.47553-1.49714-.47553-.22904-.78708-.0817-.54933 1.57072-.7051.4745-.15577 1.33349-.0819.54814.54931.0817.47553.78537-.54931.94082-1.10685-1.41532.31976.15546-2.13169-1.33352-.31155.31089.15577.94898h-.54933l-.15577.46631-.15577-.85899-.86907.31087-.86907-.23724-.31156.3927-.7051-.23727.39354-.70354.46733-.0817-.23776-.0737-.94287.54814.0819-.31089-1.8939.15544.0819.39268-.54933-.15542-.47553.70355-.7051-.23725-.0819-.859.94285-.0817.0819-.39269-.94287-1.25985.0737.62994-1.3364 2.51153-.46734-1.01442-.95106.22906-.54932.1636-.23776.0737-.0737.47451-.23776.78536-.15577-.23724-.47553-.62995-.31157.0817.31157-.15544-.46734-.71174-.39356.31906.31157.859-.63131.39268-.54932-1.57074.39353-.94082.63132-.31086-.47553-.949.39354.0817-.0737-1.25986 1.96771 2.98604.62311-.23723.95106-.3109.0737-1.25987v-.15541l-.86088-2.20069-.55752-.46631-.46732.31088.54931-.39271-.39353-.39266.23776-.31089.31155.31089-.15578-.46632-.54931.15543-.0819-.54811h-.39354l.0819-.47452.0737-.23725.39352.47451.47555-.0817-.15579-.94081-.71328.0817.6313-.31903-.0737-.31087-.71328.39267-.31156-.0817.63132-.46632-1.26262.39268.94286-.47449-.23776-.47452-1.18063.55633v-.0817l-.15577-.78536-.23779.39265-.22955.3109.0737-.4663v-.0817l-.94287.23721h-.0819l.16399-.0817.31154-.22905-.39353.0737.39353-.23724-.39353-.0737-.23776.4663-.0737-.62175-.95108.46635-.39353-.3109.23776.54811-.39354-.47446-.54931.47446.31155-.47446-.31155-.15546-.0819.31906-.22955-.31906-.0819.62992-.63132-.39267.0819.54812-.63131-.62991v.31904l-.86908.0737.39355.31906-.54933-.31906-.15577.31906v-.23726l-.86907.23726.31974.31088-.86906-.39268.31975.31905-.47553-.16362-.0819.39268-.31157-.15543.23777-.31088h-1.3364l.15577.46631.78709.0817-.78709.23724-.39354-.39268.23777-.23725-.47553-.3927-.47554.4745-.0737-.4745-.15579.4745v-.86715l-.0819.70355-.47553-.78536-.31157.71173.15579-.3927-.31156.15543v-.39265l-.0819.31086-.0737-.70359-.31976.23727-.39353.0737.0819.55632-.23777-.39271.15579.31087h-.39355l.39355.54814.23775-.0737-.15577.46632.39355-.0737-.23778.22906-.47553-.0737.23778-.39266-.54933-.71174v.39268l-.23777-.31089-.15577.31089.31155.16362-.54931-.0817-.15579.31085h.31156l-.54933.16365.94287.39267-1.3364-.31906-.15577.39269.47553.31905-.63131-.0817.15578.39268h-.31157v-.47449l-.39353.31906-.23778 1.09623.39355.54814 1.3364-.0736.15579.4663.94285-.39267-1.41018 1.34167.22956.15542-.46733.31088.46733-.15544-.70509.39268-.63131 1.48894-.39355-.0737-.70509.9408.46732.70357.86907-.39266.31157.71171 1.50038-.71171.78708-.94081.23777.23724-.16398-.47451.63131.47451.39354-.23724-.23777.47448.71329-.0817-.15576-.39267.70509.15543.31155-1.17804-.15577-.3927 2.28747-1.64438-.0819.39271 1.26262.0737.46732.0817.86909-.23725.70509-.85901v.31087l.54932-.47448v.39267l.39355-.22906.55751.70355-.39355 1.09626-3.3861.31906-.94286 1.33349-.86907.62995v.78536l.39354.0737-.54933.47449 3.06637 1.41532-.31155.39267.39352 1.02261-1.10683-.71171-.31155.31905-.78709-1.17808-1.18062-.55629-.6313.949.31974.39267-.95107.85899-.54932-.0737.23778-1.17803-.54932-.23725-1.18064.54811-1.18061 1.48894-.31978-.31087.86909-.39269-.7051.31088-.39354-.15544v-.0737l-.23777.2291v.0817l.23777.15546-.31974-.0737-.46734-.0817.54931-.0817-.71329-.3109.0819-.78536-1.88571-1.09625-.39356.31087.15579-1.57072-1.10685-.78539.47553-.23725-.39354-.46632.23777-.78537.86087-.5563 1.10683.23726v-.62991l1.09865-.46635-1.18064-.62991-.46732.31085.62311-.0737.16397.54809-.31976-.31087-.31154.3927.15577-.3927-.31155-.0817v-.0817l-1.81193 1.17806.23777.0817-.31976.54815-.23777-.15546-.39354 1.25988v-.94901l-.46734.31907.15578-.54811-.39356-.3927-.23775.3927-.23778-1.02265-.46731-.0817-.31976.62994-.39354-.15543.47553-.78539-1.09864.23725-.0819.54814-.47554-.62995v.62995l-1.01664-1.41531-.63131.54811-.23778-.15541-.94285-.47451v-1.48891l-.86909 1.02261-.39354-.86721.31977-.4663-.63131-.94898-.15577.5563v-.31908l-.39354.47451.0737 1.57076-.78709.94081v.6299l-.63131.31088-.0737.15543-1.89392.94901-.86088-4.09048.23777-.70357-.78709-.86717-.55751.949-1.80374 1.09624-1.10685.15545.15579.31904-.46733.0737.0492.33544-1.07404.6872.47553 1.65253-.7133 1.79983.7133.55631.46733 1.88161.7133.0817.22957.54811.6313-.31905.31976.23725.15577.0817.0737-.31904.0819-.31087.47553-.39268.15578.0817h1.09863l1.33643 1.09624.6313-.78537.47553-.0817.46734.39271.16396 1.88977 2.04152.78537.15576 1.3335-.86087 1.88162.31155 5.10492-.46734 1.34168-.86905.31086.15577.39268.86907-.39268.39354.23725.15579-1.10442.63131-.22907.39353.78538-.0819.70354.31976-.15543-.31976-2.83062.39356-.31089-.54933-1.02261.54933-1.96342v-1.41527l.86907-1.09627.86087.62992-.62311 1.01445h.62311l-.7051 2.43793.39356.70356v1.0226l-.23777-.62995.47553 1.57078v1.17803l-1.10685.94899-.0737 1.17806-.0819 1.09625.23777.15543h-.31157l-.0819.62994 1.09866 1.57074h-.31157l-.7051-1.25985-.39354.1636-.31976 1.25169.39354.15542-.15577.7854.31156-.3109.16397.78536.39354-1.33347.39355.62992-.0819-.78536.39354.22905.0819.71175.38535-.46631.0819.3845.23777-.78536-.23777-.85899-.39356-.16362.28697 1.31714-.52473-1.54622.39356.22908.16396-.39268.15577.39268.31157-1.64437.31975.0737.15577 1.34166.15578-.5563.23777.62995v-1.02261l1.02485.62993.78708 1.41531-.78708.15544 1.41019-.0737.95106.85901.0737-2.11888-.31154-.15544 1.49216-.31908 1.10686-1.25167-.0819.31089.47553.15542.62312-.9408-.0655.28635-.0902.0327.0819-.009v.009l.0247-.009.68051-.0737.47553-.39269.94286.31089.0819.62991-.55753-.54811.23777.39267-.23777.0817 1.10686.94077-.17054.43878-1.01773-.18236.45932.29373-.409.99477.3671.50862 2.00286.22502-.68161-.49784-.17383-.31746-.0245-.6351-.18209-.32015 1.08449-.11519-.39353.39269.95106-.15544 2.51703.85901-.78709.31905-.54932-.3927.15577.70357-1.02485.54811-.70509-.23723 1.49218 3.37872.78708 1.4153-.15577 1.09627-.54932.31904-1.10683-.0817-.15579-.0737-1.26261-.78536-1.25441-1.25987-.54932-1.57075-1.18064-.78537-1.96771-.23726-1.3446-1.33347-.15579.47449.39356.46633-.63133-.46633-.15577.31086-1.41839-1.41529-.7051.0817-.31155.39269.62311.4663-.7051.71176.23776.46631-.39354-.22906v-.4745l-.31975.23725.47553.9408-.31157.15543.15579.78539h-.39355l.78709.54811-.86907-.15544.78708.4745.47555 1.41531.54931.39268.47553-.47449.39354.31087.78709 1.73436.94287.46633.78708-.15546.46733.62994.71329.15543-.86908.94081-.31154 1.17807-2.75481 2.11886-1.81193-1.01445-.15578 1.25167v1.80802l.54931 1.415281 1.33641-1.259871-.94287 1.104441.54933.39268.7133 3.84506-.0819.86717.7871 1.17805.23776 1.64437-.31976 1.17806.55753 1.10441.6231 1.01445 1.26261 3.69779-.39354 1.25169.47553 2.59335 1.64795.70356.71331-.15544 3.30412.9408.78709-.22906 3.22214.3927.39354-.62995 2.91876.39269.54932-.54813 1.02486.22907.6231-.62176 1.18064.0737.16397-1.17803.39355-.23727.39352.31908 1.64797-1.41532-1.02486-1.57074-1.64795-.78536-.47553-.78539-.23776-1.17804.39355-.7036-2.91059 1.40716-1.57418-.54813-.54931.0817-.78707-.71172.6313-1.48892-.54933-.23727-.5575 1.10444-.46734-1.49712.31155-.62992-1.09864-1.48896-.23777-2.04522-.39354-.22906.54932.0737-.0737-.54811v-.0817l.86088.3927.15579-.31089.47553.62995h.54932l.0819.23723.70509 2.58516.94287.62995 1.10683 1.41531 1.09864.62992 2.04971-.15545.46734 1.64438 2.7548 1.17805 1.89391.71176 5.18984.22908.16399.78534.7051.16362.15577.9408h1.02485l-.15578.3927.63131-.23724-.39355.31089.7871.78537 1.41019-.0737-.31155.4663-1.4184.0817 2.1235 1.72619 1.50038-.39268.23776-1.09626.7051.0737-.47553.31907v.23725h.47553l-.39354.39266.39354.54814-.39354.85898.94287 3.5342 2.83677 4.2459.46734.85899.39354.86717 1.18064.62993.71329-.23723.23777-.54814 1.09864-.23724-.39356-.15543.31156-.47449.16399-.15544.7051-.15546-.15579-1.10442.31156-.54811.39354-.85899-.46734-1.49714.22957-.54811.86907-.0817.31157-.54811 1.2626-.3927-.0819-.39271 2.13169-1.48891.94287-1.10442 1.49217-.78538.7133-.85899-.23777-.54813.94287-.5563.23775-.54814.31157.54814.39355-.54814.47553.31905-.0819-.47446.23777.31086.31154-.39268.31976.16362.0737-.55632.39356.47452.31975-.86721.15578.55631.15577-.16362-.23776-.54812.86906-.23722 1.81194 2.04522.23776-.4745v.4745h.8609l.39354.39267-.63131.15544.55751.3927.15579-.54814.78708 1.48894-.23775 1.49712.39352-.3927-.15577.46632.23778-.31087.39352.23725.15579-.3927.39353.15545.23777-.47449.62311-.3927-.31156-.31087.47553.15544.39355-.39268-.0819-.62992.63131.71172.39353-.23726.31156 1.48893.54931.949v-.3927l.71332.78541-.0819.85896h.39354l-.39354.94081.15577.55631.23777-.39267-.0737.31087-.31976 1.57073.39354-.31086 1.65616.70355h.15577l.54932 1.41531.86908.70357 2.43505-.0737.47553-.4745h.39354l-.94287-.54811v-1.17807l-.39354-.39267-1.81193-.31906-1.33643.31906-.54931-1.02261-.23776-.3109-.7133.3109-.0737-.62995-.0819-.23725.78707-1.79978v-.0817l-.0737-.23723-.16399-.62994h.0819l1.02484-.62178v.78538l1.02486-.47446h.94285l.70511.86716.39353-.47451.15579.47451.23775-.31905 1.33642-.0737-.15579 1.09624.54933-.23723.86907-.94082c-.15192-.0697-.26237-.20723-.39354-.31086h.7051l-.31156-.23725-.0819-.0817.23778.0817h.23777l-.15579-.0817-.15578-.0737.46734-.16361h-.39354c-4.03366-1.52534-2.1276.61787 0 0l.31976-.15544-.0819-.23727.63131-.0737 1.64796-1.80798v-1.09624l.23775-.16362-.94285-1.79983-.78709-.47449-1.33641.0817-1.89391-1.02263.0819-1.0226.54933-.70356-.15577-.39267.31154-.0817-.31154-.23725.78709-.31089.23775-.71172.7051-.39271-.0737-.39268.78707.16363.31157-.62995.39354.0737-.15578.62993.39355.54814.39355-.22908-.23778-1.10442.15577.15543 1.02485-1.01444-.0819-.23724.63131-.31906-.0737-.31086.54933-.15546-.15579-.62991.31157.31085.0819-.39266h.22957l-.39354-.70357 1.10684.15543-.23777-.15543.47553-.62995.15578.15546.23776-.54815.31156.0817.70509-.8672.16396-.4663h-.31973l.54932-.62992v-.39269l.31974.0737.23777-.85901h-.39354l.7051-.54811-.15577-.31906.31155-.23725-.23777-.22908.39356-.23724-.15579-.392681h.39355l-.39355-.54812.23776-.5563-.31154.16362.15577-.16362-.39354-.15544.46734-.15546.0819-.0817.0819-1.57072h-.31976l.71328-.85901-.39352-.23724.15577-.47452h-.31976l.39355-.39267-.15577-.39268-.31156.5563.31156-.86717h-.23778l-.62311.15542-.78708.8672 1.01665-1.80801-1.25442-.15541.86089-.62995-1.18065-.0817-1.25441-1.25169-.23776.0737-.7051.23726-.16397-.31086.23777-1.10444.0819-.46634-.23777-.0817.39354-.31086-.15577-.47449.54933-1.17805.47553-.15543-.16399-.62995-1.57417.78538-.31156.78534-.39354.78541-.78707-.78541-.94287.47452-.31976-.71172.86907-.78539.15578-1.40712.23778-1.34169.39353-.70355.63131.3109-.0819 1.65251.47553-.47449-.15577 1.10444.94287-2.59336 1.3364-.94082.23777.94082.39353-.0817-.31975.4745.0819.62992.39355-.39267-.0819.39267.31976-.31906v-.22907l.70509-.31904.7871.6299h-.39354l-.0739.54815.39356.0817-.0819-.31904.31154.5563.23777-.31907.15577 1.33349.55752.23725-.23774.23725.31152.0817.15579-.94898.31976.23723-.15579-.4663.31156.0737-.23776-.3109.54933-.31905-.15579-.4663.39354-.23726-.31155-1.17803-.7133-.78539-1.57417-.70357-.94286.15545-.23777-.54811.55752-2.43794-.63132-.86717.15579-1.01445-.31156-.31905.39354-.23725-.31974-1.01442 1.10683-.31907.39354-2.03705-.86907-4.16411-1.18063-2.98605-.23777-.62992-.86087-.78536-.6313-.46633-.86909-1.73435-1.18062-.22908.31977-.16362-.23777-.39266-1.18063.23722h-.23779l-.31154.62995.22957.23727v1.09621l-.54933-.85899.15577.94082-.78707-.71175-.31155.71175h-.47553l-.39354-2.74883-.54932-1.80797-.86089-2.3561.46734-1.808h.39355l-.23778-.39267.63133-1.17805-.39355-.54813.94286-1.17805v.70355h.31974l.0737-2.2743h-.31156l-.0819.47447-.39355-.23722-1.49219-2.04524-.23775-1.80798v-.22907l.47553.39268.23775.22904.39355.0817-.0819-.15543-.0819-.23725.55752.31086-1.10685-1.48893v-.47447l-.94284-.2291-.1558-.71172.23777-.31087.22957.62994 1.57417.62175.39356 1.10442 1.2626 1.57072 1.09864 1.41532.0819.859 1.02484 1.02263 1.49218 1.02261 4.32899 1.48893-1.18065-1.96342-.70508-.23727v-1.09624l-.15577-.0817-.23777-.0737-.15579-.0817-.23777-.0737-.23776-.1636-.47553-1.57075-1.41021-.46632v-.78537l-1.2626-.0817-.39354-.46632-.23776.70357-2.12349-1.65258-.0819-.54811.31974-.0737-.78707-.94898.7051.16362-.6313-.5563-.31157-1.17807.7051-.39267-.54933-.22909-1.64795-1.80799-1.18063-1.80797v-1.02261l-.55752-.23726-1.64797.5563h.31157l-.54932.31087.47553.70356-.31976-.0736.0819.4663-.54931-1.9634-.39353-.22908-.55753-.31904-.86087.0817-.15578-.39272h.94287l-.39354-.86715.70509-.46631.0819-.78537-.31974-.0817.31974-.15542-.31974-.39268-.22957.4663-.47554-.39267h-.47553l-.0737.39267-.0819-.78537-.31157.16361v-.31906zm-4.16499 3.45234-.16399.78541.23777.0817.78709.31086-.23776-.31086zm-50.69323 3.06789-.23776 1.25167-.22957-.39269-.23777.39269v-.9408l-.78707 1.25986-.54933-.55631.0737.78536-.31155.5563-.39354.62176.39354.71175.46732.859.78709.39268.0819-.31086.0819.31086 1.09865-1.01442.31157.22906-.22957-.3109.46732-.39267-.54932-.0817.15578-.78536-.63131.23722.7133-.46631-.54933-.1636.22957-.31087.23777-.15545-1.02486-.15543.95108-.23725.62311-.86718-.70511.39268.47552-.46632-.6313.15545.23778-.3927-.31976.15544zm53.28405 1.48893-.0737.47448.39353-.23725zm-6.69022 4.47495-.94287.94082.78708.0818.47553-.39268zm18.81626.23726v.54812l.6313.39269zm-48.01222.15545-1.18064 1.17806.94287.0817-.39355.23724h.39355l-.15577.39268-.94287-.47452-.31976.31091.63131.39265-.54931-.22904v.39269l-.23777-.4745-.39355.62995-.15577.62991 2.12349-.86717.31157.0817.39351.0737.164-.54811.22956-.62992-.31154.0817.54931-.62995-1.18064.78538.71331-.86719-.63131.16361.15578-.47446.47553.0817zm1.3364.78536-.31154.47449.22955.15542.23776.23726h-.54933l.23779.70356 1.18062-.0737.0737-.62994-.46733-.0817.39353-.31086-.6313.31086.15577-.62991.0819-.15544-.39354.23724zm26.91669.0817-1.18063.62995.54931.46632-.31155.0817h-.54933l.39354.78537.94289.23725.23776-.4745.39354-.94082-1.02486-.15541.86909.0737zm-28.25309 1.48893-.15579.31906.54933-.16362zm30.30279.0817-.6313.15543.15577.78535.0819.15545v-.0737l.6313-.71176zm-30.54056.31086-.7051.47452.46734.1554-.31157.3109.54933-.0737.39355-.6299zm15.58593.86717-.39354 1.41532.54931.15544.63133-.4745v-.54811zm-8.34637.15546-1.09865.5481.94285-.0737zm-36.67328.62994-.39354.54811-.47553-.23725-.0819.9408-.70508-.39269.15577.78537-.46733-.94079-.0819.47448-.31155-.31906.0737.5563-.31154-.23724.15577.39269-.31155-.0817.54932.9408.54932.94896 1.72995-.94896.54931.31905.71331-.78538-.39356-.62993.31157.15546.0819-.3927-.39355.0817.23778-.31906-.63132-.22903v.39268h-.47553zm38.24744.0737-.0574.37631.53292-.37631h-.39354zm-34.23822.0817-.23777.15544.31976.15544.54931-.15544zm33.6069.15544v.4745l.39355-.23726zm8.26443 0-.70513 1.02261.94288.3927.86906-.23725-.0819-.23726-.0737-.15544-.0819-.23725-.0412-.041-.11475-.26995h-.0819l-.31154-.23725-.15578.3927zm-7.6905.1473-.0163.009v.0817zm-34.4924.0899-.54931.6299.22958-.15541zm43.52747.15543.31157 1.72618.86907-1.01445-.7133-.5563-.0737.47449zm-43.2159.15543-.7051.62995-.47553-.31091.15577.70356-1.57417.23725h.6313l.39355.15546-.23778.39269v-.31088l-1.09862.39268-.23776.31087.23776-.15545.39353 1.02262-.54932-.0817-.39352.54815.23775.0817-.71328.23724-.15579.31085-.31155-.85899-.55752-.1636.23776.39268-.31156.31906-.86906-.54814-.15578 1.48894.54933.47449-.70512-.0817-.15577-.78536-1.26261-.39269.39354 1.33349.47553-.15544.7051 2.20069.6313.70355.23776-.15546-.16396-.78536.23775.3109h1.02486l.31156-.54814-.22957-.78537h-.0819l.63132-.3927.0737-.23722-.0737-.31089.23777.3927.31154-.23726.23777-.9408 1.18063-1.33351v-1.10443l.31155.71176v-.54811l.31975.39265 1.18064-.1636-.55752-1.4071 1.41839.22903-.23777-1.09625-.86087.3927zm40.61689 0 .15578.39268.39353-.0737.0819-.31905zm-42.26486.47449.15577.31088.15577-.22907zm16.4468 2.20068v.23725l.47553-.23725zm.54933.23725-.78708.22907.40174.0737zm-.38534.3027-.009.009.47552.0817zm1.4102-.22908-.63132.15545.63132.1636zm65.09033.3927.6313.9408-.23776-.62176zm-32.3443.0817-.39353.31088.46731.15542zm-13.70019.4663-1.18064.62995-1.02484-.15545-.39356.15545-1.49219.71172.0819.62174-.7133.39271.31976.31905-.39354-.23724-.55752.23724.6313.39268-.70508.15543.86087.39271.0819-.62995.31154.23724-.22956-.39267.39355.31088v-.54813l.22957.31906.16396-.62994.22958.15545.39353-.31087.55753-.5563 2.27927-.70356zm-5.82117 3.37874v.31906l-.47553.0737.39356.23725-1.09865.62995v.4663l.63131.0817-.16399 1.02261 1.3446.3927-.47551-1.65256.23777-.78536.70508-.46632-.46734-.31904zm5.90314.86717-.0819.4663.39353-.0737.0819-.39269zm39.82161 1.33351v.31086l.63132.0737zm.63132.38451.0819.0489v-.041zm.0819.0489v.82628l.94287.78536 1.26263.54812.94285.78538 3.38611 3.05966-.47553-.85899.39354-.47448.47553.31086-.23776-.39268-1.50038-.22908-1.01666-1.25986.22957-.78535h.7133l-1.4184-.47452-1.57418-.54811zm-75.16665.26998-.31977.23725.16399.47448.46732-.47448zm.46731.31905-.70508 1.48892.39353-.39268h.78708l.31157-.62993-.46734.23725.15577-.39269zm25.11296.31087-.6313.23725.15577.54812.7133-.15542zm4.17319.15544-.16397.47451.39354.47447.23777-.23722v-.0817l-.0737-.0737zm54.3089.47451-.16399.78537.55754 1.25987zm-84.06236 1.33348.0737.3927.23778-.23726zm4.48474 0-.39356.47449 1.09866-.39268zm2.67281.62993v.39268l.31976.15545-.0819-.39271zm-.39354.23726-.39356.5481v.0817l.95106.0737zm77.52792.15542-.15577.31089.31975.71173.22956.3109zm-.22957.94081.15577.71175-.47553.62176-1.72994.23725 1.57419 1.96344-.39356.78534.31156.15546v.78536l.86907.62992.31155-1.02263-.70509.31908-.15577-.39268.39352-.15545v-.78537l1.02486-.62995-.47553-1.25987.23777-1.64435-.15578.4663zm-99.80408 1.57076v.71172l.39353.0737.15579-.3927zm4.0912 2.67516-.47553 1.01444.7133-.0736.63132-.78538zm96.72955.70354-.22958.4745.46734.15545-.54933.31087.15577.62996.0819.23724.46734.62993.0819-.23727v-.0817l.23775.23727.1558.23724.6313 1.41529.0737 2.66699-.46731.0817-.0819-.71176-.15577.54811.78707 1.88981-1.49217 2.2743-.47553 2.74878.31154.31906.7133-.86717-.15578-.62994.22958.15544.47553-1.79979.6313-.8672.31154.94082.63133-.23726v-.39267l.0819-1.09625h-.39354l-.16398-.54812.23776.15541-.0737-.2372.31155-.15545-.0819.39265.55751-.9408-.0819-.78536.39354.31089-.23776-.78537.23776-.31088-.31155-.47452.15577-.15541h.0739l.16397.31087.15577.39269v-.15544l-.0819-1.25168-.46732-.23725-.31975-.8672-.86088-.85898.15577-.47449-.7133-1.41532zm0 13.8258-.46734 1.48895.46734.0817h-.31157l.31157.39267.31973-.47447-.39353-.23724.15577-.39271.47553.39271.31156 1.49709.39354-.16362-.15577-.62176.31156.70357.23775-.86717-.47551-1.88163zm-97.91018-13.74399-1.33641 1.64437.70511.71177.94286-.78537.31974-1.02263zm-.31155 5.49761-.23776.4663.54931 2.43794 1.3364-.8672zm100.03364 5.17853-.46732.4745-.16396.94081-.22957-.0817v1.41529l.15577-.46631.46733.46631.0819-.46631v-.86717l.47555-.23724v-.94082zm-95.63089.15544-.31154.0817.23775.39271zm3.62388 2.74881.0737.47447.23775.23727.0819-.54814zm-3.54188 1.80797-.23777.3927.6313.94082.94287.94896.23778-.16362-.39355-.15544zm23.92412 1.65255h1.65614l1.25443.70357.16399.39268-.7871 1.10443.39354.46632-1.50039-.62995-.54931.47449.39354.54812-.94285-.54812-.23776.31092.47553.39265v1.25986l1.01664 1.02263-.46731.54812.0737 1.3335.39354-1.02263h.63131l.63131 1.57073-1.02486.16364-.54933-.78537-.47553.85898.16399.71177v-.31908l.54932.23727v.54811l-.39353-.31086-.23776.4663.47552-.0737.22956.62995-.54932 2.356111-2.0415-.474501-2.0497-1.96344.0819-1.57072.6231-.31085.39354-.86722.7871.0817-.62311-.6299-.71332-2.74881.39354-1.41531-.31152.3109-.0819-1.48896.94287-1.02262 1.10683.39269zm-20.93157.54814.0737.31087.47553-.22908zm92.79412 1.65254-.23778.62178.23778-.0737zm-90.03932 2.11885.22959.94082 1.02485.31088v-.39269l.71329-.0737zm86.25968 6.52023-.46733.0737-.55752 2.437941.16396.54811 1.01666.39271zm2.44324 5.415771-1.4184 1.09627.47553 2.12703-.39354.15543h-.16398v.46631l.47553.55633.0819.15542h.39353v-.39268l.39355-.15546-.0819.94082.54931-.39268.31974-.62994h.86089l-.23778-.54812.86908.15543.54932-.54811.15577.31086v-.54813l-.39354.39271-.22957-.23723.31157-.46633-.31157.0737-.39352.23727v.39268l-.39356-.23724-.39353.4745v.23726l-.55752.0736-.46734-.54811.54932-2.04522-.54932-.46635zm3.61566 2.35613-.62309.70357.7051.0817.0819.31085.6231-.39266-.39353-.70357zm.16398 1.09622-.5575.39269.16397.31907.6231.23726-.0739-.23726.23778-.15546zm-1.65616.39269.0819.62992.22957-.54811h.47553zm2.91057.16361-.6313.22907.16397.5563-.55751.54814v.39268l-.31154.23725-.47553 1.01446.0819-.46635-.39354.15545-.86907 1.4153-.15577.85901h.23776l.31155-1.01445.71329-.31904.15578-.54813.47553-.15543v.859l.78709-.3927.15577-.39266.15577.31904.23777-.54813-.39354-.23726.23777-.71172.46733.31906-.0737-.3927.31156-.62992-.31156-.70355-.31976.15542zm-1.9677.22907-.23777 1.34169-.0737.62175.15577-.62175.23778-.62994zm-.78708.47451-.23778.31087-.86088.3927.31157 1.02259.78709-1.41529zm-1.64797.0817-1.10683.54815.47553.0737.46734.31904.23776-.23725zm2.98436 0-.31155.22909-.0819.23722-.15577.31909.23776-.0817.39354-.5481zm-.86086.22909-.31976.0817-.15577.94082-.0739.23724-.31974.31088.71329.16361.15577-.47449-.15577-.39268zm-13.14269 1.17804-1.57417 1.02262-.39355.9408.54932.55631.54931-.16362.7051-.85901.39355-1.25986zm-59.26917 1.02262-1.18064.15544h.78708zm68.86997.39268.0737.54812h-.22957l.15578.31905-.39355.70356-1.18063 2.35613.6313-.94082.54933-1.33347.0412-.0817h.0328v-.0737l.71328-1.02263zm3.06636 1.33351-.23778.23722v.23725zm-2.51703 3.22327-.7871.39269-.39354.3927v-.31089l-.39354.3927.15578-.47451h-.63131l-.22956.54811-.0819-.31086-.70509 1.64438-.47553.4745h.23775l-.15578.39267-1.3446 1.09626-.78709 1.65251-1.57417 1.33352-.22957 1.02263-1.26261.54809-.31154-.0736-.7133 1.01443v.5563h.39354l-.15577.39269.47553-.16365-.39356.16365h.46733l-.23778.31087.55755-.47452.22955.94901 1.4184-1.0226.15579.31086 1.18061-1.02261.55752-.31087v.15544l.86088-.62995v.3927l.39354-.31089 1.26263-1.41528-.15578-.0737.15578-.0817.31154-.62995-.39352.0817.54931-.78539.16396-.0817.62311-.78537-.0737-.46632.46732-.86718-.15577-.0817.47553-.15542.54933-.54815-1.02486.23727-.15577-.0817.31154-.39271-1.01664-.0737.7051-.55629-.39356-.0737 1.02486-.9408-.39354-.0817zm-10.46989 8.09095-.23776.3109.16396.15543.22957-.3927zm-17.47166.3109-.23776.31905.23776.22906zm24.48164 2.43789-.63131.3927-.47553.3109.47553-.0737zm-1.3446.3927-1.3364.85901.7133-.31089zm.16397.15545-1.18062.86717-.47553-.0817-1.4922.70356-.63129.71175-1.50039.78536-.62312.0737-2.28744 1.10443-.31157.39268-.63132.46632 1.33641-.54812-.15577.23725 1.49219-.62995 1.02484-.62992 1.81193-.85901 3.14835-1.88978.54932-.3109zm-9.60901.70356-.39354.31906.23777-.0817.15577.0817zm3.86164.47449-.63131.23723-.0819.3927.39354-.23724zm-16.29102.15542.15577.23727.15578-.23727zm4.48475 0-2.59903.62995.39354.54812 1.57417.15545 1.02486.5563 1.18061-.0817.39356.86717.94287.0737.39354.0817 1.3364.78538h3.14834v-.15546l.6313-.23724.15579-.23725h.39354l.54933-1.65255-.46734-.22905-.78709.31086-.15577.31087.15577-.39268-.39354.16362-.15579-.55631-1.18061.39269.54931-.85899h-.47551l-.70511.54811.46734-.39267-.1722-.0574.0983-.0247-.31976-.0737-.31155.0737-.0819.16364.37713-.0901-.37713.16361-1.49219-.31086-.15578.39267-1.02484-.31905-.31156-.0737-1.81194.0737.15577-.31087zm8.42016.15545-.54931.0817-.0819.15544zm1.09866.23725-.78709.39268-.22958.39269.70511-.31085.15579.31085.78707-.31085.15578-.31908-.54933.16361zm-4.165.0817.0737.23725.23775-.23725zm-25.97383.39271-.31976.0737.54932.16363-.46732-.0817-.0819.31088-.15577 1.02263-.15578-.15546.39355.86722.31154.70353 1.33642-.23723.63131-.70357-.63131-1.0226zm18.96384 1.41528-.31154.0737h.94287zm1.57418.3109-.31155.15541.39354.15545.54931.0817v-.31085zm1.81194.94079-.39355.23725.70509.0817zm1.3364.47449.31976.23723v-.23723z"/>
</svg>