<svg width="100%" height="100%" viewBox="0 0 898 898" fill="none" xmlns="http://www.w3.org/2000/svg">
<circle cx="449.05" cy="448.05" r="448.05" fill="white"/>
<path fill-rule="evenodd" clip-rule="evenodd" d="M207.8 734.1L201 728.7C202.667 726.3 203.367 724.033 203.1 721.9C202.9 719.833 201.833 717.866 199.9 716C197.833 714 195.867 712.933 194 712.8C192.067 712.6 190.567 713.1 189.5 714.3C188.767 715.033 188.367 715.9 188.3 716.9C188.233 717.833 188.533 719.033 189.2 720.5C189.733 721.433 191 723.533 193 726.8C195.667 731 197.067 734.366 197.2 736.9C197.467 740.566 196.4 743.666 194 746.2C192.4 747.8 190.467 748.866 188.2 749.4C185.933 749.866 183.6 749.666 181.2 748.8C178.733 747.8 176.3 746.133 173.9 743.8C169.9 739.933 167.733 736.166 167.4 732.5C167.067 728.833 168.267 725.466 171 722.4L177.6 728.4C176.333 730.266 175.8 732 176 733.6C176.2 735.2 177.2 736.866 179 738.6C180.867 740.4 182.7 741.4 184.5 741.6C185.633 741.8 186.6 741.5 187.4 740.7C188.133 739.9 188.467 738.933 188.4 737.8C188.2 736.333 186.9 733.733 184.5 730C182.1 726.266 180.533 723.266 179.8 721C179.067 718.8 178.933 716.6 179.4 714.4C179.867 712.2 181.067 710.1 183 708.1C184.8 706.3 186.967 705.1 189.5 704.5C192.033 703.9 194.6 704.1 197.2 705.1C199.8 706.1 202.467 707.933 205.2 710.6C209.2 714.466 211.4 718.366 211.8 722.3C212.133 726.233 210.8 730.166 207.8 734.1ZM177.6 683.5L149.5 707.1L158 717.1L152.2 721.9L129.7 695L135.4 690.2L143.8 700.2L171.9 676.6L177.6 683.5ZM138.3 629.3L143.4 637.5L137 646.1L146.3 661.1L156.8 658.8L161.8 666.8L115.2 675.7L110.2 667.7L138.3 629.3ZM132.2 652.4L121.5 666.3L138.6 662.7L132.2 652.4ZM133.7 621.3L94.4 641.4L90.4 633.7L108.5 604.2L82.2 617.6L78.5 610.2L117.8 590.1L121.9 598.1L104.3 627L130 614L133.7 621.3ZM71.3 591L66.3 575.5C65.1667 571.966 64.5667 569.2 64.5 567.2C64.4333 564.533 65.0333 562 66.3 559.6C67.5667 557.266 69.4 555.2 71.8 553.4C74.2 551.6 77.3667 550.066 81.3 548.8C84.7667 547.666 87.8667 547.133 90.6 547.2C94 547.266 96.9667 547.966 99.5 549.3C101.433 550.3 103.2 551.9 104.8 554.1C106 555.833 107.1 558.266 108.1 561.4L113.3 577.3L71.3 591ZM75.7 580.2L103.5 571.2L101.4 564.9C100.667 562.5 99.9667 560.833 99.3 559.9C98.5667 558.633 97.6333 557.666 96.5 557C95.3667 556.4 93.7667 556.1 91.7 556.1C89.6333 556.166 86.9667 556.7 83.7 557.7C80.5 558.766 78.1 559.866 76.5 561C74.9667 562.133 73.9 563.4 73.3 564.8C72.6333 566.133 72.4 567.633 72.6 569.3C72.6667 570.566 73.2667 572.933 74.4 576.4L75.7 580.2ZM91.5 491.7L93.2 501.3L84 506.8L87.1 524.2L97.6 526L99.2 535.4L52.8 526.1L51.1 516.8L91.5 491.7ZM77.2 510.9L62.1 519.7L79.3 522.8L77.2 510.9ZM90.4 482.7L46.3 483.4L45.9 464.7C45.8333 459.966 46.2 456.533 47 454.4C47.7333 452.2 49.1 450.466 51.1 449.2C53.1 447.866 55.4 447.166 58 447.1C61.3333 447.033 64.1 447.966 66.3 449.9C68.5 451.833 69.9 454.733 70.5 458.6C71.5667 456.6 72.7667 454.966 74.1 453.7C75.4333 452.433 77.8 450.7 81.2 448.5L89.7 443L89.9 453.6L80.4 460.3C77 462.633 74.8667 464.233 74 465.1C73.1333 465.9 72.5333 466.8 72.2 467.8C71.8667 468.733 71.7333 470.233 71.8 472.3V474.1L90.3 473.8L90.4 482.7ZM64.7 474.2L64.6 467.6C64.5333 463.333 64.3 460.666 63.9 459.6C63.5667 458.533 62.9333 457.7 62 457.1C61.1333 456.5 60.0333 456.233 58.7 456.3C57.2333 456.3 56.0333 456.7 55.1 457.5C54.2333 458.3 53.6667 459.433 53.4 460.9C53.3333 461.633 53.3333 463.8 53.4 467.4L53.5 474.4L64.7 474.2ZM45.5 430.1L46.9 413.9C47.2333 410.233 47.7667 407.466 48.5 405.6C49.5 403.066 51.0667 401 53.2 399.4C55.2667 397.666 57.7333 396.466 60.6 395.8C63.5333 395.066 67.0667 394.866 71.2 395.2C74.8 395.533 77.8667 396.266 80.4 397.4C83.5333 398.8 86 400.6 87.8 402.8C89.1333 404.466 90.1 406.633 90.7 409.3C91.1667 411.366 91.2667 414.033 91 417.3L89.5 434L45.5 430.1ZM53.7 421.9L82.9 424.4L83.4 417.8C83.6667 415.333 83.7 413.533 83.5 412.4C83.2333 410.933 82.7333 409.666 82 408.6C81.2 407.6 79.8333 406.7 77.9 405.9C76.0333 405.166 73.3667 404.633 69.9 404.3C66.5667 404.033 63.9333 404.1 62 404.5C60.1333 404.966 58.6667 405.7 57.6 406.7C56.4667 407.7 55.6333 409 55.1 410.6C54.7 411.8 54.3667 414.233 54.1 417.9L53.7 421.9ZM101.9 352.1L60.1 337.7L63 329.3L79.5 335L85.2 318.4L68.7 312.8L71.6 304.4L113.4 318.7L110.5 327.2L92.2 320.9L86.5 337.4L104.8 343.7L101.9 352.1ZM135.9 271L131.4 279.5L120.7 278.2L112.4 293.8L119.6 301.7L115.1 310.1L84.2 274.2L88.7 265.8L135.9 271ZM112.7 277.3L95.4 275L107.1 288L112.7 277.3ZM140.3 263L103.6 239.1L108.4 231.6L138.9 251.4L151 232.9L157.2 236.9L140.3 263ZM189.5 198.4L183.1 205.7L173 202L161.4 215.3L166.6 224.7L160.4 231.8L138.4 189.9L144.6 182.8L189.5 198.4ZM165.5 199.3L149.1 193.1L157.6 208.4L165.5 199.3ZM196.4 192.2L166.6 160.1L173.1 154.1L197.9 180.6L214.1 165.5L219.2 171L196.4 192.2Z" fill="#2C7852"/>
<path fill-rule="evenodd" clip-rule="evenodd" d="M255.301 94.0996L284.701 79.0996L288.101 85.6996L266.601 96.5996L271.301 105.8L281.901 100.3C284.834 98.833 287.467 97.9663 289.801 97.6996C292.067 97.433 294.367 97.8996 296.701 99.0996C299.101 100.366 300.934 102.3 302.201 104.9C303.601 107.566 304.101 110.2 303.701 112.8C303.301 115.4 302.367 117.5 300.901 119.1C299.501 120.7 297.167 122.333 293.901 124L275.401 133.4L255.301 94.0996ZM279.901 122.8L287.601 118.9C290.067 117.633 291.734 116.633 292.601 115.9C293.534 115.1 294.134 114.1 294.401 112.9C294.734 111.633 294.567 110.366 293.901 109.1C292.967 107.3 291.634 106.3 289.901 106.1C288.234 105.966 285.834 106.7 282.701 108.3L274.601 112.4L279.901 122.8ZM318.701 113.2L305.101 71.1996L336.201 61.0996L338.501 68.1996L315.901 75.5996L318.901 84.8997L340.001 77.9996L342.301 85.0996L321.201 91.8997L324.901 103.4L348.401 95.7996L350.701 102.8L318.701 113.2ZM356.801 54.9996L387.301 49.5996L395.001 93.0996L386.201 94.6996L379.801 58.4996L366.701 60.8997L370.001 79.3997C370.934 84.733 371.401 88.4663 371.401 90.5996C371.401 92.7996 370.834 94.5996 369.701 95.9996C368.567 97.4663 366.534 98.433 363.601 98.8997C362.534 99.0997 360.634 99.3329 357.901 99.5996L356.701 92.7996L358.701 92.4996C360.501 92.1663 361.667 91.6996 362.201 91.0996C362.801 90.4996 362.901 89.233 362.501 87.2996L361.201 79.7996L356.801 54.9996ZM447.701 88.6996L438.001 89.3997L433.501 79.6996L415.901 80.8997L412.901 91.1996L403.501 91.7996L417.601 46.5996L427.001 45.8997L447.701 88.6996ZM430.101 72.3997L422.901 56.4996L418.101 73.2996L430.101 72.3997ZM456.401 89.5996L459.501 45.5996L473.701 46.5996C479.101 46.9329 482.601 47.3996 484.201 47.9996C486.734 48.7996 488.767 50.3663 490.301 52.6996C491.834 55.033 492.467 57.9663 492.201 61.4996C492.067 64.1663 491.434 66.3996 490.301 68.1996C489.167 69.933 487.801 71.2996 486.201 72.2996C484.667 73.233 483.101 73.7996 481.501 73.9996C479.367 74.2663 476.267 74.2663 472.201 73.9996L466.401 73.5996L465.301 90.1996L456.401 89.5996ZM467.801 53.6996L466.901 66.0996L471.801 66.4996C475.334 66.7663 477.701 66.6996 478.901 66.2996C480.101 65.8996 481.067 65.233 481.801 64.2996C482.534 63.3663 482.967 62.2663 483.101 60.9996C483.167 59.3996 482.767 58.033 481.901 56.8997C481.034 55.7663 479.901 55.033 478.501 54.6996C477.434 54.433 475.301 54.1996 472.101 53.9996L467.801 53.6996ZM503.801 48.8997L513.601 50.5996L519.801 74.9996L532.401 53.9996L541.501 55.5996L521.001 85.9996C518.801 89.333 516.701 91.7663 514.701 93.2996C512.701 94.8996 510.401 95.4663 507.801 94.9996C505.201 94.533 503.201 93.9997 501.801 93.3997L502.901 86.8997C504.167 87.233 505.301 87.4663 506.301 87.5996C508.367 87.9996 509.901 87.8996 510.901 87.2996C511.901 86.6996 513.034 85.233 514.301 82.8997L503.801 48.8997ZM573.901 95.0996L581.201 100.4C578.467 104.533 575.267 107.266 571.601 108.6C568.001 109.866 563.934 109.766 559.401 108.3C553.801 106.433 549.834 103.033 547.501 98.0996C545.167 93.0996 545.067 87.2996 547.201 80.6996C549.467 73.6996 553.034 68.8663 557.901 66.1996C562.767 63.4663 568.134 63.0663 574.001 64.9996C579.134 66.6663 582.834 69.5329 585.101 73.5996C586.434 76.0663 587.034 79.133 586.901 82.7996L577.801 81.9996C578.001 79.6663 577.534 77.633 576.401 75.8997C575.201 74.0997 573.467 72.8329 571.201 72.0996C568.134 71.0996 565.267 71.3996 562.601 72.9996C559.934 74.5996 557.801 77.8997 556.201 82.8997C554.467 88.233 554.167 92.333 555.301 95.1996C556.501 98.0663 558.634 99.9996 561.701 101C563.967 101.733 566.134 101.633 568.201 100.7C570.267 99.833 572.167 97.9663 573.901 95.0996ZM607.901 77.9996L615.801 82.0996L607.801 97.7996L618.501 103.2C623.501 105.733 626.501 108.766 627.501 112.3C628.567 115.766 628.267 119.133 626.601 122.4C625.267 125.066 623.434 127 621.101 128.2C618.767 129.4 616.567 129.9 614.501 129.7C612.434 129.433 609.734 128.466 606.401 126.8L587.901 117.4L607.901 77.9996ZM599.101 114.7L606.801 118.7C609.334 119.966 611.134 120.733 612.201 121C613.334 121.2 614.501 121.066 615.701 120.6C616.901 120.133 617.801 119.3 618.401 118.1C619.334 116.233 619.367 114.566 618.501 113.1C617.634 111.566 615.634 110 612.501 108.4L604.401 104.3L599.101 114.7Z" fill="#2C7852"/>
<path fill-rule="evenodd" clip-rule="evenodd" d="M448.1 1.09961V1.19965C571.8 1.19965 683.8 51.2997 764.8 132.4C845.9 213.4 896 325.4 896 449.1H896.1V449.2H896C896 572.9 845.9 684.9 764.8 765.9C683.8 847 571.8 897.1 448.1 897.1V897.2H448V897.1C324.3 897.1 212.3 847 131.3 765.9C50.2 684.9 0.100006 572.9 0.100006 449.2H0V449.1H0.100006C0.100006 325.4 50.2 213.4 131.3 132.4C212.3 51.2997 324.3 1.19965 448 1.19965V1.09961H448.1ZM448.1 19.1996C329.4 19.1996 222 67.3996 144.2 145.2C66.4 223 18.2 330.5 18.2 449.1V449.2C18.2 567.8 66.4 675.3 144.2 753.1C222 830.9 329.5 879.1 448.1 879.1C566.8 879.1 674.3 830.9 752.1 753.1C829.9 675.3 878 567.8 878 449.2V449.1C878 330.5 829.9 223 752.1 145.2C674.3 67.3996 566.8 19.1996 448.1 19.1996Z" fill="#2C7852"/>
<path d="M243.5 785.099C236.833 784.433 233.2 780.766 232.6 774.099C233.2 767.433 236.833 763.799 243.5 763.199C250.166 763.799 253.833 767.433 254.5 774.099C253.833 780.766 250.166 784.433 243.5 785.099Z" fill="#2C7852"/>
<path d="M167 345.9L189.8 368.7L212.6 345.9L189.8 323.1L167 345.9Z" fill="#2C7852"/>
<path d="M192.799 320L215.599 342.8L238.399 320L215.599 297.2L192.799 320Z" fill="#2C7852"/>
<path d="M192.799 371.699L215.599 394.499L238.399 371.699L215.599 348.899L192.799 371.699Z" fill="#2C7852"/>
<path d="M218.699 345.9L241.499 368.7L264.299 345.9L241.499 323.1L218.699 345.9Z" fill="#2C7852"/>
<path d="M218.699 397.5L241.499 420.3L264.299 397.5L241.499 374.7L218.699 397.5Z" fill="#2C7852"/>
<path d="M244.5 371.699L267.3 394.499L290 371.799V371.499L267.3 348.899L244.5 371.699Z" fill="#2C7852"/>
<path d="M244.5 423.3L267.3 446.1L290 423.5V423.2L267.3 400.5L244.5 423.3Z" fill="#2C7852"/>
<path d="M141.199 578.3L163.999 601.1L186.799 578.3L163.999 555.5L141.199 578.3Z" fill="#2C7852"/>
<path d="M167 552.5L189.8 575.3L212.6 552.5L189.8 529.6L167 552.5Z" fill="#2C7852"/>
<path d="M192.799 526.6L215.599 549.4L238.399 526.6L215.599 503.8L192.799 526.6Z" fill="#2C7852"/>
<path d="M218.699 500.8L241.499 523.6L264.299 500.8L241.499 478L218.699 500.8Z" fill="#2C7852"/>
<path d="M244.5 475L267.3 497.8L290 475.1V474.8L267.3 452.2L244.5 475Z" fill="#2C7852"/>
<path d="M192.799 578.3L215.599 601.1L238.399 578.3L215.599 555.5L192.799 578.3Z" fill="#2C7852"/>
<path d="M218.699 552.5L241.499 575.3L264.299 552.5L241.499 529.6L218.699 552.5Z" fill="#2C7852"/>
<path d="M244.5 526.6L267.3 549.4L290 526.8V526.5L267.3 503.8L244.5 526.6Z" fill="#2C7852"/>
<path d="M141.199 320L163.999 342.8L186.799 320L163.999 297.2L141.199 320Z" fill="#2C7852"/>
<path d="M344.8 168.1L367.6 190.9L344.8 213.7L322 190.9L344.8 168.1Z" fill="#2C7852"/>
<path d="M318.9 193.899L341.7 216.699L318.9 239.499L296.1 216.699L318.9 193.899Z" fill="#2C7852"/>
<path d="M370.599 193.899L393.399 216.699L370.599 239.499L347.799 216.699L370.599 193.899Z" fill="#2C7852"/>
<path d="M344.8 219.8L367.6 242.6L344.8 265.4L322 242.6L344.8 219.8Z" fill="#2C7852"/>
<path d="M396.4 219.8L419.2 242.6L396.4 265.4L373.6 242.6L396.4 219.8Z" fill="#2C7852"/>
<path d="M370.599 245.6L393.399 268.4L370.699 291.1H370.399L347.799 268.4L370.599 245.6Z" fill="#2C7852"/>
<path d="M422.198 245.6L444.998 268.4L422.398 291.1H422.098L399.398 268.4L422.198 245.6Z" fill="#2C7852"/>
<path d="M577.198 142.3L599.998 165.1L577.198 187.9L554.398 165.1L577.198 142.3Z" fill="#2C7852"/>
<path d="M551.4 168.1L574.2 190.9L551.4 213.7L528.6 190.9L551.4 168.1Z" fill="#2C7852"/>
<path d="M525.499 193.899L548.299 216.699L525.499 239.499L502.699 216.699L525.499 193.899Z" fill="#2C7852"/>
<path d="M499.698 219.8L522.498 242.6L499.698 265.4L476.898 242.6L499.698 219.8Z" fill="#2C7852"/>
<path d="M473.9 245.6L496.7 268.4L474 291.1H473.7L451.1 268.4L473.9 245.6Z" fill="#2C7852"/>
<path d="M577.198 193.899L599.998 216.699L577.198 239.499L554.398 216.699L577.198 193.899Z" fill="#2C7852"/>
<path d="M551.4 219.8L574.2 242.6L551.4 265.4L528.6 242.6L551.4 219.8Z" fill="#2C7852"/>
<path d="M525.499 245.6L548.299 268.4L525.699 291.1H525.399L502.699 268.4L525.499 245.6Z" fill="#2C7852"/>
<path d="M318.9 142.3L341.7 165.1L318.9 187.9L296.1 165.1L318.9 142.3Z" fill="#2C7852"/>
<path d="M729.1 552.4L706.3 529.6L683.5 552.5L706.3 575.3L729.1 552.4Z" fill="#2C7852"/>
<path d="M703.299 578.3L680.499 555.5L657.699 578.3L680.499 601.1L703.299 578.3Z" fill="#2C7852"/>
<path d="M703.299 526.6L680.499 503.8L657.699 526.6L680.499 549.4L703.299 526.6Z" fill="#2C7852"/>
<path d="M677.399 552.4L654.599 529.6L631.799 552.5L654.599 575.3L677.399 552.4Z" fill="#2C7852"/>
<path d="M677.399 500.8L654.599 478L631.799 500.8L654.599 523.6L677.399 500.8Z" fill="#2C7852"/>
<path d="M651.599 526.6L628.799 503.8L606.199 526.5V526.8L628.799 549.4L651.599 526.6Z" fill="#2C7852"/>
<path d="M651.599 475L628.799 452.2L606.199 474.8V475.1L628.799 497.8L651.599 475Z" fill="#2C7852"/>
<path d="M754.899 320L732.099 297.2L709.299 320L732.099 342.8L754.899 320Z" fill="#2C7852"/>
<path d="M729.1 345.9L706.3 323.1L683.5 345.9L706.3 368.7L729.1 345.9Z" fill="#2C7852"/>
<path d="M703.299 371.699L680.499 348.899L657.699 371.699L680.499 394.499L703.299 371.699Z" fill="#2C7852"/>
<path d="M677.399 397.5L654.599 374.7L631.799 397.5L654.599 420.3L677.399 397.5Z" fill="#2C7852"/>
<path d="M651.599 423.3L628.799 400.5L606.199 423.2V423.5L628.799 446.1L651.599 423.3Z" fill="#2C7852"/>
<path d="M703.299 320L680.499 297.2L657.699 320L680.499 342.8L703.299 320Z" fill="#2C7852"/>
<path d="M677.499 345.9L654.599 323.1L631.799 345.9L654.599 368.7L677.499 345.9Z" fill="#2C7852"/>
<path d="M651.599 371.699L628.799 348.899L606.199 371.599V371.799L628.799 394.499L651.599 371.699Z" fill="#2C7852"/>
<path d="M754.899 578.3L732.099 555.5L709.299 578.3L732.099 601.1L754.899 578.3Z" fill="#2C7852"/>
<path d="M551.3 730.2L528.5 707.4L551.4 684.6L574.2 707.4L551.3 730.2Z" fill="#2C7852"/>
<path d="M577.198 704.4L554.398 681.6L577.198 658.8L599.998 681.6L577.198 704.4Z" fill="#2C7852"/>
<path d="M525.499 704.4L502.699 681.6L525.499 658.8L548.299 681.6L525.499 704.4Z" fill="#2C7852"/>
<path d="M551.3 678.599L528.5 655.799L551.4 632.899L574.2 655.699L551.3 678.599Z" fill="#2C7852"/>
<path d="M499.698 678.599L476.898 655.799L499.698 632.899L522.498 655.699L499.698 678.599Z" fill="#2C7852"/>
<path d="M525.499 652.7L502.699 629.9L525.399 607.3H525.699L548.299 629.9L525.499 652.7Z" fill="#2C7852"/>
<path d="M473.9 652.7L451.1 629.9L473.8 607.3H474L496.7 629.9L473.9 652.7Z" fill="#2C7852"/>
<path d="M318.9 755.999L296.1 733.199L318.9 710.399L341.7 733.199L318.9 755.999Z" fill="#2C7852"/>
<path d="M344.8 730.2L322 707.4L344.8 684.6L367.6 707.4L344.8 730.2Z" fill="#2C7852"/>
<path d="M370.599 704.4L347.799 681.6L370.599 658.8L393.399 681.6L370.599 704.4Z" fill="#2C7852"/>
<path d="M396.4 678.599L373.6 655.699L396.4 632.899L419.2 655.699L396.4 678.599Z" fill="#2C7852"/>
<path d="M422.198 652.7L399.398 629.9L422.098 607.3H422.398L444.998 629.9L422.198 652.7Z" fill="#2C7852"/>
<path d="M318.9 704.4L296.1 681.6L318.9 658.8L341.7 681.6L318.9 704.4Z" fill="#2C7852"/>
<path d="M344.8 678.599L322 655.799L344.8 632.899L367.6 655.699L344.8 678.599Z" fill="#2C7852"/>
<path d="M370.599 652.7L347.799 629.9L370.499 607.3H370.699L393.399 629.9L370.599 652.7Z" fill="#2C7852"/>
<path d="M577.198 755.999L554.398 733.199L577.198 710.399L599.998 733.199L577.198 755.999Z" fill="#2C7852"/>
<path d="M447.4 175.6L720.6 448.8L448.7 720.7L175.5 447.5L447.4 175.6Z" fill="#2C7852" stroke="white" stroke-width="6.8" stroke-miterlimit="100"/>
<path d="M448.101 312.899C485.701 312.899 519.801 328.199 544.401 352.799C569.001 377.499 584.301 411.499 584.301 449.099V449.199C584.301 486.799 569.001 520.899 544.401 545.499C519.801 570.099 485.701 585.399 448.101 585.399H448.001C410.401 585.399 376.301 570.099 351.701 545.499C327.101 520.899 311.801 486.799 311.801 449.199L311.901 446.299C311.901 445.199 311.901 444.299 311.901 443.499C312.101 440.099 314.901 437.499 318.301 437.599C321.301 437.799 323.801 440.099 324.101 442.999V443.099C325.001 450.399 326.601 457.499 328.901 464.299C331.101 470.999 334.101 477.399 337.601 483.499C355.801 514.699 389.701 535.699 428.401 535.699C457.301 535.699 483.601 523.899 502.601 504.899C521.601 485.899 533.301 459.699 533.301 430.699V430.499C533.301 422.699 532.501 414.999 530.801 407.599C529.201 400.299 526.701 393.199 523.601 386.499C507.601 352.199 473.601 327.899 433.801 325.899C430.401 325.699 427.801 322.799 428.001 319.499C428.101 316.399 430.501 313.999 433.401 313.699C435.801 313.433 438.234 313.233 440.701 313.099C443.367 312.966 445.834 312.899 448.101 312.899Z" fill="#2C7852"/>
<path d="M621.801 274.6V623.7H274.301V274.6H621.801Z" fill="#2C7852" stroke="white" stroke-width="7.8" stroke-miterlimit="100"/>
<path d="M610.401 286.1V612.2H285.801V286.1H610.401Z" fill="#2C7852" stroke="white" stroke-width="3.6" stroke-miterlimit="100"/>
<path fill-rule="evenodd" clip-rule="evenodd" d="M387.4 445.5C387.4 452.1 385.834 457.3 382.7 461.1C379.967 464.567 375.934 467.033 370.6 468.5C366.067 469.7 360.334 470.3 353.4 470.3C345.467 470.3 339.334 468.867 335 466C330.267 462.8 327.9 458 327.9 451.6C327.9 448.067 328.4 444.4 329.4 440.6C330.267 437.333 331.6 433.767 333.4 429.9C334.6 427.1 336.3 423.733 338.5 419.8L340.5 421C338.967 423.733 337.7 426.2 336.7 428.4C335.367 431.333 334.334 433.933 333.6 436.2C332.867 439 332.5 441.7 332.5 444.3C332.5 449.367 334.334 453.2 338 455.8C341.667 458.4 346.767 459.7 353.3 459.7C360.234 459.7 366.667 458.5 372.6 456.1C379.067 453.5 382.3 450.367 382.3 446.7C382.3 442.7 381.667 435.933 380.4 426.4C379.4 419.133 378.2 410.967 376.8 401.9L374.7 390L371.9 388.5C371.9 383 373 378 375.3 373.5H376.3C376.5 375.033 376.8 376.167 377.2 376.9C377.6 377.7 378.267 378.267 379.2 378.6C380.467 379.133 381.867 379.767 383.4 380.5C384.534 381.033 385.5 381.533 386.3 382C386.3 384.867 386.2 386.933 386 388.2C385.8 389.533 385.4 391.4 384.8 393.8L381.3 392.7C381.367 393.567 381.934 397.7 383 405.1C384.334 413.633 385.3 420.567 385.9 425.9C386.9 434.433 387.4 440.967 387.4 445.5ZM451 447.5C448.534 443.033 447.3 436.2 447.3 427C447.3 426.333 447.234 425.467 447.1 424.4C446.9 423.3 446.8 422.6 446.8 422.3C442.867 433.233 439.367 440.733 436.3 444.8C432.634 449.6 427.5 452.767 420.9 454.3C415.167 455.633 405.5 456.3 391.9 456.3V454.6C402.967 451.267 411.2 448.367 416.6 445.9C425.334 442.033 431.967 437.6 436.5 432.6C441.967 426.533 444.7 419.333 444.7 411C444.7 406.933 444.434 403.167 443.9 399.7C443.434 396.233 442.734 392.667 441.8 389L443.8 383.8C444.667 381.8 445.434 380.1 446.1 378.7C447.167 384.633 448.167 391 449.1 397.8C449.8 402.6 450.4 407.6 451 413C451.8 419.667 452.5 425.033 453.1 429.1C453.834 434.3 454.934 438 456.4 440.2C457.4 441.667 458.4 442.4 459.4 442.4H509C504.8 439.2 501.267 436.667 498.4 434.8C494.867 432.6 491.6 430.967 488.6 429.9C485.267 428.767 481.9 428.2 478.5 428.2C476.434 428.2 474.334 428.333 472.2 428.6C473.4 425.6 474.9 423.2 476.8 421.3C479.6 418.633 483.134 417.3 487.4 417.3C491.6 417.3 496.567 419.333 502.3 423.4C505.1 425.467 509.7 429.4 516.1 435.2C521.1 439.667 524.467 442.067 526.2 442.4H529.9V453.2H458.8V453.1C455.6 452.967 453 451.1 451 447.5ZM437.6 420.9C437.6 421.767 437.567 422.467 437.5 423C437.434 423.6 437.234 424.333 436.9 425.2C434.567 420.067 431.134 414.767 426.6 409.3C421.6 403.233 417.667 400.2 414.8 400.2C414.2 400.2 413.6 400.733 413 401.8C412.334 402.867 411.6 403.4 410.8 403.4C409.667 403.4 407.934 402.7 405.6 401.3C402.6 399.5 400.2 397.4 398.4 395C395.934 391.8 394.734 388.4 394.8 384.8C394.8 382.2 395.634 380.9 397.3 380.9C400.234 380.9 404.834 382.767 411.1 386.5C418.167 390.633 424.067 395.467 428.8 401C434.667 407.8 437.6 414.433 437.6 420.9Z" fill="white"/>
<path d="M448.1 300.5C530.1 300.5 596.7 367.1 596.7 449.2C596.7 531.2 530.1 597.8 448.1 597.8C366 597.8 299.4 531.2 299.4 449.2C299.4 447.067 299.434 445 299.5 443C306.9 506 360.5 555 425.6 555C495.6 555 552.4 498.1 552.4 428.1C552.4 360.2 499.1 304.8 432.1 301.4C437.367 300.8 442.7 300.5 448.1 300.5Z" fill="white"/>
<path fill-rule="evenodd" clip-rule="evenodd" d="M697.901 168.7L702.801 176.4C698.667 179.2 694.667 180.533 690.801 180.4C686.934 180.2 683.2 178.566 679.6 175.5C675.067 171.7 672.667 167.066 672.401 161.6C672.067 156.133 674.134 150.733 678.6 145.4C683.334 139.733 688.467 136.566 694 135.9C699.467 135.233 704.567 136.9 709.301 140.9C713.434 144.366 715.767 148.4 716.301 153C716.634 155.733 716.067 158.766 714.6 162.1L706.5 158.1C707.567 156.033 707.867 153.933 707.401 151.8C707.001 149.733 705.9 147.933 704.1 146.4C701.567 144.333 698.767 143.533 695.7 144C692.634 144.466 689.434 146.733 686.1 150.8C682.5 155.066 680.7 158.766 680.7 161.9C680.7 164.966 681.934 167.533 684.401 169.6C686.201 171.133 688.234 171.866 690.5 171.8C692.767 171.733 695.234 170.7 697.901 168.7ZM708.5 201.3L734.901 175.9L725.801 166.4L731.2 161.2L755.5 186.5L750.2 191.7L741.1 182.3L714.7 207.8L708.5 201.3ZM751.401 255.1L745.7 247.2L751.5 238.2L741.1 223.9L730.901 226.9L725.301 219.2L771.1 207.2L776.7 214.8L751.401 255.1ZM755.901 231.6L765.5 217L748.801 221.8L755.901 231.6ZM755.801 263.4L794.801 242.7L799 250.6L783.7 258.7L791.901 274.1L807.2 266L811.401 273.9L772.401 294.6L768.2 286.7L785.301 277.7L777.1 262.2L760 271.3L755.801 263.4ZM820.401 294.1L831.901 322.4L797.801 336.2L799.301 339.8L783.5 346.2L780.7 339.3L789.6 335.7L779.2 309.9L770.301 313.5L767.5 306.6L783.301 300.3L784.7 303.7C788.9 303.966 793.4 303.433 798.2 302.1C803.067 300.833 809.034 298.766 816.1 295.9L820.401 294.1ZM816.7 304.7C804.3 309.766 794.8 312.3 788.2 312.3L794.401 327.9L821.6 316.9L816.7 304.7ZM803.1 391.9L800.901 382.5L809.801 376.5L805.801 359.3L795.2 358L793.1 348.8L840 355.6L842.1 364.8L803.1 391.9ZM816.5 372L831.1 362.3L813.7 360.2L816.5 372ZM804.1 401.4L848.1 397.5L849.301 411.8C849.767 417.2 849.867 420.733 849.6 422.4C849.134 424.933 847.867 427.166 845.801 429.1C843.734 430.966 840.967 432.066 837.5 432.4C834.767 432.6 832.467 432.3 830.6 431.5C828.667 430.7 827.101 429.566 825.901 428.1C824.701 426.7 823.867 425.233 823.401 423.7C822.801 421.633 822.334 418.6 822 414.6L821.5 408.8L804.901 410.2L804.1 401.4ZM841.401 407.1L828.901 408.2L829.301 413.1C829.634 416.566 830.067 418.866 830.6 420C831.2 421.133 832.034 422 833.1 422.6C834.1 423.2 835.267 423.433 836.6 423.3C838.2 423.166 839.467 422.6 840.401 421.6C841.334 420.533 841.867 419.266 842 417.8C842.134 416.733 842.067 414.6 841.801 411.4L841.401 407.1ZM806.6 456.4L843.2 457L843.5 443.9L850.901 444.1L850.301 479.1L842.901 479L843.1 466L806.401 465.3L806.6 456.4ZM802.801 505.5L822.2 525.1L845.7 516.1L843.5 526.3L827.801 532L839.901 543.4L837.7 553.5L819.6 535.6L794.301 545.7L796.5 535.2L813.5 528.8L800.6 516L802.801 505.5ZM777.301 591.9L780.801 582.8H791.5L797.801 566.3L789.801 559.3L793.2 550.5L828.2 582.4L824.901 591.2L777.301 591.9ZM799.401 582.8L816.901 583L803.801 571.6L799.401 582.8ZM810.5 624.2L796.5 651.8L757.1 631.7L761.2 623.8L793.901 640.4L799.901 628.6L783.1 620C778.3 617.6 775.034 615.733 773.301 614.4C771.567 613.133 770.467 611.6 770 609.8C769.6 608 770.067 605.766 771.401 603.1C771.867 602.233 772.8 600.6 774.2 598.2L780.401 601.3L779.5 603.1C778.634 604.766 778.267 606 778.401 606.8C778.601 607.6 779.567 608.433 781.301 609.3L788.1 612.8L810.5 624.2ZM734 665.2L749.1 675.7L750.1 674.3C751.7 671.966 752.5 670.1 752.5 668.7C752.5 667.233 751.567 664.166 749.7 659.5L745.5 648.7L751.6 640L755.6 649.3C757.2 653.033 758.2 655.8 758.6 657.6C759 659.4 759.101 661.4 758.901 663.6C761.767 660.6 764.634 659 767.5 658.8C770.367 658.533 773.067 659.3 775.6 661.1C777.8 662.633 779.367 664.566 780.301 666.9C781.234 669.166 781.334 671.433 780.6 673.7C779.934 675.9 778.334 678.8 775.801 682.4L765 697.8L728.901 672.5L734 665.2ZM764 686.2L768 680.5C770.067 677.633 771.334 675.7 771.801 674.7C772.334 673.633 772.434 672.533 772.1 671.4C771.834 670.2 771.101 669.166 769.901 668.3C768.634 667.433 767.4 667.033 766.2 667.1C765 667.233 763.967 667.733 763.1 668.6C762.234 669.466 760.734 671.4 758.6 674.4L754.901 679.8L764 686.2ZM749.5 715L728.401 737.6L696.1 707.5L702.2 701L729 726L738.1 716.3L724.301 703.4C720.367 699.733 717.734 697.033 716.401 695.3C715.067 693.633 714.434 691.866 714.5 690C714.567 688.2 715.634 686.2 717.7 684C718.367 683.2 719.734 681.866 721.801 680L726.801 684.7L725.401 686.2C724.134 687.533 723.467 688.6 723.401 689.4C723.334 690.266 724.034 691.366 725.5 692.7L731.1 697.8L749.5 715ZM713.2 751.1L706.301 756.7L695.1 743L685.901 750.5C681.501 754.033 677.501 755.566 673.901 755.1C670.301 754.633 667.334 752.966 665 750.1C663.134 747.766 662.134 745.3 662 742.7C661.8 740.1 662.234 737.9 663.301 736.1C664.367 734.3 666.334 732.233 669.2 729.9L685.401 716.8L713.2 751.1ZM683.1 728.2L676.401 733.6C674.201 735.4 672.767 736.733 672.1 737.6C671.434 738.466 671.067 739.566 671 740.9C670.934 742.166 671.367 743.333 672.301 744.4C673.567 746 675.067 746.7 676.801 746.5C678.534 746.366 680.767 745.166 683.5 742.9L690.5 737.2L683.1 728.2Z" fill="#2C7852"/>
<path fill-rule="evenodd" clip-rule="evenodd" d="M298.799 775.6L315.099 782.2C318.366 783.466 320.733 784.566 322.199 785.5C323.666 786.433 324.866 787.566 325.799 788.9C326.733 790.3 327.299 791.866 327.499 793.6C327.766 795.4 327.566 797.166 326.899 798.9C326.099 800.833 324.866 802.4 323.199 803.6C321.533 804.733 319.633 805.366 317.499 805.5C319.699 807.233 321.133 809.233 321.799 811.5C322.399 813.766 322.233 816.1 321.299 818.5C320.566 820.366 319.399 822 317.799 823.4C316.199 824.8 314.466 825.733 312.599 826.2C310.666 826.6 308.533 826.5 306.199 825.9C304.799 825.5 301.433 824.233 296.099 822.1L282.199 816.5L298.799 775.6ZM304.299 785.7L300.499 795.2L305.899 797.4C309.166 798.666 311.199 799.433 311.999 799.7C313.466 800.1 314.766 800.066 315.899 799.6C317.033 799.066 317.866 798.166 318.399 796.9C318.933 795.633 318.999 794.466 318.599 793.4C318.199 792.266 317.366 791.366 316.099 790.7C315.299 790.233 312.966 789.233 309.099 787.7L304.299 785.7ZM297.699 801.9L293.299 812.9L300.899 816C303.899 817.2 305.833 817.866 306.699 818C308.033 818.266 309.266 818.133 310.399 817.6C311.466 817.066 312.299 816.066 312.899 814.6C313.433 813.333 313.566 812.166 313.299 811.1C313.033 809.966 312.433 809 311.499 808.2C310.499 807.333 308.133 806.133 304.399 804.6L297.699 801.9ZM332.699 835.6L343.299 792.7L375.099 800.7L373.299 807.9L350.199 802.1L347.799 811.6L369.299 817L367.499 824.2L345.999 818.8L343.099 830.5L366.999 836.5L365.199 843.7L332.699 835.6ZM382.399 846.8L387.799 803.3L396.599 804.4L392.199 840.5L414.199 843.2L413.299 850.6L382.399 846.8ZM468.499 852.7L458.799 852.4L455.299 842.2L437.599 841.6L433.699 851.5L424.199 851.1L442.899 807.6L452.399 808L468.499 852.7ZM452.699 834.6L447.099 818L440.599 834.2L452.699 834.6ZM482.699 850.5L477.299 806.7L495.999 804.4C500.666 803.866 504.099 803.866 506.299 804.4C508.499 804.866 510.366 806.033 511.899 807.9C513.433 809.766 514.366 812 514.699 814.6C515.099 817.866 514.466 820.7 512.799 823.1C511.133 825.5 508.399 827.2 504.599 828.2C506.666 829.066 508.399 830.1 509.799 831.3C511.199 832.5 513.166 834.666 515.699 837.8L522.099 845.7L511.499 847L503.999 838.2C501.266 835.133 499.433 833.2 498.499 832.4C497.566 831.6 496.599 831.1 495.599 830.9C494.666 830.7 493.166 830.7 491.099 830.9L489.299 831.2L491.599 849.4L482.699 850.5ZM488.399 824.2L494.999 823.4C499.199 822.866 501.833 822.366 502.899 821.9C503.899 821.366 504.633 820.633 505.099 819.7C505.566 818.766 505.733 817.633 505.599 816.3C505.399 814.833 504.866 813.7 503.999 812.9C503.066 812.1 501.866 811.666 500.399 811.6C499.666 811.6 497.533 811.8 493.999 812.2L487.099 813.1L488.399 824.2ZM524.199 800L532.799 797.6L539.399 820.6C540.399 824.2 541.166 826.533 541.699 827.6C542.566 829.2 543.833 830.333 545.499 831C547.233 831.666 549.299 831.633 551.699 830.9C554.099 830.233 555.766 829.233 556.699 827.9C557.699 826.566 558.099 825.133 557.899 823.6C557.766 822.066 557.199 819.633 556.199 816.3L549.499 792.8L558.099 790.3L564.399 812.6C565.866 817.733 566.666 821.4 566.799 823.6C566.999 825.866 566.666 827.9 565.799 829.7C564.999 831.5 563.666 833.133 561.799 834.6C559.999 836 557.399 837.2 553.999 838.2C549.933 839.333 546.733 839.733 544.399 839.4C541.999 839.066 539.999 838.333 538.399 837.2C536.733 836.066 535.466 834.733 534.599 833.2C533.333 830.933 532.033 827.433 530.699 822.7L524.199 800ZM580.299 814.1L588.099 810C589.633 812.533 591.399 814.133 593.399 814.8C595.399 815.466 597.666 815.3 600.199 814.3C602.866 813.166 604.633 811.766 605.499 810.1C606.366 808.433 606.499 806.866 605.899 805.4C605.499 804.4 604.899 803.666 604.099 803.2C603.233 802.8 601.999 802.633 600.399 802.7C599.266 802.7 596.833 803 593.099 803.6C588.166 804.266 584.499 804.166 582.099 803.3C578.699 802.033 576.333 799.8 574.999 796.6C574.133 794.466 573.933 792.266 574.399 790C574.866 787.733 575.999 785.666 577.799 783.8C579.666 781.933 582.166 780.366 585.299 779.1C590.433 777.033 594.766 776.6 598.299 777.8C601.766 779 604.333 781.466 605.999 785.2L597.899 788.9C596.699 786.9 595.333 785.666 593.799 785.2C592.266 784.8 590.333 785.066 587.999 786C585.599 786.933 583.933 788.166 582.999 789.7C582.333 790.7 582.233 791.733 582.699 792.8C583.099 793.8 583.833 794.466 584.899 794.8C586.299 795.266 589.199 795.166 593.599 794.5C597.999 793.833 601.366 793.6 603.699 793.8C606.033 794.066 608.099 794.833 609.899 796.1C611.699 797.433 613.133 799.4 614.199 802C615.133 804.333 615.366 806.8 614.899 809.4C614.433 811.933 613.199 814.2 611.199 816.2C609.199 818.133 606.433 819.833 602.899 821.3C597.699 823.366 593.233 823.766 589.499 822.5C585.766 821.233 582.699 818.433 580.299 814.1Z" fill="#2C7852"/>
<path d="M646.1 786.099C639.433 785.499 635.766 781.833 635.1 775.099C635.766 768.433 639.433 764.799 646.1 764.199C652.766 764.799 656.4 768.433 657 775.099C656.4 781.833 652.766 785.499 646.1 786.099Z" fill="#2C7852"/>
<path d="M653.301 137.9C646.634 137.3 642.967 133.667 642.301 127C642.967 120.333 646.634 116.667 653.301 116C659.967 116.667 663.601 120.333 664.201 127C663.601 133.667 659.967 137.3 653.301 137.9Z" fill="#2C7852"/>
<path d="M233.4 145.4C226.733 144.8 223.1 141.167 222.5 134.5C223.1 127.767 226.733 124.1 233.4 123.5C240.067 124.1 243.7 127.767 244.3 134.5C243.7 141.167 240.067 144.8 233.4 145.4Z" fill="#2C7852"/>
</svg>
