<svg width="100%" height="100%" viewBox="0 0 200 202" fill="none" xmlns="http://www.w3.org/2000/svg">
<g clip-path="url(#clip0_238_2)">
<path d="M199.4 98.38C199.4 152.47 155.06 199.98 99.69 199.98C44.32 199.98 -0.0200195 155.45 -0.0200195 101.36C-0.0200195 47.27 44.32 0.76001 99.69 0.76001C155.06 0.76001 199.4 44.35 199.4 98.44V98.38Z" fill="url(#paint0_linear_238_2)"/>
<path d="M11.19 54.15C17.68 41.01 26.99 29.43 37.89 20.11C31.44 25.93 20.96 35.96 11.19 54.15Z" fill="#D66E22"/>
<path d="M198.2 80.81C190.99 49.28 168.89 20.97 140.73 8.41003C153.94 18.17 167.35 26.03 173.43 39.18C176.23 45.18 181.84 47.42 187.73 56.24C191.28 61.64 188.14 64.97 184.73 62.89C179.81 59.99 172.08 44.76 168.65 42.84C167.01 41.96 168.21 49.82 167.13 54.32C166.43 57.38 162.06 54.79 159.65 54.79C154 54.79 150.51 53.77 146.98 52.19C142.73 50.31 139.3 52.93 136.98 52.19C133.15 50.92 131.69 48.88 129.41 49.01C127.09 49.14 124 50.62 122.28 49.14C120.23 47.33 121.27 40.21 122.83 37.83C124.13 35.72 127.22 36.01 128.64 37.83C129.84 39.44 127.8 43.59 128.74 44.51C130.33 46.13 134.84 42.11 134.43 40.05C133.73 36.66 130.16 34.21 131.23 30.19C132.13 26.64 136.19 28.72 137.55 29.74C140.48 32.05 143.35 43.92 146.28 42.84C150.18 41.4 146.62 31.02 146.28 28.4C145.34 22.02 148.01 21.01 150.05 21.33C154.49 22.02 158.16 27.68 160.2 33.8C161.53 38.09 164.66 35.47 165.07 33.8C166.43 28.14 167.79 30.19 169.09 31.66C178.73 42.71 191.03 54.71 198.2 80.81Z" fill="#F49B39"/>
<path d="M32.12 30.81C37.77 23.82 43.51 17.61 49.41 13.46C40.4 18.17 30.89 27.06 24.82 33.96C27.14 33.4 29.58 33.96 32.12 30.81Z" fill="#D66E22"/>
<path d="M2.67999 125.7C6.32999 139.92 10.13 148.62 14.67 154.73C28.79 177.77 54.46 193.83 72.24 196.97C106.44 202.89 128.08 197.98 147.44 188.83C162.61 181.32 181.21 164.47 187.11 151.91C180.9 154.22 171.12 158.68 156.06 158.68C148.68 158.68 143.29 157.34 135.32 157.34C121.96 157.34 111.41 158.43 96.76 158.43C82.78 158.43 74.21 153.2 68.98 151.12C63.46 148.97 63.41 150.55 60.11 150.05C49.55 148.36 44.72 141.62 44.72 138.83C44.72 135.02 42.31 137.17 39.99 137.17C34.48 137.17 31.61 137.66 29.17 135.42C25.81 132.36 25.15 137 23.92 137.92C21.12 140.07 18.68 135.42 15.25 134.5C10.46 133.23 7.25999 128.29 2.67999 125.7Z" fill="url(#paint1_linear_238_2)"/>
<path d="M195.4 129.1C184.23 140.81 169.73 147.8 152.67 149.93C134.32 152.38 128.36 155.28 100.05 155.28C76.27 155.28 71.76 152.77 64.79 150.46C52.56 146.38 43.42 147.93 29.23 141.63C21.26 137.93 12.49 133.49 4.09998 127.11C7.86998 130.17 11.4 132.86 14.83 134.34C18.26 135.81 20.2 138.95 23.13 138.83C26.17 138.7 27.24 139.83 30.1 140.85C34.61 142.46 37.78 142.46 40.58 142.63C45.6 142.96 47.75 148.46 53.65 148.95C61.49 149.64 65.9 150.66 71.96 152.38C75.13 153.3 81.96 154.88 97.57 154.39C113.89 153.8 126.75 152.38 136.53 150.63C146 148.95 148.94 148.95 151.05 147.34C153.17 145.73 154.24 140.02 156.94 138.7C158.76 137.78 158.49 139.83 158.76 140.85C159.24 142.63 160.04 142.3 161.53 141.14C165.9 137.75 177.76 137.33 186.59 130.82C189.79 128.3 192.72 126.36 195.4 129.1Z" fill="url(#paint2_linear_238_2)"/>
<path d="M187.2 151.8C182.17 160.41 176.88 167.31 170.67 172.97C159.87 173.98 147.22 176.34 136.29 177.85C126.51 179.27 117.41 182.02 101.47 182.02C85.79 182.02 79.13 179.84 72.78 178.83C63.88 177.35 55.08 176.6 47.31 177.35C35.94 171.24 25.01 165.57 14.64 153.47C16.45 152.19 22.94 155.25 28.84 155.91C37.97 157.02 42.87 158.74 50.97 158.74C60.88 158.74 66.4 157.72 73.78 157.72C87.7 157.72 97.48 158.74 112.07 157.72C126.89 156.64 134.13 156.24 145.82 155.22C156 154.24 172.08 157.16 187.2 151.8Z" fill="url(#paint3_linear_238_2)"/>
<path opacity="0.4" d="M1.33002 109.2C3.15002 113.19 4.71002 113.88 9.09002 114.8L10.03 118.26L9.22002 120.98L12.29 130L14.27 128.99L11.79 120.29L11.86 116.14L7.11002 114.19L6.03002 109.28L5.33002 107.93L6.33002 96.62L15.1 83.97L15.81 77.11L13.07 76.22L7.78002 81.52L7.08002 86.23L6.10002 88.11L5.16002 86.64L6.43002 80.26L15.23 70.86L15.16 67.4L13.12 65.83L18.63 55.42L21.24 58.7201L21.17 62.12L23.68 61.2001L23.08 54.82L26.73 45.93L28.45 46.9501L24.21 56.68L26.76 56.03L31.27 46.75L36.26 35.71L39.93 32.2201L42.6 30.9L47.62 32.7201L50.95 28.22L48.12 26.74L44.92 28.22L41.82 27.2001L43.38 22.13L47.05 19.38L49.91 20.96L53.15 19.9401L54.15 12.05L58.77 12.61L61.97 9.02005L66.31 7.11005L71.66 7.32005L78.43 4.02005L81.99 3.61005L88.31 1.56005L99.75 1.43005L103.84 1.30005L112.01 2.19005L121.11 4.95005L131.73 7.03005L142.76 13.64L139.83 15.12L131.6 9.59005L125.98 6.37005L122.31 6.93005L129.95 11.52L127.77 17.21L124.53 14.15L121.07 12.71L118.75 15.15L118.19 22.15L120.3 25.5401L127.68 32.7901L128.72 37.12L133.88 38.87L131.67 41.7701L134.9 46.42L131.16 51.09L127.63 51.2201L127.46 54.05L132.62 55.0601L136.05 54.89L138.19 57.0401L143.09 56.0201L147.81 58.8101L150.74 59.5L159.04 64.43L156.21 69.63L149.24 75.72L145.67 75.03L144.44 80.26L140.51 83.32L141.01 87.81L136.79 90.16L139.11 94.18L143.1 96.8L145.71 109.03L153.48 113.72L151.3 116.2L144.67 112.18L141.74 107.68L138.61 107.27L134.37 102.78L131.27 95.19L127.24 89.66L121.86 89.26L119.16 91.41L122.09 92.68L129.26 92.93L128.12 95.19L118.92 96.18L113.76 97.65L111.44 97.09L110.37 96.62L108.71 97.62L109.62 102.09L107.96 103.94L104.43 100.09L102.11 103.15L103.93 106.34L108.95 107L111.13 112.43L109.15 112.12L101.38 108.73L95.32 117.27L90.03 113.02L91.07 107.82L94.07 106.11L95.62 100.22L89.03 96.2L89.09 92.21L95.05 95.11L97.13 93.03L88.06 88.92L81.71 88.26L77.13 76.95L71.07 76.19L72.85 83.22L73.79 87.5L71.98 92.7L72.82 95.11L69.15 98.04L63.32 97.12L58.81 95.11L61.13 88.22L57.46 83.32L51.01 85.14L49.71 94.39L52.65 101.03L53.05 107.74L49.62 106.13L43.31 98.64L37.96 101.16L35.71 105.72L37.01 113.15L39.59 115.63L38.78 123.49L37.61 128.69L40.16 135.43L35.71 133.61C30.93 132.03 24.93 126.04 23.63 120.97L22.21 112.12L17.38 110.04L20.31 107.32L14.41 101.66L10.17 93.7L7.72002 95.11L8.62002 109.23L1.33002 109.2Z" stroke="#85652D" stroke-width="1.213" stroke-miterlimit="10"/>
<path opacity="0.4" d="M6.09998 95.23C12.41 109.27 31.91 117.16 56.02 120.79C76.12 123.95 81.64 124.77 98.23 124.77C124.66 124.77 159.91 120.79 177.76 107.73C187.78 100.37 196.88 97.31 199.32 97.31" stroke="#85652D" stroke-width="1.213" stroke-miterlimit="10"/>
<path opacity="0.4" d="M1.73999 81.18C7.47999 71.11 22.96 64.61 40.32 69.51C50.47 72.61 57.06 77.98 72.12 79.76C85.14 81.37 87.22 80.13 97.84 80.13C115.46 79.31 120.91 75.92 130.69 74.23C141.75 72.28 151.16 75.44 157.06 72.28C164.31 68.39 171.99 56.46 174.53 56.21" stroke="#85652D" stroke-width="1.213" stroke-miterlimit="10"/>
<path opacity="0.4" d="M168.2 41.02L153.03 70.01L146.72 20.66L161.88 52.88" stroke="#85652D" stroke-width="1.213" stroke-miterlimit="10"/>
<path opacity="0.4" d="M145.2 20.53L131.21 25.19L139.44 43.71" stroke="#85652D" stroke-width="1.213" stroke-miterlimit="10"/>
<path opacity="0.4" d="M134.5 11.84L127.12 17.37L120.15 23.13L109.12 23.26L116.15 48.44L118.7 47.42" stroke="#85652D" stroke-width="1.213" stroke-miterlimit="10"/>
<path opacity="0.4" d="M102.4 20.28L98.02 39.1L93.24 24.71L85.86 22.23L80.12 26.01L71.92 18.12L65.67 16.74L60.02 29.77L46.03 45.92L37.83 33.83" stroke="#85652D" stroke-width="1.213" stroke-miterlimit="10"/>
<path opacity="0.4" d="M72.02 18.04L78.33 3.59998L96.93 6.11998L100.06 2.09998L96.83 6.37998L111.92 3.89998" stroke="#85652D" stroke-width="1.213" stroke-miterlimit="10"/>
<path opacity="0.4" d="M96.83 6.25001L106.91 4.01001" stroke="#85652D" stroke-width="1.213" stroke-miterlimit="10"/>
<path opacity="0.4" d="M65.59 16.87L54.53 26.6" stroke="#85652D" stroke-width="1.213" stroke-miterlimit="10"/>
<path opacity="0.4" d="M48.91 20.01L43.92 26.72L46.17 28.96" stroke="#85652D" stroke-width="1.213" stroke-miterlimit="10"/>
<path opacity="0.4" d="M31.51 35.7001L39.28 32.1801" stroke="#85652D" stroke-width="1.213" stroke-miterlimit="10"/>
<path opacity="0.4" d="M36.66 44.42L40.69 50.09L45.2 47.16" stroke="#85652D" stroke-width="1.213" stroke-miterlimit="10"/>
<path opacity="0.4" d="M50.91 45.11L57.88 49.61L56.71 53.6" stroke="#85652D" stroke-width="1.213" stroke-miterlimit="10"/>
<path opacity="0.4" d="M66.99 43.92L71.78 45.01L76.8 53.9L82.76 31.88L84.06 33.12" stroke="#85652D" stroke-width="1.213" stroke-miterlimit="10"/>
<path opacity="0.4" d="M98.48 48.41L103.47 47.72L106.4 21.21L115.43 47.72" stroke="#85652D" stroke-width="1.213" stroke-miterlimit="10"/>
<path opacity="0.4" d="M103.1 50.0601L90.71 55.4601L85.62 63.4201L88.55 67.4101L90.67 66.9101L93.6 72.5101L97.13 70.0601L98.88 65.9101L96.8 62.9801L101.99 57.4801" stroke="#85652D" stroke-width="1.213" stroke-miterlimit="10"/>
<path opacity="0.4" d="M166.7 107.9L172.88 109.85L178.3 112.09L177.89 115.18L181.13 122.7L185.91 125.18L189.78 112.61L191.11 95.21L199.18 101.13L198.58 114.5L193.39 123.68L188.4 124.84" stroke="#85652D" stroke-width="1.213" stroke-miterlimit="10"/>
<path opacity="0.4" d="M196.1 80.12L188.86 76.18C184.35 74.23 181.55 80.12 182.94 87.51C184.69 96.61 189.13 99.06 192.8 101.51" stroke="#85652D" stroke-width="1.213" stroke-miterlimit="10"/>
<path opacity="0.4" d="M123.9 117.5L136.92 133.72L135.5 137.21L130.15 128.13" stroke="#5699A1" stroke-width="2.426" stroke-miterlimit="10"/>
<path opacity="0.4" d="M7.82001 109L9.12001 85.96L15.78 58.78L22.03 50.26" stroke="#85652D" stroke-width="1.213" stroke-miterlimit="10"/>
<path opacity="0.4" d="M35.03 35.01L49.22 51.01" stroke="#85652D" stroke-width="1.213" stroke-miterlimit="10"/>
<path opacity="0.4" d="M47.45 87.01L50.68 50.09" stroke="#85652D" stroke-width="1.213" stroke-miterlimit="10"/>
<path opacity="0.4" d="M66.07 151.1L65.56 76.7L67.44 52.59" stroke="#85652D" stroke-width="1.213" stroke-miterlimit="10"/>
<path opacity="0.4" d="M89.93 154.2L89.23 71.48" stroke="#85652D" stroke-width="1.213" stroke-miterlimit="10"/>
<path opacity="0.4" d="M114.4 154.2V123.21L113.1 53.59" stroke="#85652D" stroke-width="1.213" stroke-miterlimit="10"/>
<path opacity="0.4" d="M138.1 152.2L136.54 135.25L124.25 53.64" stroke="#85652D" stroke-width="1.213" stroke-miterlimit="10"/>
<path opacity="0.4" d="M156.1 147.1L158.97 126.25L151.2 133.77" stroke="#85652D" stroke-width="1.213" stroke-miterlimit="10"/>
<path opacity="0.4" d="M179.7 123.2L164.7 78.19L178.7 64.14" stroke="#85652D" stroke-width="1.213" stroke-miterlimit="10"/>
<path opacity="0.4" d="M57.06 189.8L66.16 193.95L72.48 194.61L77.47 196.85L86.57 197.35L90.1 199.66L96.93 198.78L98.75 196.16L106.06 196.85L113.45 198.8L122.51 196.98L127.93 196.06L133.45 193.92L139.63 190.76" stroke="#85652D" stroke-width="1.213" stroke-miterlimit="10"/>
<path d="M49.96 50.98L51.81 51.61C50.06 56.71 48.6 69.43 48.6 78.21V81.51H46.82C46.82 67.1 43.11 58.71 36.18 58.71C29.93 58.71 24.74 67.1 24.74 74.62C24.74 87.77 45.98 94.15 50.81 104.22C53.51 109.88 53.82 114.03 53.82 119.72C53.82 131.43 48.47 141.64 38.96 141.64C33.71 141.64 28.96 137.91 24.55 134.03L21.62 137.91L19.77 112.26L21.65 111.6C23.01 122.91 28.27 135.01 37.54 135.01C43.31 135.01 45.62 128.41 45.62 123.31C45.62 108.87 26.22 101.72 20.61 92.67C18.29 88.78 17.42 84.76 17.42 80.26C17.42 67.7 25.62 54.51 36.05 54.51C39.62 54.51 42.06 55.53 45.49 57.91L49.96 50.98Z" fill="#490000"/>
<path d="M55.66 139.4C61.4 139.4 62.31 137.79 62.31 128.51L62.04 65.72C62.04 57.96 60.68 56.94 55.66 56.64V53.58L70.72 50.92L90.77 123.67L110.46 50.92L126.71 52.4V55.33C121.92 55.33 120.04 56.81 120.04 64.06L120.24 130.66C120.24 137.66 122.12 138.98 126.71 138.98V142.28L103.13 143.79V140.3C108.88 140.3 110.43 138.25 110.43 129.9L112.65 65.26H112.41L89.76 143.26H88.11L66.64 68.19H66.47V127.59C66.47 136.84 67.83 139.15 74.15 139.15V142.28H55.66V139.4Z" fill="#490000"/>
<path d="M130.1 140.1C136.03 140.1 137.29 137.65 137.29 127.79L137.02 67.21C137.02 57.84 135.36 56.69 130.1 56.69V53.13L150.77 54.85V57.6C145.78 57.6 144.98 59.29 144.98 67.21L145.15 94.88L161.47 69.69C163.09 66.94 164.29 64.14 164.29 62.29C164.29 59.54 162.67 58.88 159.57 58.88V57.03L176.23 60.42V62.47C172.87 62.47 170.58 63.39 165.72 71.12L154.99 89.26L172.15 121.78C176.18 129.4 178.39 131.09 182.98 132.1V134.15L160.67 135.63V133.39C163.8 132.83 165.68 131.81 165.68 129.99C165.68 128.72 164.23 125.66 161.3 120.13L149.54 98.11L145.8 103.41V128.79C145.8 136.04 147.06 137.39 151.68 137.39V140.31L130.14 142.36V140.1H130.1Z" fill="#490000"/>
<path d="M42.71 172.5H43.68C44.35 175.12 45.62 176.93 47.47 176.93C49.12 176.93 49.93 175.52 49.93 174.18C49.93 172.87 49.02 171.42 47.53 170.04C44.92 167.53 42.94 165.92 42.94 163.13C42.94 160.34 45.12 158.03 47.37 158.03C49.06 158.03 49.79 159.15 50.49 159.15C50.83 159.15 50.9 158.75 51.04 158.29H51.77V164.34H50.9C50.23 161.96 49.06 159.91 47.51 159.91C46.24 159.91 45.54 160.9 45.54 162.31C45.54 163.72 46.84 164.96 48.82 166.74C50.73 168.42 52.81 170.24 52.81 173.4C52.81 176.46 50.56 178.91 47.89 178.91C46.24 178.91 44.62 177.83 44.05 177.83C43.78 177.83 43.58 178.32 43.48 178.71H42.71V172.5Z" fill="#FFF9C1" stroke="#684922" stroke-width="0.7" stroke-miterlimit="10"/>
<path d="M57.46 177.3C59.15 177.24 59.65 176.22 59.65 174.34V161.07H58.16C56.44 161.07 55.63 162.02 55.13 164.64H54.43L54.73 158.95H55.36C55.56 159.28 55.66 159.38 56.03 159.38H65.71C66.07 159.38 66.28 159.32 66.44 158.95H67.07L67.38 164.64H66.67C66.17 162.02 65.37 161.07 63.65 161.07H62.16V174.34C62.16 176.29 62.72 177.24 64.38 177.3V178.32H57.41V177.3H57.46Z" fill="#FFF9C1" stroke="#684922" stroke-width="0.7" stroke-miterlimit="10"/>
<path d="M67.04 177.3C68.4 177.17 68.83 176.35 69.47 174.14L74.36 158.56H75.06L80.15 173.64C80.92 175.99 81.58 177.04 82.62 177.24V178.26H75.99V177.24C77.26 177.1 77.73 176.77 77.73 175.69C77.73 175.26 77.56 174.64 77.26 173.75L76.66 171.74H71.91L71.44 173.49C71.18 174.41 71.04 175.09 71.04 175.49C71.04 176.5 71.64 177.17 72.75 177.27V178.29H67.01V177.3H67.04ZM76.12 170.2L74.24 164.18L72.32 170.2H76.12Z" fill="#FFF9C1" stroke="#684922" stroke-width="0.7" stroke-miterlimit="10"/>
<path d="M83.19 177.3C84.71 177.04 85.08 176.02 85.08 173.91V162.7C83.94 160.59 83.47 159.7 82.56 159.6V158.69H87.22L94.92 171.71V163.79C94.92 161.2 94.55 159.89 92.77 159.63V158.72H97.83V159.63C96.37 160 96.17 161.01 96.17 163.19V178.35H94.88L86.28 163.79V173.58C86.28 175.89 86.72 177 88.27 177.3V178.32H83.18V177.3H83.19Z" fill="#FFF9C1" stroke="#684922" stroke-width="0.7" stroke-miterlimit="10"/>
<path d="M97.73 177.3C99.19 177.17 99.66 176.41 99.66 174.6V162.7C99.66 160.75 99.16 159.8 97.73 159.63V158.72H104.81C110.61 158.72 113.38 163.39 113.38 168.29C113.38 172.99 110.71 178.09 104.88 178.09H97.73V177.3ZM104.11 159.96C103.44 159.96 102.97 160.52 102.97 161.44V174.9C102.97 176.35 103.61 177.04 105.03 177.04C108.56 177.04 110.12 173.78 110.12 168.68C110.12 163.95 108.08 159.96 104.11 159.96Z" fill="#FFF9C1" stroke="#684922" stroke-width="0.7" stroke-miterlimit="10"/>
<path d="M112.3 177.3C113.66 177.17 114.1 176.35 114.73 174.14L119.62 158.56H120.32L125.41 173.64C126.18 175.99 126.85 177.04 127.88 177.24V178.26H121.26V177.24C122.52 177.1 123 176.77 123 175.69C123 175.26 122.83 174.64 122.52 173.75L121.92 171.74H117.17L116.7 173.49C116.43 174.41 116.3 175.09 116.3 175.49C116.3 176.5 116.9 177.17 118.01 177.27V178.29H112.27V177.3H112.3ZM121.37 170.2L119.49 164.18L117.57 170.2H121.37Z" fill="#FFF9C1" stroke="#684922" stroke-width="0.7" stroke-miterlimit="10"/>
<path d="M128.7 177.3C130.16 177.17 130.63 176.29 130.63 174.54V162.64C130.63 160.69 130.2 159.8 128.7 159.6V158.69H134.92C138.95 158.69 140.73 160.47 140.73 163.7C140.73 165.74 139.76 167.36 137.85 168.44L141.11 174.7C141.88 176.25 142.45 177.1 143.32 177.44V178.35H139.29C138.69 177.34 138.12 176.02 137.32 174.34L134.84 169.37H133.77V174.7C133.77 176.45 134.24 177.24 135.69 177.37V178.39H128.73V177.3H128.7ZM134.31 159.8C133.91 159.8 133.77 160.07 133.77 160.73V168.19H134.24C136.63 168.19 137.69 166.64 137.69 163.79C137.69 161.27 136.43 159.8 134.31 159.8Z" fill="#FFF9C1" stroke="#684922" stroke-width="0.7" stroke-miterlimit="10"/>
<path d="M146.4 177.3C148.08 177.24 148.58 176.22 148.58 174.34V161.07H147.09C145.37 161.07 144.56 162.02 144.06 164.64H143.36L143.66 158.95H144.29C144.5 159.28 144.59 159.38 144.96 159.38H154.64C155 159.38 155.21 159.32 155.38 158.95H156.01L156.31 164.64H155.61C155.11 162.02 154.3 161.07 152.59 161.07H151.1V174.34C151.1 176.29 151.66 177.24 153.31 177.3V178.32H146.35V177.3H146.4Z" fill="#FFF9C1" stroke="#684922" stroke-width="0.7" stroke-miterlimit="10"/>
</g>
<defs>
<linearGradient id="paint0_linear_238_2" x1="99.72" y1="0.70071" x2="99.72" y2="199.9" gradientUnits="userSpaceOnUse">
<stop stop-color="#FFF3C5"/>
<stop offset="1" stop-color="#F7B53B"/>
</linearGradient>
<linearGradient id="paint1_linear_238_2" x1="95.47" y1="125.7" x2="95.47" y2="199.7" gradientUnits="userSpaceOnUse">
<stop stop-color="#B9926A"/>
<stop offset="1" stop-color="#443E17"/>
</linearGradient>
<linearGradient id="paint2_linear_238_2" x1="99.76" y1="127.1" x2="99.76" y2="155.6" gradientUnits="userSpaceOnUse">
<stop stop-color="#C4A078"/>
<stop offset="1" stop-color="#464325"/>
</linearGradient>
<linearGradient id="paint3_linear_238_2" x1="95.96" y1="151.8" x2="95.96" y2="177.8" gradientUnits="userSpaceOnUse">
<stop stop-color="#997A5A"/>
<stop offset="1" stop-color="#D3A68A"/>
</linearGradient>
<clipPath id="clip0_238_2">
<rect width="200" height="202" fill="white"/>
</clipPath>
</defs>
</svg>
