<svg width="100%" height="100%" viewBox="0 0 248 151" fill="none" xmlns="http://www.w3.org/2000/svg">
<path d="M243.968 3.78809H3.67786V146.782H243.968V3.78809Z" fill="#FEFEFE"/>
<path fill-rule="evenodd" clip-rule="evenodd" d="M9.23132 51.4895H31.4086V118.187H96.1198V51.4895H234.737V32.4016H9.23132V51.4895Z" fill="#233250"/>
<path fill-rule="evenodd" clip-rule="evenodd" d="M49.8896 108.459L77.6203 74.9724V108.569H86.8517V60.9231H77.6203V61.0886L49.8896 94.5383V60.9231H40.6399V108.569H49.6505L49.7241 108.661L49.7609 108.569H49.8896V108.459Z" fill="#233250"/>
<path fill-rule="evenodd" clip-rule="evenodd" d="M190.364 117.929L223.648 77.7491V118.095H234.718V60.9231H223.648V61.0886L190.364 101.232V60.9231H179.294V118.095H190.088L190.162 118.187L190.217 118.095H190.364V117.929Z" fill="#233250"/>
<path fill-rule="evenodd" clip-rule="evenodd" d="M114.582 70.522H151.563V80.0476H160.794V61.0149H105.351V118.187H160.794V99.1355H151.563V108.661H114.582V70.522Z" fill="#233250"/>
<path fill-rule="evenodd" clip-rule="evenodd" d="M9.23132 127.694V137.256H234.737V127.694H9.23132Z" fill="#233250"/>
<path fill-rule="evenodd" clip-rule="evenodd" d="M9.23132 13.3689V22.8761H234.737V13.3689H9.23132Z" fill="#233250"/>
<path fill-rule="evenodd" clip-rule="evenodd" d="M247.683 3.78815V0H0V150.57H247.683V3.78815ZM243.968 146.782H3.67782V3.78815H243.968V146.782Z" fill="#233250"/>
<path fill-rule="evenodd" clip-rule="evenodd" d="M49.8896 108.459L77.6203 74.9724V108.569H86.8517V60.9231H77.6203V61.0886L49.8896 94.5383V60.9231H40.6399V108.569H49.6505L49.7241 108.661L49.7609 108.569H49.8896V108.459Z" fill="white"/>
</svg>
